<?xml version="1.0" standalone="no"?>
<!DOCTYPE svg PUBLIC "-//W3C//DTD SVG 1.1//EN" "http://www.w3.org/Graphics/SVG/1.1/DTD/svg11.dtd" >
<svg>
<metadata>
Created by FontForge 20090622 at Tue Nov 10 07:39:20 2015
 By deploy user
Copyright (c) 2015 Belleve Invis.
</metadata>
<defs>
<font id="Iosevka-Bold" horiz-adv-x="500" >
  <font-face 
    font-family="Iosevka"
    font-weight="700"
    font-stretch="normal"
    units-per-em="1000"
    panose-1="2 0 8 9 0 0 0 0 0 0"
    ascent="800"
    descent="-200"
    x-height="530"
    cap-height="735"
    bbox="-475 -440 1000 1196"
    underline-thickness="0"
    underline-position="3"
    unicode-range="U+0020-U+1D1CF"
  />
<missing-glyph 
d="M158 108h184v519h-184v-519zM50 0v735h400v-735h-400z" />
    <glyph glyph-name=".notdef" 
d="M158 108h184v519h-184v-519zM50 0v735h400v-735h-400z" />
    <glyph glyph-name="glyph1" horiz-adv-x="0" 
 />
    <glyph glyph-name="glyph2" horiz-adv-x="333" 
 />
    <glyph glyph-name="space" unicode=" " 
 />
    <glyph glyph-name="exclam" unicode="!" 
d="M190 266v469h120v-469h-120zM162 80q0 41 23.5 64.5t64.5 23.5t64.5 -23.5t23.5 -64.5t-23.5 -64.5t-64.5 -23.5t-64.5 23.5t-23.5 64.5z" />
    <glyph glyph-name="quotedbl" unicode="&#x22;" 
d="M278 772h144q0 -48 -6 -161t-6 -161h-120q0 48 -6 161t-6 161zM78 772h144q0 -48 -6 -161t-6 -161h-120q0 48 -6 161t-6 161z" />
    <glyph glyph-name="numbersign" unicode="#" 
d="M214 211h72v241h-72v-241zM50 103v108h76v241h-76v108h76v205h88v-205h72v205h88v-205h76v-108h-76v-241h76v-108h-76v-206h-88v206h-72v-206h-88v206h-76z" />
    <glyph glyph-name="dollar" unicode="$" 
d="M49 155l120 9q4 -46 51 -60q16 -4 28 -4q60 0 78 50q18 53 -29 109q-21 25 -65 57q-98 70 -118 92q-57 61 -64 134q-7 82 50 142q36 39 90 52v102h120v-101q83 -20 121 -89q17 -29 20 -68l-120 -9q-4 46 -51 60q-16 4 -28 4q-60 0 -78 -50q-18 -53 29 -109q21 -25 65 -57
q98 -70 118 -92q57 -61 64 -134q7 -82 -50 -142q-36 -39 -90 -52v-101h-120v100q-83 20 -121 90q-17 30 -20 67z" />
    <glyph glyph-name="percent" unicode="%" 
d="M319 0v220h131v-220h-131zM50 514v221h131v-221h-131zM50 0h131l269 735h-131z" />
    <glyph glyph-name="ampersand" unicode="&#x26;" 
d="M174 597q-18 -74 37 -163q29 21 41 35q52 56 34 128q-14 56 -56 56t-56 -56zM142 210q-3 -56 29 -94q29 -34 76 -34h3q71 1 86 92l-18 18q-19 19 -53 46q-58 48 -77 67q-43 -42 -46 -95zM57 120q-43 112 26 207q16 22 46 47q-58 88 -59 181q-1 63 23.5 109t69.5 66
q29 13 67 13q112 0 149 -110q35 -105 -30 -193q-25 -35 -82 -75q29 -30 71 -66v69h120v-158q0 -20 -2 -42q21 -39 28 -78q6 -33 6 -90v-1h-100v1q0 27 -1 38q-52 -46 -137 -46q-147 0 -195 128z" />
    <glyph glyph-name="quotesingle" unicode="'" 
d="M178 772h144q0 -48 -6 -161t-6 -161h-120q0 48 -6 161t-6 161z" />
    <glyph glyph-name="parenleft" unicode="(" 
d="M110 331q0 206 88 364q44 81 112 149l85 -76q-110 -115 -147 -271q-18 -78 -18 -166q0 -174 73 -309q38 -70 92 -127l-85 -76q-134 135 -178 318q-22 89 -22 194z" />
    <glyph glyph-name="parenright" unicode=")" 
d="M105 -105q110 115 147 271q18 78 18 165q0 175 -73 310q-38 70 -92 127l85 76q134 -135 178 -318q22 -89 22 -195q0 -205 -88 -363q-44 -81 -112 -149z" />
    <glyph glyph-name="asterisk" unicode="*" 
d="M34 595l33 103l137 -53l-8 146h108l-8 -146l137 53l33 -103l-141 -38l92 -114l-87 -63l-80 122l-80 -122l-87 63l92 114z" />
    <glyph glyph-name="plus" unicode="+" 
d="M50 282v98h146v171h108v-171h146v-98h-146v-171h-108v171h-146z" />
    <glyph glyph-name="comma" unicode="," 
d="M152 90q0 70 57 91q17 7 41 7q70 0 91 -57q7 -17 7 -41q0 -68 -27 -137q-30 -78 -98 -158l-69 58q60 70 86 139q-41 3 -64.5 29t-23.5 69z" />
    <glyph glyph-name="hyphen" unicode="-" 
d="M50 277v108h400v-108h-400z" />
    <glyph glyph-name="period" unicode="." 
d="M152 90q0 70 57 91q17 7 41 7q70 0 91 -57q7 -17 7 -41q0 -70 -57 -91q-17 -7 -41 -7q-70 0 -91 57q-7 17 -7 41z" />
    <glyph glyph-name="slash" unicode="/" 
d="M50 -181l275 1025h125l-275 -1025h-125z" />
    <glyph glyph-name="zero" unicode="0" 
d="M165 185q10 -58 48 -77q15 -8 37 -8q62 0 82 70q6 21 6 50v201zM162 314l173 236q-10 58 -48 77q-15 8 -37 8q-62 0 -82 -70q-6 -21 -6 -50v-201zM42 220v295q0 59 14 95q32 86 107 117q38 16 87 16q145 0 194 -133q14 -39 14 -95v-295q0 -59 -14 -95q-32 -86 -107 -117
q-38 -16 -87 -16q-145 0 -194 133q-14 39 -14 95z" />
    <glyph glyph-name="one" unicode="1" 
d="M48 619l172 116h120v-735h-120v605l-112 -76z" />
    <glyph glyph-name="two" unicode="2" 
d="M49 580q7 46 33.5 83.5t65.5 57.5q44 22 99 22q96 0 152 -64q57 -64 51 -155q-5 -77 -59 -151q-26 -33 -113 -119q-61 -61 -85 -113q-7 -13 -12 -33h269v-108h-400v1q0 65 6 101q16 93 94 176l20 20.5t22.5 22.5l29.5 29q47 46 72 83q36 53 37 102q3 61 -42 89
q-17 11 -42 11q-38 0 -59 -26q-17 -20 -20 -45z" />
    <glyph glyph-name="three" unicode="3" 
d="M49 155l119 17q4 -31 25 -51.5t54 -20.5q39 0 62 32q24 35 21 77q-3 57 -46 88q-33 24 -98 24v108q64 0 96 22q27 18 41 50.5t3 70.5q-18 63 -78 63q-37 0 -60 -25q-17 -20 -20 -45l-119 15q7 46 33.5 83.5t65.5 57.5q44 22 100 22q96 0 151 -62q55 -60 51 -152
q-4 -96 -74 -155q70 -61 74 -160q4 -93 -51 -157q-57 -65 -151.5 -65t-149.5 60q-40 43 -49 103z" />
    <glyph glyph-name="four" unicode="4" 
d="M166 294h104v235zM50 186v108l193 441h147v-441h60v-108h-60v-186h-120v186h-220z" />
    <glyph glyph-name="five" unicode="5" 
d="M49 155l118 20q5 -32 25.5 -53.5t53.5 -21.5q40 0 63 37q15 24 19.5 64.5t-4.5 74.5q-16 54 -65 69q-18 5 -49 5h-130v385h345v-108h-225v-169h10q61 0 94 -9q94 -27 130 -127q31 -87 5 -182q-23 -83 -91 -123q-44 -25 -102 -25q-93 0 -148 62q-39 45 -49 101z" />
    <glyph glyph-name="six" unicode="6" 
d="M162 220q0 -56 24 -88t64 -32q62 0 82 70q6 21 6 50v1q0 57 -24 88q-24 32 -64 32q-62 0 -82 -70q-6 -21 -6 -50v-1zM42 220v3q0 409 289 512l36 -102q-137 -49 -186 -193q32 9 69 9q145 0 194 -133q14 -39 14 -95v-1q0 -59 -14 -95q-32 -86 -107 -117q-38 -16 -87 -16
q-145 0 -194 133q-14 39 -14 95z" />
    <glyph glyph-name="seven" unicode="7" 
d="M50 627v108h400v-108l-216 -627h-124l216 627h-276z" />
    <glyph glyph-name="eight" unicode="8" 
d="M179 579q-23 -72 40 -125q11 -10 31 -21q43 24 62 59q23 43 9 87q-18 56 -71 56t-71 -56zM164 161q21 -61 86 -61t86 61q13 38 0.5 72t-39.5 56q-10 9 -47 29q-37 -20 -47 -29q-64 -54 -39 -128zM40.5 231q9.5 55 45.5 98q22 26 56 48q-24 18 -40 38q-35 42 -44.5 95.5
t10.5 113.5q28 77 100 105q37 14 82 14q137 0 182 -119q20 -60 10.5 -113.5t-44.5 -95.5q-16 -20 -40 -38q34 -22 56 -48q36 -43 45.5 -98t-12.5 -115q-50 -124 -197 -124q-149 0 -197 124q-22 60 -12.5 115z" />
    <glyph glyph-name="nine" unicode="9" 
d="M170 478q0 -56 20 -87q20 -32 55 -33h1q59 0 78 70q6 21 6 50v19q0 63 -22 101q-21 37 -58 37h-1q-55 0 -73 -70q-6 -21 -6 -50v-37zM49 155l117 25q5 -28 20 -50t38 -28q6 -2 20 -2q24 0 43 17q29 26 39 83q4 28 4 57v26q-33 -33 -88 -33q-83 0 -138 62q-43 48 -52 118
q-2 12 -2 48v37q0 54 14 95q31 87 102 117q36 16 83 16h1q92 0 146 -67q43 -54 52 -127q2 -13 2 -52v-240q0 -62 -9 -98q-25 -93 -94 -139q-44 -28 -103 -28q-90 0 -146 66q-35 41 -49 97z" />
    <glyph glyph-name="colon" unicode=":" 
d="M152 440q0 70 57 91q17 7 41 7q70 0 91 -57q7 -17 7 -41q0 -70 -57 -91q-17 -7 -41 -7q-70 0 -91 57q-7 17 -7 41zM152 90q0 70 57 91q17 7 41 7q70 0 91 -57q7 -17 7 -41q0 -70 -57 -91q-17 -7 -41 -7q-70 0 -91 57q-7 17 -7 41z" />
    <glyph glyph-name="semicolon" unicode=";" 
d="M152 440q0 70 57 91q17 7 41 7q70 0 91 -57q7 -17 7 -41q0 -70 -57 -91q-17 -7 -41 -7q-70 0 -91 57q-7 17 -7 41zM152 90q0 70 57 91q17 7 41 7q70 0 91 -57q7 -17 7 -41q0 -68 -27 -137q-30 -78 -98 -158l-69 58q60 70 86 139q-41 3 -64.5 29t-23.5 69z" />
    <glyph glyph-name="less" unicode="&#x3c;" 
d="M50 274v114l371 241l58 -83l-339 -215l339 -215l-58 -82z" />
    <glyph glyph-name="equal" unicode="=" 
d="M50 395v98h400v-98h-400zM50 170v97h400v-97h-400z" />
    <glyph glyph-name="greater" unicode="&#x3e;" 
d="M21 116l339 215l-339 215l58 83l371 -241v-114l-371 -240z" />
    <glyph glyph-name="question" unicode="?" 
d="M162 80q0 41 23.5 64.5t64.5 23.5t64.5 -23.5t23.5 -64.5t-23.5 -64.5t-64.5 -23.5t-64.5 23.5t-23.5 64.5zM49 580q6 74 66 122q52 41 134 41q95 0 151 -54q54 -54 50 -133q-3 -61 -38 -107q-13 -18 -39 -48.5l-34 -40.5q-16 -20 -23 -44q-6 -18 -6 -50h-120q0 37 6 58
q8 29 27 52q12 14 40 42q46 46 60 94q14 50 2 80q-17 43 -76 43q-50 0 -72 -37q-6 -10 -8 -26z" />
    <glyph glyph-name="at" unicode="@" 
d="M298 169q0 -45 18 -59q8 -5 11 -5q17 0 22 37q1 7 1 27v337h-21q-15 0 -23 -17q-8 -16 -8 -47v-273zM50 29v605q0 53 14 91q47 127 186 127t186 -127q14 -38 14 -91v-465q0 -70 -33 -112q-33 -41 -88 -41h-1q-90 0 -120 89q-9 27 -9 64v273q0 37 9 64q20 56 67 79
q23 11 54 11h21v38q0 50 -27 80q-28 30 -73 30q-70 0 -94 -64q-6 -15 -6 -46v-605q0 -78 58 -103q16 -7 42 -7h146v-108h-146q-50 0 -84 15q-72 32 -102 112q-14 38 -14 91z" />
    <glyph glyph-name="A" unicode="A" 
d="M188 265h124q-21 139 -62 313q-39 -165 -62 -313zM50 0v74q0 64 16 162q23 147 80 349l44 150h120q66 -216 105 -397q20 -93 31 -189q4 -33 4 -75v-74h-120v74q0 47 -4 83h-152q-4 -54 -4 -83v-74h-120z" />
    <glyph glyph-name="B" unicode="B" 
d="M170 436h52q42 0 66 26q25 25 25 70q0 66 -53 88q-17 7 -38 7h-52v-191zM170 108h84q38 0 61 30q23 29 23 80q0 77 -49 103q-13 7 -35 7h-84v-220zM50 0v735h172q51 0 88 -14q123 -48 123 -189q0 -86 -47 -139q72 -59 72 -175q0 -152 -119 -203q-35 -15 -85 -15h-204z
" />
    <glyph glyph-name="C" unicode="C" 
d="M50 210v315q0 50 10 83q11 35 35.5 65t55.5 47q43 23 102 23q93 0 148 -60q41 -44 50 -103l-119 -16q-4 31 -25 51t-54 20q-40 0 -62 -32q-21 -29 -21 -78v-315q0 -49 21 -78q22 -32 62 -32q38 0 59 26q17 20 20 45l119 -16q-7 -46 -33.5 -83.5t-65.5 -57.5
q-44 -22 -99 -22q-95 0 -152 64q-30 34 -41 71q-10 33 -10 83z" />
    <glyph glyph-name="D" unicode="D" 
d="M170 108h49q27 0 46 12q65 42 65 164v168q0 121 -65 163q-19 12 -46 12h-49v-519zM50 0v735h169q55 0 96 -20q86 -42 119 -145q16 -49 16 -118v-168q0 -70 -16 -119q-33 -103 -119 -145q-41 -20 -96 -20h-169z" />
    <glyph glyph-name="E" unicode="E" 
d="M75 0v735h375v-108h-255v-176h201v-108h-201v-235h255v-108h-375z" />
    <glyph glyph-name="F" unicode="F" 
d="M75 0v735h375v-108h-255v-176h201v-108h-201v-343h-120z" />
    <glyph glyph-name="G" unicode="G" 
d="M42 210v315q0 50 10 83q11 35 36 65t57 47q44 23 104 23q94 0 151 -60q42 -44 51 -103l-119 -16q-5 32 -26.5 51.5t-56.5 19.5q-41 0 -65 -32q-22 -29 -22 -78v-315q0 -77 51 -102q18 -8 36 -8h1q56 0 74 64q6 20 6 46v91h-80v108h200v-199q0 -53 -14 -91
q-47 -127 -186 -127h-1q-144 0 -193 127q-14 38 -14 91z" />
    <glyph glyph-name="H" unicode="H" 
d="M50 0v735h120v-306h160v306h120v-735h-120v321h-160v-321h-120z" />
    <glyph glyph-name="I" unicode="I" 
d="M120 0v108h70v519h-70v108h260v-108h-70v-519h70v-108h-260z" />
    <glyph glyph-name="J" unicode="J" 
d="M23 155l118 19q8 -61 46 -72q10 -2 16 -2q21 0 33 14q22 22 31 73q3 18 3 49v391h-115v108h235v-499q0 -62 -8 -91q-21 -85 -86 -127q-38 -26 -93 -26q-84 0 -135 63q-35 44 -45 100z" />
    <glyph glyph-name="K" unicode="K" 
d="M50 0v735h120v-288q66 93 103 163q25 47 37 89q6 19 6 36h126q0 -15 -7 -41q-13 -44 -46 -103q-32 -56 -88 -136q96 -195 132 -323q15 -51 20 -93q3 -21 3 -39h-120q0 49 -19 121q-26 100 -81 234q-1 2 -1.5 4.5t-1.5 4.5l-63 -75v-289h-120z" />
    <glyph glyph-name="L" unicode="L" 
d="M75 0v735h120v-627h255v-108h-375z" />
    <glyph glyph-name="M" unicode="M" 
d="M50 0v735h101l99 -381l99 381h101v-735h-120v147q0 141 25 294q9 54 15 105l-85 -326h-70l-85 326q6 -51 15 -105q25 -153 25 -294v-147h-120z" />
    <glyph glyph-name="N" unicode="N" 
d="M50 0v735h126l175 -547q-1 9 -5 32q-16 113 -16 221v294h120v-735h-126l-175 547q1 -11 5 -33q16 -113 16 -220v-294h-120z" />
    <glyph glyph-name="O" unicode="O" 
d="M162 210q0 -50 24 -80q23 -30 64 -30q62 0 82 64q6 18 6 46v315q0 50 -24 80q-23 30 -64 30q-62 0 -82 -64q-6 -18 -6 -46v-315zM42 210v315q0 53 14 91q48 127 194 127t194 -127q14 -38 14 -91v-315q0 -53 -14 -91q-48 -127 -194 -127t-194 127q-14 38 -14 91z" />
    <glyph glyph-name="P" unicode="P" 
d="M182 386h62q43 0 69 33q25 33 25 88q0 83 -54 112q-16 8 -40 8h-62v-241zM62 0v735h182q51 0 90 -16q124 -53 124 -212.5t-124 -212.5q-39 -16 -90 -16h-62v-278h-120z" />
    <glyph glyph-name="Q" unicode="Q" 
d="M162 210q0 -50 24 -80q23 -30 64 -30q62 0 82 64q6 18 6 46v315q0 50 -24 80q-23 30 -64 30q-62 0 -82 -64q-6 -18 -6 -46v-315zM42 210v315q0 53 14 91q48 127 194 127t194 -127q14 -38 14 -91v-315q0 -53 -14 -91q-26 -66 -81 -99q12 -32 32 -91.5t25 -75.5h-120
l-47 139h-3q-146 0 -194 127q-14 38 -14 91z" />
    <glyph glyph-name="R" unicode="R" 
d="M170 386h74q43 0 69 33q25 33 25 88q0 83 -54 112q-16 8 -40 8h-74v-241zM50 0v735h194q51 0 90 -16q124 -53 124 -212q0 -151 -113 -208q65 -97 95 -179q24 -66 24 -120h-120q0 46 -20 99q-29 79 -105 179h-49v-278h-120z" />
    <glyph glyph-name="S" unicode="S" 
d="M49 155l120 9q4 -46 51 -60q16 -4 28 -4q60 0 78 50q18 53 -29 109q-21 25 -65 57q-98 70 -118 92q-57 61 -64 134q-7 82 50 142q57 59 152 59q127 0 179 -95q17 -29 20 -68l-120 -9q-4 46 -51 60q-16 4 -28 4q-60 0 -78 -50q-18 -53 29 -109q21 -25 65 -57
q98 -70 118 -92q57 -61 64 -134q7 -82 -50 -142q-57 -59 -152 -59q-127 0 -179 96q-17 30 -20 67z" />
    <glyph glyph-name="T" unicode="T" 
d="M50 627v108h400v-108h-140v-627h-120v627h-140z" />
    <glyph glyph-name="U" unicode="U" 
d="M50 210v525h120v-525q0 -78 47 -102q16 -8 33 -8q56 0 74 64q6 20 6 46v525h120v-525q0 -53 -14 -91q-47 -127 -186 -127t-186 127q-14 38 -14 91z" />
    <glyph glyph-name="V" unicode="V" 
d="M50 662v73h120v-73q0 -53 13 -157q20 -151 67 -348q61 255 77 432q3 36 3 73v73h120v-73q0 -65 -16 -163q-23 -147 -80 -349l-44 -150h-120q-66 216 -105 397q-20 93 -31 189q-4 33 -4 76z" />
    <glyph glyph-name="W" unicode="W" 
d="M50 551v184h120v-184q0 -55 5 -357q24 112 43 222q3 16 3 25h58q0 -9 3 -25q17 -105 43 -222q5 202 5 357v184h120v-184q0 -59 -9 -135q-16 -145 -75 -416h-58q-34 149 -58 273q-24 -124 -58 -273h-58q-44 206 -63 331q-12 80 -19 158q-2 21 -2 62z" />
    <glyph glyph-name="X" unicode="X" 
d="M50 0v37q0 52 16 107q14 49 48 108l68 116l-68 115q-48 83 -60 161q-4 23 -4 54v37h120v-37q0 -54 27 -119q10 -22 21 -41l32 -55l32 55q35 58 45 120q3 18 3 40v37h120v-37q0 -52 -16 -107q-14 -49 -48 -108l-68 -115l68 -116q48 -82 60 -162q4 -23 4 -53v-37h-120v37
q0 54 -27 119q-10 22 -21 41l-32 55l-32 -55q-35 -58 -45 -120q-3 -18 -3 -40v-37h-120z" />
    <glyph glyph-name="Y" unicode="Y" 
d="M50 691v44h120v-44q0 -69 28 -150q12 -32 22 -52l30 -61l30 61q37 75 47 151q3 24 3 51v44h120v-44q0 -88 -35 -186q-9 -24 -27 -63l-78 -159v-283h-120v283l-78 159q-45 92 -58 187q-4 25 -4 62z" />
    <glyph glyph-name="Z" unicode="Z" 
d="M50 0v108l276 519h-276v108h400v-108l-276 -519h276v-108h-400z" />
    <glyph glyph-name="bracketleft" unicode="[" 
d="M110 -181v1025h300v-108h-180v-809h180v-108h-300z" />
    <glyph glyph-name="backslash" unicode="\" 
d="M50 844l275 -1025h125l-275 1025h-125z" />
    <glyph glyph-name="bracketright" unicode="]" 
d="M90 -73h180v809h-180v108h300v-1025h-300v108z" />
    <glyph glyph-name="asciicircum" unicode="^" 
d="M64 626l23 25.5l22 24.5l41 44l22.5 25l23.5 26h108l23.5 -26l22.5 -25l41 -44l22 -24.5l23 -25.5l-74 -63q-23 26 -55 67l-57 74l-57 -74q-32 -41 -55 -67z" />
    <glyph glyph-name="underscore" unicode="_" 
d="M50 0v108h400v-108h-400z" />
    <glyph glyph-name="grave" unicode="`" 
d="M114 710l72 67q24 -26 48 -55l46 -56q24 -29 48 -55l-58 -53q-20 22 -51 51l-53 50q-40 38 -52 51z" />
    <glyph glyph-name="a" unicode="a" 
d="M162 155q0 -28 20.5 -41.5t52.5 -13.5h1q66 0 88 57q6 16 6 41v24h-60q-49 0 -79 -18q-29 -17 -29 -49zM42.5 160.5q1.5 39.5 15.5 68.5q30 62 117 89q39 12 95 12h60q-1 40 -22 68q-24 32 -66 32q-62 0 -79 -55l-114 35q25 74 97 108q43 20 96 20q97 0 156 -64
q30 -31 42 -71q10 -29 10 -83v-320h-120v52q-48 -60 -132 -60q-110 0 -145 96q-12 33 -10.5 72.5z" />
    <glyph glyph-name="b" unicode="b" 
d="M170 220q0 -53 22 -88q22 -32 58 -32h1q60 0 81 70q6 21 6 50v90q0 85 -51 112q-15 8 -36 8h-1q-55 -1 -74 -70q-6 -21 -6 -50v-90zM50 0v735h120v-259q43 62 118 62h1q78 0 123 -62q46 -61 46 -166v-90q0 -105 -46 -166q-45 -62 -123 -62h-1q-75 0 -118 62v-54h-120z
" />
    <glyph glyph-name="c" unicode="c" 
d="M42 220v90q0 51 10 86q11 37 36.5 68.5t57.5 49.5q44 24 104 24q93 0 151 -61q39 -42 50 -102l-118 -19q-5 32 -26.5 53t-56.5 21q-42 0 -66 -35q-22 -32 -22 -85v-90q0 -53 22 -85q24 -35 66 -35q39 0 62 28q17 20 21 46l118 -19q-8 -45 -35 -83t-66 -58
q-41 -22 -100 -22q-98 0 -156 66q-30 35 -42 76q-10 35 -10 86z" />
    <glyph glyph-name="d" unicode="d" 
d="M162 220q0 -85 51 -112q15 -8 36 -8h1q55 1 74 70q6 21 6 50v90q0 53 -22 88q-22 32 -58 32h-1q-60 0 -81 -70q-6 -21 -6 -50v-90zM42 220v90q0 105 46 166q45 62 123 62h1q75 0 118 -62v259h120v-735h-120v54q-43 -62 -118 -62h-1q-78 0 -123 62q-46 61 -46 166z" />
    <glyph glyph-name="e" unicode="e" 
d="M162 320h176q-3 78 -51 102q-15 8 -37 8q-62 0 -82 -70q-5 -18 -6 -40zM42 220v90q0 59 14 95q32 86 107 117q38 16 87 16q145 0 194 -133q14 -39 14 -95v-98h-296q1 -47 24 -77q27 -35 71 -35q64 0 85 57l113 -37q-26 -74 -99 -108q-43 -20 -99 -20q-101 0 -161 66
q-30 33 -44 76q-10 30 -10 86z" />
    <glyph glyph-name="f" unicode="f" 
d="M75 422v108h109v85q0 55 12 81q32 70 136 78q14 1 82 1v-108q-9 0 -29 1.5t-29 1.5q-52 0 -52 -55v-85h121v-108h-121v-422h-120v422h-109z" />
    <glyph glyph-name="g" unicode="g" 
d="M162 353q0 -36 21.5 -56t58.5 -20t59 20t22 56t-22 56.5t-59 20.5t-58.5 -20.5t-21.5 -56.5zM152 -39q-1 -47 56 -61q20 -5 40 -5q68 0 88 38q13 26 2 48q-14 27 -62 27h-59q-64 -2 -65 -47zM32 -39q0 62 41 103q-23 32 -23 71q0 54 40 90q-48 50 -48 128q0 84 54 135
q53 50 146 50q34 0 68 -8h152v-108l-30 1q11 -33 11 -70q0 -83 -54 -134q-53 -50 -147 -50q-47 0 -80 11q-8 -23 4 -40t32 -22q8 -2 16 -2h62q46 0 78 -11q70 -22 96 -79q13 -30 12.5 -68.5t-14.5 -68.5q-31 -66 -110 -90q-39 -12 -90 -12q-100 0 -158 47q-58 46 -58 127z
" />
    <glyph glyph-name="h" unicode="h" 
d="M50 0v735h120v-259q43 62 118 62t118 -62q44 -62 44 -166v-310h-120v310q0 53 -22 88q-20 32 -58 32q-55 0 -74 -70q-6 -21 -6 -50v-310h-120z" />
    <glyph glyph-name="i" unicode="i" 
d="M170 685q0 37 21 58.5t59 21.5t59 -21.5t21 -58.5t-21 -58.5t-59 -21.5t-59 21.5t-21 58.5zM75 0v108h122v314h-108v108h228v-422h108v-108h-350z" />
    <glyph glyph-name="j" unicode="j" 
d="M200 685q0 37 21 58.5t59 21.5t59 -21.5t21 -58.5t-21 -58.5t-59 -21.5t-59 21.5t-21 58.5zM-12 -70l116 26q5 -26 21.5 -43.5t43.5 -17.5q32 0 53 36q18 33 18 87v404h-115v108h235v-512q0 -56 -9 -87q-22 -80 -87 -120q-39 -24 -95 -24q-86 0 -136 57q-33 36 -45 86z
" />
    <glyph glyph-name="k" unicode="k" 
d="M50 0v735h120v-401q63 59 105 114q23 30 36 59q5 11 5 23h126q0 -11 -7 -30q-13 -33 -46 -74q-36 -48 -86 -96q72 -107 112 -191q30 -64 38 -110q3 -15 3 -29h-120q0 32 -18 84q-27 75 -87 177q-29 -26 -61 -52v-209h-120z" />
    <glyph glyph-name="l" unicode="l" 
d="M75 0v108h122v519h-108v108h228v-627h108v-108h-350z" />
    <glyph glyph-name="m" unicode="m" 
d="M42 0v530h104v-20q19 28 58 28q48 0 75 -53q27 53 75 53h1q47 0 75 -47t28 -126v-365h-104v365q0 34 -7 58q-5 14 -13 19q-4 2 -6 2q-7 0 -11 -6q-9 -9 -13 -40q-2 -18 -2 -33v-365h-104v365q0 34 -7 58q-5 14 -13 19q-4 2 -6 2q-5 0 -11 -6q-9 -9 -13 -40q-2 -18 -2 -33
v-365h-104z" />
    <glyph glyph-name="n" unicode="n" 
d="M50 0v530h120v-54q43 62 118 62t118 -62q44 -62 44 -166v-310h-120v310q0 53 -22 88q-20 32 -58 32q-55 0 -74 -70q-6 -21 -6 -50v-310h-120z" />
    <glyph glyph-name="o" unicode="o" 
d="M162 220q0 -56 24 -88t64 -32q62 0 82 70q6 21 6 50v90q0 56 -24 88t-64 32q-62 0 -82 -70q-6 -21 -6 -50v-90zM42 220v90q0 59 14 95q32 86 107 117q38 16 87 16q145 0 194 -133q14 -39 14 -95v-90q0 -59 -14 -95q-32 -86 -107 -117q-38 -16 -87 -16q-145 0 -194 133
q-14 39 -14 95z" />
    <glyph glyph-name="p" unicode="p" 
d="M170 220q0 -53 22 -88q22 -32 58 -32h1q60 0 81 70q6 21 6 50v90q0 85 -51 112q-15 8 -36 8h-1q-55 -1 -74 -70q-6 -21 -6 -50v-90zM50 -205v735h120v-54q43 62 118 62h1q78 0 123 -62q46 -61 46 -166v-90q0 -105 -46 -166q-45 -62 -123 -62h-1q-75 0 -118 62v-259h-120z
" />
    <glyph glyph-name="q" unicode="q" 
d="M162 220q0 -85 51 -112q15 -8 36 -8h1q55 1 74 70q6 21 6 50v90q0 53 -22 88q-22 32 -58 32h-1q-60 0 -81 -70q-6 -21 -6 -50v-90zM42 220v90q0 105 46 166q45 62 123 62h1q75 0 118 -62v54h120v-735h-120v259q-43 -62 -118 -62h-1q-78 0 -123 62q-46 61 -46 166z" />
    <glyph glyph-name="r" unicode="r" 
d="M110 0v530h120v-66q36 73 105 74h2q43 0 78 -25.5t52 -62.5l-109 -44q-17 24 -48 24q-34 0 -57 -32t-23 -88v-310h-120z" />
    <glyph glyph-name="s" unicode="s" 
d="M49 110l111 41q21 -51 87 -51q59 0 77 29q6 9 6 19q0 25 -26 43q-23 15 -47 20l-34 6.5t-39 8.5q-82 20 -116 84q-18 33 -18 72q0 68 51 110q54 46 152 46q73 0 124.5 -31.5t73.5 -86.5l-111 -41q-21 51 -87 51q-59 0 -77 -29q-6 -9 -6 -19q0 -25 26 -43q23 -15 47 -20
l34 -6.5t39 -8.5q82 -20 116 -84q18 -33 18 -72q0 -68 -51 -110q-54 -46 -152 -46q-73 0 -124.5 31.5t-73.5 86.5z" />
    <glyph glyph-name="t" unicode="t" 
d="M49 422v108h91v205h120v-205h139v-108h-139v-229q0 -42 11 -68q12 -25 29 -25h1q22 0 33 30q6 15 8 39l119 -14q-6 -45 -29.5 -86t-55.5 -59t-76 -18q-73 0 -117 54q-33 42 -41 104q-2 20 -2 43v229h-91z" />
    <glyph glyph-name="u" unicode="u" 
d="M50 220v310h120v-310q0 -53 22 -88q20 -32 58 -32q55 0 74 70q6 21 6 50v310h120v-530h-120v54q-43 -62 -118 -62t-118 62q-44 62 -44 166z" />
    <glyph glyph-name="v" unicode="v" 
d="M50 477v53h120v-53q0 -43 12 -109q19 -103 68 -250q36 111 53 182t24 127q3 25 3 50v53h120v-53q0 -115 -96 -369l-44 -108h-120q-67 159 -105 286q-20 65 -31 137q-4 24 -4 54z" />
    <glyph glyph-name="w" unicode="w" 
d="M50 398v132h120v-132q0 -84 4 -258q25 81 37 130q10 38 10 48h58q0 -5 3 -17q19 -78 44 -161q4 174 4 258v132h120v-132q0 -44 -9 -98q-19 -117 -75 -300h-58l-58 197l-58 -197h-58q-44 147 -63 238q-12 56 -19 114q-2 15 -2 46z" />
    <glyph glyph-name="x" unicode="x" 
d="M50 0v5q0 14 4 27q18 58 61 128l66 105l-66 105q-43 70 -61 128q-4 13 -4 27v5h120v-5q0 -13 12 -39q7 -15 14 -26l11 -16t10 -16l33 -53l33 53q3 6 10 16l11 16q13 21 23 48q3 9 3 17v5h120v-5q0 -14 -4 -27q-18 -58 -61 -128l-66 -105l66 -105q43 -70 61 -128
q4 -13 4 -27v-5h-120v5q0 13 -12 39q-7 15 -14 26l-11 16t-10 16l-33 53l-33 -53q-3 -6 -10 -16l-11 -16q-13 -21 -23 -48q-3 -9 -3 -17v-5h-120z" />
    <glyph glyph-name="y" unicode="y" 
d="M50 493v37h120v-37q0 -19 14 -72q8 -31 40 -129l31 -91l27 91q34 116 45 172q3 18 3 29v37h120v-37q0 -14 -13 -83q-10 -50 -40 -149l-88 -300q-14 -51 -24 -100q-3 -18 -3 -29v-37h-120v37q0 14 13 83q5 23 22 87l-86 256q-39 113 -57 201q-4 20 -4 34z" />
    <glyph glyph-name="z" unicode="z" 
d="M50 0v108l270 314h-270v108h400v-108l-270 -314h270v-108h-400z" />
    <glyph glyph-name="braceleft" unicode="{" 
d="M90 277v108q70 0 93 62q7 21 7 44v193q0 41 15 67q53 93 205 93v-108q-68 0 -93 -31q-7 -8 -7 -21v-193q0 -53 -15 -89q-18 -41 -49 -71q49 -44 61 -114q3 -17 3 -46v-192q0 -14 7 -22q25 -30 93 -30v-108q-153 0 -205 93q-15 26 -15 67v192q0 75 -58 99q-16 7 -42 7z
" />
    <glyph glyph-name="bar" unicode="|" 
d="M190 -181v1025h120v-1025h-120z" />
    <glyph glyph-name="braceright" unicode="}" 
d="M90 -73q68 0 93 30q7 8 7 22v192q0 54 15 90q17 40 49 70q-49 44 -61 115q-3 16 -3 45v193q0 13 -7 21q-25 31 -93 31v108q153 0 205 -93q15 -26 15 -67v-193q0 -74 58 -98q19 -8 42 -8v-108q-70 0 -93 -61q-7 -21 -7 -45v-192q0 -41 -15 -67q-53 -93 -205 -93v108z" />
    <glyph glyph-name="asciitilde" unicode="~" 
d="M60 623q42 90 81 120q26 20 53 20q19 0 36 -8.5t26 -18t21 -25.5l15 -20q13 -15 14 -16q20 17 54 88l80 -38q-42 -90 -81 -120q-26 -20 -53 -20q-19 0 -36 8.5t-26 18t-21 25.5l-15 20q-10 12 -14 15q-21 -18 -54 -87z" />
    <glyph glyph-name="uni00A0" unicode="&#xa0;" 
 />
    <glyph glyph-name="exclamdown" unicode="&#xa1;" 
d="M190 -205v469h120v-469h-120zM162 450q0 41 23.5 64.5t64.5 23.5t64.5 -23.5t23.5 -64.5t-23.5 -64.5t-64.5 -23.5t-64.5 23.5t-23.5 64.5z" />
    <glyph glyph-name="cent" unicode="&#xa2;" 
d="M42 220v90q0 51 10 86q11 37 36.5 68.5t57.5 49.5q19 11 44 17v101h120v-101q55 -14 92.5 -56t48.5 -100l-118 -19q-5 32 -26.5 53t-56.5 21q-42 0 -66 -35q-22 -32 -22 -85v-90q0 -53 22 -85q24 -35 66 -35q39 0 62 28q17 20 21 46l118 -19q-11 -58 -48.5 -100
t-92.5 -56v-101h-120v101q-57 14 -96 59q-30 35 -42 76q-10 35 -10 86z" />
    <glyph glyph-name="sterling" unicode="&#xa3;" 
d="M50 0v108q68 42 78 134q2 24 2 54v40h-60v108h60v81q0 53 7 81q18 77 70 114q32 23 77 23q69 0 110 -55q28 -37 37 -85l-118 -20q-3 52 -29 52q-9 0 -17 -12q-3 -5 -8 -20q-9 -27 -9 -78v-81h80v-108h-80v-40q0 -68 -7.5 -109t-29.5 -79h237v-108h-400z" />
    <glyph glyph-name="currency" unicode="&#xa4;" 
d="M162 331q0 -69 51 -91q15 -7 37 -7q63 0 82 57q6 18 6 41q0 70 -51 92q-15 7 -37 7q-63 0 -82 -58q-6 -18 -6 -41zM18 163l68 67q-24 43 -24 101t24 101l-68 68l64 63l67 -67q41 23 101 23t101 -23l67 67l64 -63l-68 -68q24 -43 24 -101t-24 -101l68 -67l-64 -63l-67 67
q-43 -24 -101 -24t-101 24l-67 -67z" />
    <glyph glyph-name="yen" unicode="&#xa5;" 
d="M50 144v78h400v-78h-400zM50 292v78h400v-78h-400zM50 691v44h120v-44q0 -69 28 -150q12 -32 22 -52l30 -61l30 61q37 75 47 151q3 24 3 51v44h120v-44q0 -88 -35 -186q-9 -24 -27 -63l-78 -159v-283h-120v283l-78 159q-45 92 -58 187q-4 25 -4 62z" />
    <glyph glyph-name="brokenbar" unicode="&#xa6;" 
d="M190 385v459h120v-459h-120zM190 -181v458h120v-458h-120z" />
    <glyph glyph-name="section" unicode="&#xa7;" 
d="M170 331q0 -35 28 -63q24 -22 63 -36q45 20 62 64q7 17 7 36q0 35 -28 63q-22 20 -63 35q-45 -20 -62 -64q-7 -17 -7 -35zM49 -26l118 18q5 -29 26 -47t54 -18q61 0 80 54q17 51 -26 100q-22 25 -59 45q-13 7 -37.5 18.5t-29.5 14.5q-80 41 -108 99q-17 36 -17 72v1
q0 90 73 155q-69 55 -73 148q-4 88 51 149t152 61q94 0 149 -57q40 -40 49 -98l-118 -18q-5 29 -26 47t-54 18q-61 0 -80 -54q-17 -51 26 -100q24 -27 59 -46q13 -7 37.5 -18.5t29.5 -14.5q80 -41 108 -99q17 -36 17 -72v-1q0 -90 -73 -155q69 -55 73 -147q4 -88 -51 -149
t-152 -61q-94 0 -149 57q-40 40 -49 98z" />
    <glyph glyph-name="dieresis" unicode="&#xa8;" 
d="M277 685q0 34 19.5 53.5t53.5 19.5t53.5 -19.5t19.5 -53.5t-19.5 -53.5t-53.5 -19.5t-53.5 19.5t-19.5 53.5zM77 685q0 34 19.5 53.5t53.5 19.5t53.5 -19.5t19.5 -53.5t-19.5 -53.5t-53.5 -19.5t-53.5 19.5t-19.5 53.5z" />
    <glyph glyph-name="copyright" unicode="&#xa9;" 
d="M76 192q0 -44 12 -73q41 -102 162 -102t162 102q12 29 12 73v278q0 44 -12 73q-42 103 -162 103t-162 -103q-12 -29 -12 -73v-278zM18 192v278q0 57 16 95q54 133 216 133t216 -133q16 -38 16 -95v-278q0 -57 -16 -95q-54 -133 -216 -133t-216 133q-16 38 -16 95z
M126 245v173q0 53 32 85q35 35 94 35q72 0 107 -52q10 -15 15 -38l-72 -13q-8 36 -50 36q-25 0 -38.5 -14t-13.5 -39v-173q0 -54 52 -54q42 0 50 36l72 -13q-7 -32 -29 -54t-53 -30q-20 -5 -40 -5q-59 0 -94 35q-32 32 -32 85z" />
    <glyph glyph-name="ordfeminine" unicode="&#xaa;" 
d="M181 474q1 -31 60 -31h2q48 0 65 35q5 10 5 25v12h-47q-39 0 -62 -11q-23 -12 -23 -30zM92 651q41 90 152 90q76 0 123 -45q41 -41 41 -108v-224h-95v35q-33 -41 -100 -41h-1q-88 0 -116 69q-22 53 3 100q24 45 92 64q28 8 75 8h47q-1 26 -20.5 41.5t-48.5 15.5
q-49 0 -66 -40zM110 220v76h280v-76h-280z" />
    <glyph glyph-name="guillemotleft" unicode="&#xab;" 
d="M20 286v90q113 48 178 227l84 -31q-57 -157 -180 -241q123 -84 180 -241l-84 -30q-64 177 -178 226zM220 286v90q113 48 178 227l84 -31q-57 -157 -180 -241q123 -84 180 -241l-84 -30q-64 177 -178 226z" />
    <glyph glyph-name="logicalnot" unicode="&#xac;" 
d="M50 282v98h400v-269h-109v171h-291z" />
    <glyph glyph-name="uni00AD" unicode="&#xad;" 
d="M50 277v108h400v-108h-400z" />
    <glyph glyph-name="registered" unicode="&#xae;" 
d="M76 192q0 -44 12 -73q41 -102 162 -102t162 102q12 29 12 73v278q0 44 -12 73q-42 103 -162 103t-162 -103q-12 -29 -12 -73v-278zM18 192v278q0 57 16 95q54 133 216 133t216 -133q16 -38 16 -95v-278q0 -57 -16 -95q-54 -133 -216 -133t-216 133q-16 38 -16 95z
M200 341h58q46 0 46 63q0 44 -27 59q-8 4 -19 4h-58v-126zM126 129v404h132q56 0 88 -35q32 -34 32 -94q0 -86 -65 -118q45 -58 62 -114q7 -23 7 -43h-74q0 33 -21 71q-18 33 -55 75h-32v-146h-74z" />
    <glyph glyph-name="macron" unicode="&#xaf;" 
d="M100 641v88h300v-88h-300z" />
    <glyph glyph-name="degree" unicode="&#xb0;" 
d="M213 656q0 -17 10 -27.5t27 -10.5t27 10.5t10 27.5q0 37 -37 37t-37 -37zM144 656q0 75 62 98q18 7 44 7q76 0 98 -61q8 -21 8 -44q0 -76 -62 -99q-18 -7 -44 -7q-75 0 -98 62q-8 21 -8 44z" />
    <glyph glyph-name="plusminus" unicode="&#xb1;" 
d="M50 0v98h400v-98h-400zM50 282v98h146v171h108v-171h146v-98h-146v-171h-108v171h-146z" />
    <glyph glyph-name="uni00B2" unicode="&#xb2;" 
d="M92 298v1q0 47 6 74q14 71 77 126l58 48q36 31 53 54q39 51 24 94q-14 38 -62 38q-54 0 -64 -46l-92 17q8 40 36 68.5t68 39.5q24 6 52 6q77 0 120 -45q44 -44 40 -110q-4 -61 -48 -112q-10 -12 -93 -82q-50 -42 -68 -86h209v-85h-316z" />
    <glyph glyph-name="uni00B3" unicode="&#xb3;" 
d="M92 406l92 17q10 -46 64 -46q49 0 62 42q8 24 -1 47.5t-27 36.5q-22 15 -65 15v85q41 0 64 14q18 12 27.5 33t1.5 45q-15 38 -62 38q-54 0 -64 -46l-92 17q8 41 36 69t68 39q24 6 52 6q77 0 120 -43t40 -107t-50 -108q31 -28 43.5 -73.5t-2.5 -97.5q-35 -97 -151 -97
q-93 0 -136 66q-13 20 -20 48z" />
    <glyph glyph-name="acute" unicode="&#xb4;" 
d="M172 611q24 26 48 55l46 56q24 29 48 55l72 -67q-12 -13 -52 -51l-53 -50q-31 -29 -51 -51z" />
    <glyph glyph-name="uni00B5" unicode="&#xb5;" 
d="M50 -205v735h120v-310q0 -53 22 -88q20 -32 58 -32q55 0 74 70q6 21 6 50v310h120v-530h-120v54q-43 -62 -118 -62q-26 0 -50 8q8 -66 8 -102v-103h-120z" />
    <glyph glyph-name="paragraph" unicode="&#xb6;" 
d="M358 0v735h97v-735h-97zM223 648q-81 -4 -81 -118.5t81 -118.5v237zM45 530q0 61 24.5 108t66.5 72q38 23 87 25h97v-735h-97v324q-102 3 -151 91q-27 49 -27 115z" />
    <glyph glyph-name="periodcentered" unicode="&#xb7;" 
d="M152 331q0 70 57 91q17 7 41 7q70 0 91 -57q7 -17 7 -41q0 -70 -57 -91q-17 -7 -41 -7q-70 0 -91 57q-7 17 -7 41z" />
    <glyph glyph-name="cedilla" unicode="&#xb8;" 
d="M150 -134h100q19 0 19 17t-19 17h-44v100h88v-27q64 -21 64 -89.5t-63 -90.5q-21 -7 -45 -7h-100v80z" />
    <glyph glyph-name="uni00B9" unicode="&#xb9;" 
d="M108 731l116 81h94v-514h-94v411l-67 -47z" />
    <glyph glyph-name="ordmasculine" unicode="&#xba;" 
d="M181 518q0 -54 40 -70q13 -5 29 -5q33 0 51 20.5t18 54.5v63q0 54 -40 70q-13 5 -29 5q-33 0 -51 -20.5t-18 -54.5v-63zM87 518v63q0 40 11 67q38 93 152 93t152 -93q11 -27 11 -67v-63q0 -40 -11 -67q-38 -93 -152 -93t-152 93q-11 27 -11 67zM110 220v76h280v-76h-280z
" />
    <glyph glyph-name="guillemotright" unicode="&#xbb;" 
d="M218 90q57 157 180 241q-123 84 -180 241l84 31q65 -179 178 -227v-90q-114 -49 -178 -226zM18 90q57 157 180 241q-123 84 -180 241l84 31q65 -179 178 -227v-90q-114 -49 -178 -226z" />
    <glyph glyph-name="onequarter" unicode="&#xbc;" 
d="M50 292v78h400v-78h-400zM204 -17h53v112zM126 -89v72l113 242h98v-242h37v-72h-37v-90h-80v90h-131zM139 777l88 64h79v-404h-79v316l-46 -34z" />
    <glyph glyph-name="onehalf" unicode="&#xbd;" 
d="M50 292v78h400v-78h-400zM126 -179v1q0 70 27 112q16 24 39 45q7 6 21.5 20t21.5 20q26 22 39 42q28 40 18 69q-10 28 -44 28q-38 0 -44 -32l-78 14q14 66 81 84q26 6 41 6q58 0 94 -36q35 -37 32 -88q-3 -45 -38 -88q-12 -14 -71 -66q-36 -31 -47 -59h156v-72h-248z
M139 777l88 64h79v-404h-79v316l-46 -34z" />
    <glyph glyph-name="threequarters" unicode="&#xbe;" 
d="M50 292v78h400v-78h-400zM126 522l78 15q7 -33 44 -33q22 0 34.5 13t11.5 35q-2 44 -48 53q-12 2 -25 2v72q49 0 66 28q8 14 7 29t-11 25q-13 13 -35 13q-37 0 -44 -32l-78 14q7 32 29 54.5t53 30.5q20 5 40 5q61 0 94 -35q33 -33 32 -83t-38 -85q24 -23 33.5 -58.5
t-2.5 -76.5q-26 -75 -119 -75q-72 0 -107 51q-10 15 -15 38zM204 -17h53v112zM126 -89v72l113 242h98v-242h37v-72h-37v-90h-80v90h-131z" />
    <glyph glyph-name="questiondown" unicode="&#xbf;" 
d="M162 450q0 41 23.5 64.5t64.5 23.5t64.5 -23.5t23.5 -64.5t-23.5 -64.5t-64.5 -23.5t-64.5 23.5t-23.5 64.5zM50 -26q3 61 38 107q13 18 39 48.5l34 40.5q16 20 23 44q6 18 6 50h120q0 -37 -6 -58q-8 -29 -27 -52q-12 -14 -40 -42q-46 -46 -60 -94q-14 -50 -2 -80
q17 -43 76 -43q50 0 72 37q6 10 8 26l120 -8q-6 -74 -66 -122q-52 -41 -134 -41q-95 0 -151 54q-54 54 -50 133z" />
    <glyph glyph-name="Agrave" unicode="&#xc0;" 
d="M114 915l72 67q24 -26 48 -55l46 -56q24 -29 48 -55l-58 -53q-20 22 -51 51l-53 50q-40 38 -52 51zM188 265h124q-21 139 -62 313q-39 -165 -62 -313zM50 0v74q0 64 16 162q23 147 80 349l44 150h120q66 -216 105 -397q20 -93 31 -189q4 -33 4 -75v-74h-120v74
q0 47 -4 83h-152q-4 -54 -4 -83v-74h-120z" />
    <glyph glyph-name="Aacute" unicode="&#xc1;" 
d="M172 816q24 26 48 55l46 56q24 29 48 55l72 -67q-12 -13 -52 -51l-53 -50q-31 -29 -51 -51zM188 265h124q-21 139 -62 313q-39 -165 -62 -313zM50 0v74q0 64 16 162q23 147 80 349l44 150h120q66 -216 105 -397q20 -93 31 -189q4 -33 4 -75v-74h-120v74q0 47 -4 83h-152
q-4 -54 -4 -83v-74h-120z" />
    <glyph glyph-name="Acircumflex" unicode="&#xc2;" 
d="M64 831l23 25.5l22 24.5l41 44l22.5 25l23.5 26h108l23.5 -26l22.5 -25l41 -44l22 -24.5l23 -25.5l-74 -63q-23 26 -55 67l-57 74l-57 -74q-32 -41 -55 -67zM188 265h124q-21 139 -62 313q-39 -165 -62 -313zM50 0v74q0 64 16 162q23 147 80 349l44 150h120
q66 -216 105 -397q20 -93 31 -189q4 -33 4 -75v-74h-120v74q0 47 -4 83h-152q-4 -54 -4 -83v-74h-120z" />
    <glyph glyph-name="Atilde" unicode="&#xc3;" 
d="M60 828q42 90 81 120q26 20 53 20q19 0 36 -8.5t26 -18t21 -25.5l15 -20q13 -15 14 -16q20 17 54 88l80 -38q-42 -90 -81 -120q-26 -20 -53 -20q-19 0 -36 8.5t-26 18t-21 25.5l-15 20q-10 12 -14 15q-21 -18 -54 -87zM188 265h124q-21 139 -62 313q-39 -165 -62 -313z
M50 0v74q0 64 16 162q23 147 80 349l44 150h120q66 -216 105 -397q20 -93 31 -189q4 -33 4 -75v-74h-120v74q0 47 -4 83h-152q-4 -54 -4 -83v-74h-120z" />
    <glyph glyph-name="Adieresis" unicode="&#xc4;" 
d="M277 890q0 34 19.5 53.5t53.5 19.5t53.5 -19.5t19.5 -53.5t-19.5 -53.5t-53.5 -19.5t-53.5 19.5t-19.5 53.5zM77 890q0 34 19.5 53.5t53.5 19.5t53.5 -19.5t19.5 -53.5t-19.5 -53.5t-53.5 -19.5t-53.5 19.5t-19.5 53.5zM188 265h124q-21 139 -62 313q-39 -165 -62 -313z
M50 0v74q0 64 16 162q23 147 80 349l44 150h120q66 -216 105 -397q20 -93 31 -189q4 -33 4 -75v-74h-120v74q0 47 -4 83h-152q-4 -54 -4 -83v-74h-120z" />
    <glyph glyph-name="Aring" unicode="&#xc5;" 
d="M213 861q0 -17 10 -27.5t27 -10.5t27 10.5t10 27.5q0 37 -37 37t-37 -37zM144 861q0 75 62 98q18 7 44 7q76 0 98 -61q8 -21 8 -44q0 -76 -62 -99q-18 -7 -44 -7q-75 0 -98 62q-8 21 -8 44zM188 265h124q-21 139 -62 313q-39 -165 -62 -313zM50 0v74q0 64 16 162
q23 147 80 349l44 150h120q66 -216 105 -397q20 -93 31 -189q4 -33 4 -75v-74h-120v74q0 47 -4 83h-152q-4 -54 -4 -83v-74h-120z" />
    <glyph glyph-name="AE" unicode="&#xc6;" 
d="M170 265h56v325q-38 -189 -56 -325zM50 0v74q0 62 14 162q21 147 70 349q12 50 38 150h278v-108h-119v-176h95v-108h-95v-235h119v-108h-224v171h-67q-5 -52 -5 -97v-74h-104z" />
    <glyph glyph-name="Ccedilla" unicode="&#xc7;" 
d="M150 -134h100q19 0 19 17t-19 17h-44v100h88v-27q64 -21 64 -89.5t-63 -90.5q-21 -7 -45 -7h-100v80zM50 210v315q0 50 10 83q11 35 35.5 65t55.5 47q43 23 102 23q93 0 148 -60q41 -44 50 -103l-119 -16q-4 31 -25 51t-54 20q-40 0 -62 -32q-21 -29 -21 -78v-315
q0 -49 21 -78q22 -32 62 -32q38 0 59 26q17 20 20 45l119 -16q-7 -46 -33.5 -83.5t-65.5 -57.5q-44 -22 -99 -22q-95 0 -152 64q-30 34 -41 71q-10 33 -10 83z" />
    <glyph glyph-name="Egrave" unicode="&#xc8;" 
d="M114 915l72 67q24 -26 48 -55l46 -56q24 -29 48 -55l-58 -53q-20 22 -51 51l-53 50q-40 38 -52 51zM75 0v735h375v-108h-255v-176h201v-108h-201v-235h255v-108h-375z" />
    <glyph glyph-name="Eacute" unicode="&#xc9;" 
d="M172 816q24 26 48 55l46 56q24 29 48 55l72 -67q-12 -13 -52 -51l-53 -50q-31 -29 -51 -51zM75 0v735h375v-108h-255v-176h201v-108h-201v-235h255v-108h-375z" />
    <glyph glyph-name="Ecircumflex" unicode="&#xca;" 
d="M64 831l23 25.5l22 24.5l41 44l22.5 25l23.5 26h108l23.5 -26l22.5 -25l41 -44l22 -24.5l23 -25.5l-74 -63q-23 26 -55 67l-57 74l-57 -74q-32 -41 -55 -67zM75 0v735h375v-108h-255v-176h201v-108h-201v-235h255v-108h-375z" />
    <glyph glyph-name="Edieresis" unicode="&#xcb;" 
d="M277 890q0 34 19.5 53.5t53.5 19.5t53.5 -19.5t19.5 -53.5t-19.5 -53.5t-53.5 -19.5t-53.5 19.5t-19.5 53.5zM77 890q0 34 19.5 53.5t53.5 19.5t53.5 -19.5t19.5 -53.5t-19.5 -53.5t-53.5 -19.5t-53.5 19.5t-19.5 53.5zM75 0v735h375v-108h-255v-176h201v-108h-201v-235
h255v-108h-375z" />
    <glyph glyph-name="Igrave" unicode="&#xcc;" 
d="M114 915l72 67q24 -26 48 -55l46 -56q24 -29 48 -55l-58 -53q-20 22 -51 51l-53 50q-40 38 -52 51zM120 0v108h70v519h-70v108h260v-108h-70v-519h70v-108h-260z" />
    <glyph glyph-name="Iacute" unicode="&#xcd;" 
d="M172 816q24 26 48 55l46 56q24 29 48 55l72 -67q-12 -13 -52 -51l-53 -50q-31 -29 -51 -51zM120 0v108h70v519h-70v108h260v-108h-70v-519h70v-108h-260z" />
    <glyph glyph-name="Icircumflex" unicode="&#xce;" 
d="M64 831l23 25.5l22 24.5l41 44l22.5 25l23.5 26h108l23.5 -26l22.5 -25l41 -44l22 -24.5l23 -25.5l-74 -63q-23 26 -55 67l-57 74l-57 -74q-32 -41 -55 -67zM120 0v108h70v519h-70v108h260v-108h-70v-519h70v-108h-260z" />
    <glyph glyph-name="Idieresis" unicode="&#xcf;" 
d="M277 890q0 34 19.5 53.5t53.5 19.5t53.5 -19.5t19.5 -53.5t-19.5 -53.5t-53.5 -19.5t-53.5 19.5t-19.5 53.5zM77 890q0 34 19.5 53.5t53.5 19.5t53.5 -19.5t19.5 -53.5t-19.5 -53.5t-53.5 -19.5t-53.5 19.5t-19.5 53.5zM120 0v108h70v519h-70v108h260v-108h-70v-519h70
v-108h-260z" />
    <glyph glyph-name="Eth" unicode="&#xd0;" 
d="M170 108h49q27 0 46 12q65 42 65 164v168q0 121 -65 163q-19 12 -46 12h-49v-213h89v-78h-89v-228zM15 336v78h35v321h169q55 0 96 -20q86 -42 119 -145q16 -49 16 -118v-168q0 -70 -16 -119q-33 -103 -119 -145q-41 -20 -96 -20h-169v336h-35z" />
    <glyph glyph-name="Ntilde" unicode="&#xd1;" 
d="M60 828q42 90 81 120q26 20 53 20q19 0 36 -8.5t26 -18t21 -25.5l15 -20q13 -15 14 -16q20 17 54 88l80 -38q-42 -90 -81 -120q-26 -20 -53 -20q-19 0 -36 8.5t-26 18t-21 25.5l-15 20q-10 12 -14 15q-21 -18 -54 -87zM50 0v735h126l175 -547q-1 9 -5 32q-16 113 -16 221
v294h120v-735h-126l-175 547q1 -11 5 -33q16 -113 16 -220v-294h-120z" />
    <glyph glyph-name="Ograve" unicode="&#xd2;" 
d="M114 915l72 67q24 -26 48 -55l46 -56q24 -29 48 -55l-58 -53q-20 22 -51 51l-53 50q-40 38 -52 51zM162 210q0 -50 24 -80q23 -30 64 -30q62 0 82 64q6 18 6 46v315q0 50 -24 80q-23 30 -64 30q-62 0 -82 -64q-6 -18 -6 -46v-315zM42 210v315q0 53 14 91q48 127 194 127
t194 -127q14 -38 14 -91v-315q0 -53 -14 -91q-48 -127 -194 -127t-194 127q-14 38 -14 91z" />
    <glyph glyph-name="Oacute" unicode="&#xd3;" 
d="M172 816q24 26 48 55l46 56q24 29 48 55l72 -67q-12 -13 -52 -51l-53 -50q-31 -29 -51 -51zM162 210q0 -50 24 -80q23 -30 64 -30q62 0 82 64q6 18 6 46v315q0 50 -24 80q-23 30 -64 30q-62 0 -82 -64q-6 -18 -6 -46v-315zM42 210v315q0 53 14 91q48 127 194 127
t194 -127q14 -38 14 -91v-315q0 -53 -14 -91q-48 -127 -194 -127t-194 127q-14 38 -14 91z" />
    <glyph glyph-name="Ocircumflex" unicode="&#xd4;" 
d="M64 831l23 25.5l22 24.5l41 44l22.5 25l23.5 26h108l23.5 -26l22.5 -25l41 -44l22 -24.5l23 -25.5l-74 -63q-23 26 -55 67l-57 74l-57 -74q-32 -41 -55 -67zM162 210q0 -50 24 -80q23 -30 64 -30q62 0 82 64q6 18 6 46v315q0 50 -24 80q-23 30 -64 30q-62 0 -82 -64
q-6 -18 -6 -46v-315zM42 210v315q0 53 14 91q48 127 194 127t194 -127q14 -38 14 -91v-315q0 -53 -14 -91q-48 -127 -194 -127t-194 127q-14 38 -14 91z" />
    <glyph glyph-name="Otilde" unicode="&#xd5;" 
d="M60 828q42 90 81 120q26 20 53 20q19 0 36 -8.5t26 -18t21 -25.5l15 -20q13 -15 14 -16q20 17 54 88l80 -38q-42 -90 -81 -120q-26 -20 -53 -20q-19 0 -36 8.5t-26 18t-21 25.5l-15 20q-10 12 -14 15q-21 -18 -54 -87zM162 210q0 -50 24 -80q23 -30 64 -30q62 0 82 64
q6 18 6 46v315q0 50 -24 80q-23 30 -64 30q-62 0 -82 -64q-6 -18 -6 -46v-315zM42 210v315q0 53 14 91q48 127 194 127t194 -127q14 -38 14 -91v-315q0 -53 -14 -91q-48 -127 -194 -127t-194 127q-14 38 -14 91z" />
    <glyph glyph-name="Odieresis" unicode="&#xd6;" 
d="M277 890q0 34 19.5 53.5t53.5 19.5t53.5 -19.5t19.5 -53.5t-19.5 -53.5t-53.5 -19.5t-53.5 19.5t-19.5 53.5zM77 890q0 34 19.5 53.5t53.5 19.5t53.5 -19.5t19.5 -53.5t-19.5 -53.5t-53.5 -19.5t-53.5 19.5t-19.5 53.5zM162 210q0 -50 24 -80q23 -30 64 -30q62 0 82 64
q6 18 6 46v315q0 50 -24 80q-23 30 -64 30q-62 0 -82 -64q-6 -18 -6 -46v-315zM42 210v315q0 53 14 91q48 127 194 127t194 -127q14 -38 14 -91v-315q0 -53 -14 -91q-48 -127 -194 -127t-194 127q-14 38 -14 91z" />
    <glyph glyph-name="multiply" unicode="&#xd7;" 
d="M15 166l166 165l-166 166l70 69l165 -166l165 166l70 -69l-166 -166l166 -165l-70 -69l-165 165l-165 -165z" />
    <glyph glyph-name="Oslash" unicode="&#xd8;" 
d="M194 121q21 -21 56 -21q62 0 82 64q6 18 6 46v257zM162 268l144 346q-21 21 -56 21q-62 0 -82 -64q-6 -18 -6 -46v-257zM41 -22l39 95q-38 55 -38 137v315q0 53 14 91q48 127 194 127q57 0 101 -22l28 66l80 -30l-39 -95q38 -55 38 -137v-315q0 -53 -14 -91
q-48 -127 -194 -127q-57 0 -101 22l-28 -66z" />
    <glyph glyph-name="Ugrave" unicode="&#xd9;" 
d="M114 915l72 67q24 -26 48 -55l46 -56q24 -29 48 -55l-58 -53q-20 22 -51 51l-53 50q-40 38 -52 51zM50 210v525h120v-525q0 -78 47 -102q16 -8 33 -8q56 0 74 64q6 20 6 46v525h120v-525q0 -53 -14 -91q-47 -127 -186 -127t-186 127q-14 38 -14 91z" />
    <glyph glyph-name="Uacute" unicode="&#xda;" 
d="M172 816q24 26 48 55l46 56q24 29 48 55l72 -67q-12 -13 -52 -51l-53 -50q-31 -29 -51 -51zM50 210v525h120v-525q0 -78 47 -102q16 -8 33 -8q56 0 74 64q6 20 6 46v525h120v-525q0 -53 -14 -91q-47 -127 -186 -127t-186 127q-14 38 -14 91z" />
    <glyph glyph-name="Ucircumflex" unicode="&#xdb;" 
d="M64 831l23 25.5l22 24.5l41 44l22.5 25l23.5 26h108l23.5 -26l22.5 -25l41 -44l22 -24.5l23 -25.5l-74 -63q-23 26 -55 67l-57 74l-57 -74q-32 -41 -55 -67zM50 210v525h120v-525q0 -78 47 -102q16 -8 33 -8q56 0 74 64q6 20 6 46v525h120v-525q0 -53 -14 -91
q-47 -127 -186 -127t-186 127q-14 38 -14 91z" />
    <glyph glyph-name="Udieresis" unicode="&#xdc;" 
d="M277 890q0 34 19.5 53.5t53.5 19.5t53.5 -19.5t19.5 -53.5t-19.5 -53.5t-53.5 -19.5t-53.5 19.5t-19.5 53.5zM77 890q0 34 19.5 53.5t53.5 19.5t53.5 -19.5t19.5 -53.5t-19.5 -53.5t-53.5 -19.5t-53.5 19.5t-19.5 53.5zM50 210v525h120v-525q0 -78 47 -102q16 -8 33 -8
q56 0 74 64q6 20 6 46v525h120v-525q0 -53 -14 -91q-47 -127 -186 -127t-186 127q-14 38 -14 91z" />
    <glyph glyph-name="Yacute" unicode="&#xdd;" 
d="M172 816q24 26 48 55l46 56q24 29 48 55l72 -67q-12 -13 -52 -51l-53 -50q-31 -29 -51 -51zM50 691v44h120v-44q0 -69 28 -150q12 -32 22 -52l30 -61l30 61q37 75 47 151q3 24 3 51v44h120v-44q0 -88 -35 -186q-9 -24 -27 -63l-78 -159v-283h-120v283l-78 159
q-45 92 -58 187q-4 25 -4 62z" />
    <glyph glyph-name="Thorn" unicode="&#xde;" 
d="M182 277h70q45 0 65 23q21 22 21 68q0 71 -51 86q-11 4 -35 4h-70v-181zM62 0v735h120v-169h70q51 0 81 -8q83 -23 112 -110q13 -41 13 -80q0 -74 -33.5 -124t-91.5 -67q-30 -8 -81 -8h-70v-169h-120z" />
    <glyph glyph-name="germandbls" unicode="&#xdf;" 
d="M50 0v530q0 49 16 86q33 76 114 105q38 14 84 14h10v-108h-5q-68 0 -92 -57q-7 -15 -7 -40v-16h289l-101 -229q56 -20 84 -68q21 -36 20 -85q-5 -141 -136 -253q-59 -52 -136 -84l-47 99q53 22 97.5 59.5t70.5 82.5q28 49 31 100q1 35 -35 48q-21 7 -56 7h-67l95 215
h-109v-406h-120z" />
    <glyph glyph-name="agrave" unicode="&#xe0;" 
d="M162 155q0 -28 20.5 -41.5t52.5 -13.5h1q66 0 88 57q6 16 6 41v24h-60q-49 0 -79 -18q-29 -17 -29 -49zM42.5 160.5q1.5 39.5 15.5 68.5q30 62 117 89q39 12 95 12h60q-1 40 -22 68q-24 32 -66 32q-62 0 -79 -55l-114 35q25 74 97 108q43 20 96 20q97 0 156 -64
q30 -31 42 -71q10 -29 10 -83v-320h-120v52q-48 -60 -132 -60q-110 0 -145 96q-12 33 -10.5 72.5zM114 710l72 67q24 -26 48 -55l46 -56q24 -29 48 -55l-58 -53q-20 22 -51 51l-53 50q-40 38 -52 51z" />
    <glyph glyph-name="aacute" unicode="&#xe1;" 
d="M172 611q24 26 48 55l46 56q24 29 48 55l72 -67q-12 -13 -52 -51l-53 -50q-31 -29 -51 -51zM162 155q0 -28 20.5 -41.5t52.5 -13.5h1q66 0 88 57q6 16 6 41v24h-60q-49 0 -79 -18q-29 -17 -29 -49zM42.5 160.5q1.5 39.5 15.5 68.5q30 62 117 89q39 12 95 12h60
q-1 40 -22 68q-24 32 -66 32q-62 0 -79 -55l-114 35q25 74 97 108q43 20 96 20q97 0 156 -64q30 -31 42 -71q10 -29 10 -83v-320h-120v52q-48 -60 -132 -60q-110 0 -145 96q-12 33 -10.5 72.5z" />
    <glyph glyph-name="acircumflex" unicode="&#xe2;" 
d="M162 155q0 -28 20.5 -41.5t52.5 -13.5h1q66 0 88 57q6 16 6 41v24h-60q-49 0 -79 -18q-29 -17 -29 -49zM42.5 160.5q1.5 39.5 15.5 68.5q30 62 117 89q39 12 95 12h60q-1 40 -22 68q-24 32 -66 32q-62 0 -79 -55l-114 35q25 74 97 108q43 20 96 20q97 0 156 -64
q30 -31 42 -71q10 -29 10 -83v-320h-120v52q-48 -60 -132 -60q-110 0 -145 96q-12 33 -10.5 72.5zM64 626l23 25.5l22 24.5l41 44l22.5 25l23.5 26h108l23.5 -26l22.5 -25l41 -44l22 -24.5l23 -25.5l-74 -63q-23 26 -55 67l-57 74l-57 -74q-32 -41 -55 -67z" />
    <glyph glyph-name="atilde" unicode="&#xe3;" 
d="M60 623q42 90 81 120q26 20 53 20q19 0 36 -8.5t26 -18t21 -25.5l15 -20q13 -15 14 -16q20 17 54 88l80 -38q-42 -90 -81 -120q-26 -20 -53 -20q-19 0 -36 8.5t-26 18t-21 25.5l-15 20q-10 12 -14 15q-21 -18 -54 -87zM162 155q0 -28 20.5 -41.5t52.5 -13.5h1q66 0 88 57
q6 16 6 41v24h-60q-49 0 -79 -18q-29 -17 -29 -49zM42.5 160.5q1.5 39.5 15.5 68.5q30 62 117 89q39 12 95 12h60q-1 40 -22 68q-24 32 -66 32q-62 0 -79 -55l-114 35q25 74 97 108q43 20 96 20q97 0 156 -64q30 -31 42 -71q10 -29 10 -83v-320h-120v52q-48 -60 -132 -60
q-110 0 -145 96q-12 33 -10.5 72.5z" />
    <glyph glyph-name="adieresis" unicode="&#xe4;" 
d="M277 685q0 34 19.5 53.5t53.5 19.5t53.5 -19.5t19.5 -53.5t-19.5 -53.5t-53.5 -19.5t-53.5 19.5t-19.5 53.5zM77 685q0 34 19.5 53.5t53.5 19.5t53.5 -19.5t19.5 -53.5t-19.5 -53.5t-53.5 -19.5t-53.5 19.5t-19.5 53.5zM162 155q0 -28 20.5 -41.5t52.5 -13.5h1
q66 0 88 57q6 16 6 41v24h-60q-49 0 -79 -18q-29 -17 -29 -49zM42.5 160.5q1.5 39.5 15.5 68.5q30 62 117 89q39 12 95 12h60q-1 40 -22 68q-24 32 -66 32q-62 0 -79 -55l-114 35q25 74 97 108q43 20 96 20q97 0 156 -64q30 -31 42 -71q10 -29 10 -83v-320h-120v52
q-48 -60 -132 -60q-110 0 -145 96q-12 33 -10.5 72.5z" />
    <glyph glyph-name="aring" unicode="&#xe5;" 
d="M213 656q0 -17 10 -27.5t27 -10.5t27 10.5t10 27.5q0 37 -37 37t-37 -37zM144 656q0 75 62 98q18 7 44 7q76 0 98 -61q8 -21 8 -44q0 -76 -62 -99q-18 -7 -44 -7q-75 0 -98 62q-8 21 -8 44zM162 155q0 -28 20.5 -41.5t52.5 -13.5h1q66 0 88 57q6 16 6 41v24h-60
q-49 0 -79 -18q-29 -17 -29 -49zM42.5 160.5q1.5 39.5 15.5 68.5q30 62 117 89q39 12 95 12h60q-1 40 -22 68q-24 32 -66 32q-62 0 -79 -55l-114 35q25 74 97 108q43 20 96 20q97 0 156 -64q30 -31 42 -71q10 -29 10 -83v-320h-120v52q-48 -60 -132 -60q-110 0 -145 96
q-12 33 -10.5 72.5z" />
    <glyph glyph-name="ae" unicode="&#xe6;" 
d="M302 320h60v78q0 46 -30 46t-30 -46v-78zM138 148q0 -61 30 -62h1q29 0 29 46v100q-59 -17 -60 -84zM34 148q0 127 112 169q26 11 52 12v69q0 46 -27 46q-26 0 -26 -33l-104 -1q0 39 18 68.5t47 44.5q27 15 65 15q47 0 79 -24q32 24 82 24q93 0 125 -82q9 -24 9 -58v-186
h-164v-80q0 -30 15 -41q7 -5 16 -5q14 0 22 9.5t8 24.5h104q0 -39 -18.5 -68.5t-48.5 -44.5q-28 -15 -67 -15q-49 0 -83 24q-32 -24 -81 -24h-1q-62 0 -98 42t-36 114z" />
    <glyph glyph-name="ccedilla" unicode="&#xe7;" 
d="M150 -134h100q19 0 19 17t-19 17h-44v100h88v-27q64 -21 64 -89.5t-63 -90.5q-21 -7 -45 -7h-100v80zM42 220v90q0 51 10 86q11 37 36.5 68.5t57.5 49.5q44 24 104 24q93 0 151 -61q39 -42 50 -102l-118 -19q-5 32 -26.5 53t-56.5 21q-42 0 -66 -35q-22 -32 -22 -85v-90
q0 -53 22 -85q24 -35 66 -35q39 0 62 28q17 20 21 46l118 -19q-8 -45 -35 -83t-66 -58q-41 -22 -100 -22q-98 0 -156 66q-30 35 -42 76q-10 35 -10 86z" />
    <glyph glyph-name="egrave" unicode="&#xe8;" 
d="M162 320h176q-3 78 -51 102q-15 8 -37 8q-62 0 -82 -70q-5 -18 -6 -40zM42 220v90q0 59 14 95q32 86 107 117q38 16 87 16q145 0 194 -133q14 -39 14 -95v-98h-296q1 -47 24 -77q27 -35 71 -35q64 0 85 57l113 -37q-26 -74 -99 -108q-43 -20 -99 -20q-101 0 -161 66
q-30 33 -44 76q-10 30 -10 86zM114 710l72 67q24 -26 48 -55l46 -56q24 -29 48 -55l-58 -53q-20 22 -51 51l-53 50q-40 38 -52 51z" />
    <glyph glyph-name="eacute" unicode="&#xe9;" 
d="M172 611q24 26 48 55l46 56q24 29 48 55l72 -67q-12 -13 -52 -51l-53 -50q-31 -29 -51 -51zM162 320h176q-3 78 -51 102q-15 8 -37 8q-62 0 -82 -70q-5 -18 -6 -40zM42 220v90q0 59 14 95q32 86 107 117q38 16 87 16q145 0 194 -133q14 -39 14 -95v-98h-296q1 -47 24 -77
q27 -35 71 -35q64 0 85 57l113 -37q-26 -74 -99 -108q-43 -20 -99 -20q-101 0 -161 66q-30 33 -44 76q-10 30 -10 86z" />
    <glyph glyph-name="ecircumflex" unicode="&#xea;" 
d="M162 320h176q-3 78 -51 102q-15 8 -37 8q-62 0 -82 -70q-5 -18 -6 -40zM42 220v90q0 59 14 95q32 86 107 117q38 16 87 16q145 0 194 -133q14 -39 14 -95v-98h-296q1 -47 24 -77q27 -35 71 -35q64 0 85 57l113 -37q-26 -74 -99 -108q-43 -20 -99 -20q-101 0 -161 66
q-30 33 -44 76q-10 30 -10 86zM64 626l23 25.5l22 24.5l41 44l22.5 25l23.5 26h108l23.5 -26l22.5 -25l41 -44l22 -24.5l23 -25.5l-74 -63q-23 26 -55 67l-57 74l-57 -74q-32 -41 -55 -67z" />
    <glyph glyph-name="edieresis" unicode="&#xeb;" 
d="M277 685q0 34 19.5 53.5t53.5 19.5t53.5 -19.5t19.5 -53.5t-19.5 -53.5t-53.5 -19.5t-53.5 19.5t-19.5 53.5zM77 685q0 34 19.5 53.5t53.5 19.5t53.5 -19.5t19.5 -53.5t-19.5 -53.5t-53.5 -19.5t-53.5 19.5t-19.5 53.5zM162 320h176q-3 78 -51 102q-15 8 -37 8
q-62 0 -82 -70q-5 -18 -6 -40zM42 220v90q0 59 14 95q32 86 107 117q38 16 87 16q145 0 194 -133q14 -39 14 -95v-98h-296q1 -47 24 -77q27 -35 71 -35q64 0 85 57l113 -37q-26 -74 -99 -108q-43 -20 -99 -20q-101 0 -161 66q-30 33 -44 76q-10 30 -10 86z" />
    <glyph glyph-name="igrave" unicode="&#xec;" 
d="M75 0v108h122v314h-108v108h228v-422h108v-108h-350zM114 710l72 67q24 -26 48 -55l46 -56q24 -29 48 -55l-58 -53q-20 22 -51 51l-53 50q-40 38 -52 51z" />
    <glyph glyph-name="iacute" unicode="&#xed;" 
d="M75 0v108h122v314h-108v108h228v-422h108v-108h-350zM172 611q24 26 48 55l46 56q24 29 48 55l72 -67q-12 -13 -52 -51l-53 -50q-31 -29 -51 -51z" />
    <glyph glyph-name="icircumflex" unicode="&#xee;" 
d="M75 0v108h122v314h-108v108h228v-422h108v-108h-350zM64 626l23 25.5l22 24.5l41 44l22.5 25l23.5 26h108l23.5 -26l22.5 -25l41 -44l22 -24.5l23 -25.5l-74 -63q-23 26 -55 67l-57 74l-57 -74q-32 -41 -55 -67z" />
    <glyph glyph-name="idieresis" unicode="&#xef;" 
d="M75 0v108h122v314h-108v108h228v-422h108v-108h-350zM277 685q0 34 19.5 53.5t53.5 19.5t53.5 -19.5t19.5 -53.5t-19.5 -53.5t-53.5 -19.5t-53.5 19.5t-19.5 53.5zM77 685q0 34 19.5 53.5t53.5 19.5t53.5 -19.5t19.5 -53.5t-19.5 -53.5t-53.5 -19.5t-53.5 19.5
t-19.5 53.5z" />
    <glyph glyph-name="eth" unicode="&#xf0;" 
d="M162 220q0 -56 24 -88t64 -32q62 0 82 70q6 21 6 50v2q0 53 -24 87q-24 32 -64 32q-62 0 -82 -70q-6 -21 -6 -50v-1zM42 220v1q0 59 14 95q32 86 107 117q38 16 87 16q30 0 56 -6q-13 38 -33 70l-173 -42l-20 77l137 33q-38 33 -85 51l37 103q107 -35 178 -123l73 18
l20 -77l-48 -11q66 -128 66 -319v-3q0 -59 -14 -95q-32 -86 -107 -117q-38 -16 -87 -16q-145 0 -194 133q-14 39 -14 95z" />
    <glyph glyph-name="ntilde" unicode="&#xf1;" 
d="M60 623q42 90 81 120q26 20 53 20q19 0 36 -8.5t26 -18t21 -25.5l15 -20q13 -15 14 -16q20 17 54 88l80 -38q-42 -90 -81 -120q-26 -20 -53 -20q-19 0 -36 8.5t-26 18t-21 25.5l-15 20q-10 12 -14 15q-21 -18 -54 -87zM50 0v530h120v-54q43 62 118 62t118 -62
q44 -62 44 -166v-310h-120v310q0 53 -22 88q-20 32 -58 32q-55 0 -74 -70q-6 -21 -6 -50v-310h-120z" />
    <glyph glyph-name="ograve" unicode="&#xf2;" 
d="M162 220q0 -56 24 -88t64 -32q62 0 82 70q6 21 6 50v90q0 56 -24 88t-64 32q-62 0 -82 -70q-6 -21 -6 -50v-90zM42 220v90q0 59 14 95q32 86 107 117q38 16 87 16q145 0 194 -133q14 -39 14 -95v-90q0 -59 -14 -95q-32 -86 -107 -117q-38 -16 -87 -16q-145 0 -194 133
q-14 39 -14 95zM114 710l72 67q24 -26 48 -55l46 -56q24 -29 48 -55l-58 -53q-20 22 -51 51l-53 50q-40 38 -52 51z" />
    <glyph glyph-name="oacute" unicode="&#xf3;" 
d="M172 611q24 26 48 55l46 56q24 29 48 55l72 -67q-12 -13 -52 -51l-53 -50q-31 -29 -51 -51zM162 220q0 -56 24 -88t64 -32q62 0 82 70q6 21 6 50v90q0 56 -24 88t-64 32q-62 0 -82 -70q-6 -21 -6 -50v-90zM42 220v90q0 59 14 95q32 86 107 117q38 16 87 16
q145 0 194 -133q14 -39 14 -95v-90q0 -59 -14 -95q-32 -86 -107 -117q-38 -16 -87 -16q-145 0 -194 133q-14 39 -14 95z" />
    <glyph glyph-name="ocircumflex" unicode="&#xf4;" 
d="M162 220q0 -56 24 -88t64 -32q62 0 82 70q6 21 6 50v90q0 56 -24 88t-64 32q-62 0 -82 -70q-6 -21 -6 -50v-90zM42 220v90q0 59 14 95q32 86 107 117q38 16 87 16q145 0 194 -133q14 -39 14 -95v-90q0 -59 -14 -95q-32 -86 -107 -117q-38 -16 -87 -16q-145 0 -194 133
q-14 39 -14 95zM64 626l23 25.5l22 24.5l41 44l22.5 25l23.5 26h108l23.5 -26l22.5 -25l41 -44l22 -24.5l23 -25.5l-74 -63q-23 26 -55 67l-57 74l-57 -74q-32 -41 -55 -67z" />
    <glyph glyph-name="otilde" unicode="&#xf5;" 
d="M60 623q42 90 81 120q26 20 53 20q19 0 36 -8.5t26 -18t21 -25.5l15 -20q13 -15 14 -16q20 17 54 88l80 -38q-42 -90 -81 -120q-26 -20 -53 -20q-19 0 -36 8.5t-26 18t-21 25.5l-15 20q-10 12 -14 15q-21 -18 -54 -87zM162 220q0 -56 24 -88t64 -32q62 0 82 70q6 21 6 50
v90q0 56 -24 88t-64 32q-62 0 -82 -70q-6 -21 -6 -50v-90zM42 220v90q0 59 14 95q32 86 107 117q38 16 87 16q145 0 194 -133q14 -39 14 -95v-90q0 -59 -14 -95q-32 -86 -107 -117q-38 -16 -87 -16q-145 0 -194 133q-14 39 -14 95z" />
    <glyph glyph-name="odieresis" unicode="&#xf6;" 
d="M277 685q0 34 19.5 53.5t53.5 19.5t53.5 -19.5t19.5 -53.5t-19.5 -53.5t-53.5 -19.5t-53.5 19.5t-19.5 53.5zM77 685q0 34 19.5 53.5t53.5 19.5t53.5 -19.5t19.5 -53.5t-19.5 -53.5t-53.5 -19.5t-53.5 19.5t-19.5 53.5zM162 220q0 -56 24 -88t64 -32q62 0 82 70
q6 21 6 50v90q0 56 -24 88t-64 32q-62 0 -82 -70q-6 -21 -6 -50v-90zM42 220v90q0 59 14 95q32 86 107 117q38 16 87 16q145 0 194 -133q14 -39 14 -95v-90q0 -59 -14 -95q-32 -86 -107 -117q-38 -16 -87 -16q-145 0 -194 133q-14 39 -14 95z" />
    <glyph glyph-name="divide" unicode="&#xf7;" 
d="M50 282v98h400v-98h-400zM162 531q0 38 23.5 59t64.5 21t64.5 -21t23.5 -59t-23.5 -59t-64.5 -21t-64.5 21t-23.5 59zM162 131q0 38 23.5 59t64.5 21t64.5 -21t23.5 -59t-23.5 -59t-64.5 -21t-64.5 21t-23.5 59z" />
    <glyph glyph-name="oslash" unicode="&#xf8;" 
d="M209 110q16 -10 41 -10q62 0 82 70q6 21 6 50v90q0 14 -1 21zM162 220q0 -14 1 -21l128 221q-16 10 -41 10q-62 0 -82 -70q-6 -21 -6 -50v-90zM42 220v90q0 59 14 95q32 86 107 117q38 16 87 16q55 0 97 -20l34 58l75 -39l-43 -75q33 -45 42 -104q3 -18 3 -48v-90
q0 -59 -14 -95q-32 -86 -107 -117q-38 -16 -87 -16q-55 0 -97 20l-34 -58l-75 39l43 75q-33 45 -42 104q-3 18 -3 48z" />
    <glyph glyph-name="ugrave" unicode="&#xf9;" 
d="M50 220v310h120v-310q0 -53 22 -88q20 -32 58 -32q55 0 74 70q6 21 6 50v310h120v-530h-120v54q-43 -62 -118 -62t-118 62q-44 62 -44 166zM114 710l72 67q24 -26 48 -55l46 -56q24 -29 48 -55l-58 -53q-20 22 -51 51l-53 50q-40 38 -52 51z" />
    <glyph glyph-name="uacute" unicode="&#xfa;" 
d="M172 611q24 26 48 55l46 56q24 29 48 55l72 -67q-12 -13 -52 -51l-53 -50q-31 -29 -51 -51zM50 220v310h120v-310q0 -53 22 -88q20 -32 58 -32q55 0 74 70q6 21 6 50v310h120v-530h-120v54q-43 -62 -118 -62t-118 62q-44 62 -44 166z" />
    <glyph glyph-name="ucircumflex" unicode="&#xfb;" 
d="M50 220v310h120v-310q0 -53 22 -88q20 -32 58 -32q55 0 74 70q6 21 6 50v310h120v-530h-120v54q-43 -62 -118 -62t-118 62q-44 62 -44 166zM64 626l23 25.5l22 24.5l41 44l22.5 25l23.5 26h108l23.5 -26l22.5 -25l41 -44l22 -24.5l23 -25.5l-74 -63q-23 26 -55 67l-57 74
l-57 -74q-32 -41 -55 -67z" />
    <glyph glyph-name="udieresis" unicode="&#xfc;" 
d="M277 685q0 34 19.5 53.5t53.5 19.5t53.5 -19.5t19.5 -53.5t-19.5 -53.5t-53.5 -19.5t-53.5 19.5t-19.5 53.5zM77 685q0 34 19.5 53.5t53.5 19.5t53.5 -19.5t19.5 -53.5t-19.5 -53.5t-53.5 -19.5t-53.5 19.5t-19.5 53.5zM50 220v310h120v-310q0 -53 22 -88q20 -32 58 -32
q55 0 74 70q6 21 6 50v310h120v-530h-120v54q-43 -62 -118 -62t-118 62q-44 62 -44 166z" />
    <glyph glyph-name="yacute" unicode="&#xfd;" 
d="M172 611q24 26 48 55l46 56q24 29 48 55l72 -67q-12 -13 -52 -51l-53 -50q-31 -29 -51 -51zM50 493v37h120v-37q0 -19 14 -72q8 -31 40 -129l31 -91l27 91q34 116 45 172q3 18 3 29v37h120v-37q0 -14 -13 -83q-10 -50 -40 -149l-88 -300q-14 -51 -24 -100q-3 -18 -3 -29
v-37h-120v37q0 14 13 83q5 23 22 87l-86 256q-39 113 -57 201q-4 20 -4 34z" />
    <glyph glyph-name="thorn" unicode="&#xfe;" 
d="M170 220q0 -53 22 -88q22 -32 58 -32h1q60 0 81 70q6 21 6 50v90q0 85 -51 112q-15 8 -36 8h-1q-55 -1 -74 -70q-6 -21 -6 -50v-90zM50 -205v735h120v-54q43 62 118 62h1q78 0 123 -62q46 -61 46 -166v-90q0 -105 -46 -166q-45 -62 -123 -62h-1q-75 0 -118 62v-259h-120z
M170 220q0 -53 22 -88q22 -32 58 -32h1q60 0 81 70q6 21 6 50v90q0 85 -51 112q-15 8 -36 8h-1q-55 -1 -74 -70q-6 -21 -6 -50v-90zM50 0v735h120v-259q43 62 118 62h1q78 0 123 -62q46 -61 46 -166v-90q0 -105 -46 -166q-45 -62 -123 -62h-1q-75 0 -118 62v-54h-120z" />
    <glyph glyph-name="ydieresis" unicode="&#xff;" 
d="M277 685q0 34 19.5 53.5t53.5 19.5t53.5 -19.5t19.5 -53.5t-19.5 -53.5t-53.5 -19.5t-53.5 19.5t-19.5 53.5zM77 685q0 34 19.5 53.5t53.5 19.5t53.5 -19.5t19.5 -53.5t-19.5 -53.5t-53.5 -19.5t-53.5 19.5t-19.5 53.5zM50 493v37h120v-37q0 -19 14 -72q8 -31 40 -129
l31 -91l27 91q34 116 45 172q3 18 3 29v37h120v-37q0 -14 -13 -83q-10 -50 -40 -149l-88 -300q-14 -51 -24 -100q-3 -18 -3 -29v-37h-120v37q0 14 13 83q5 23 22 87l-86 256q-39 113 -57 201q-4 20 -4 34z" />
    <glyph glyph-name="Amacron" unicode="&#x100;" 
d="M100 846v88h300v-88h-300zM188 265h124q-21 139 -62 313q-39 -165 -62 -313zM50 0v74q0 64 16 162q23 147 80 349l44 150h120q66 -216 105 -397q20 -93 31 -189q4 -33 4 -75v-74h-120v74q0 47 -4 83h-152q-4 -54 -4 -83v-74h-120z" />
    <glyph glyph-name="amacron" unicode="&#x101;" 
d="M100 641v88h300v-88h-300zM162 155q0 -28 20.5 -41.5t52.5 -13.5h1q66 0 88 57q6 16 6 41v24h-60q-49 0 -79 -18q-29 -17 -29 -49zM42.5 160.5q1.5 39.5 15.5 68.5q30 62 117 89q39 12 95 12h60q-1 40 -22 68q-24 32 -66 32q-62 0 -79 -55l-114 35q25 74 97 108
q43 20 96 20q97 0 156 -64q30 -31 42 -71q10 -29 10 -83v-320h-120v52q-48 -60 -132 -60q-110 0 -145 96q-12 33 -10.5 72.5z" />
    <glyph glyph-name="Abreve" unicode="&#x102;" 
d="M81 949h98q0 -72 71 -72t71 72h98q0 -94 -79 -138q-41 -22 -90 -22q-101 0 -147 76q-22 37 -22 84zM188 265h124q-21 139 -62 313q-39 -165 -62 -313zM50 0v74q0 64 16 162q23 147 80 349l44 150h120q66 -216 105 -397q20 -93 31 -189q4 -33 4 -75v-74h-120v74
q0 47 -4 83h-152q-4 -54 -4 -83v-74h-120z" />
    <glyph glyph-name="abreve" unicode="&#x103;" 
d="M81 744h98q0 -72 71 -72t71 72h98q0 -94 -79 -138q-41 -22 -90 -22q-101 0 -147 76q-22 37 -22 84zM162 155q0 -28 20.5 -41.5t52.5 -13.5h1q66 0 88 57q6 16 6 41v24h-60q-49 0 -79 -18q-29 -17 -29 -49zM42.5 160.5q1.5 39.5 15.5 68.5q30 62 117 89q39 12 95 12h60
q-1 40 -22 68q-24 32 -66 32q-62 0 -79 -55l-114 35q25 74 97 108q43 20 96 20q97 0 156 -64q30 -31 42 -71q10 -29 10 -83v-320h-120v52q-48 -60 -132 -60q-110 0 -145 96q-12 33 -10.5 72.5z" />
    <glyph glyph-name="Aogonek" unicode="&#x104;" 
d="M308 -38q4 26 35 44q22 12 39 12h24v-18q-20 0 -20 -38q0 -18 12.5 -28t32.5 -10h60v-98h-60q-39 0 -70 20t-45 51q-14 32 -8 65zM188 265h124q-21 139 -62 313q-39 -165 -62 -313zM50 0v74q0 64 16 162q23 147 80 349l44 150h120q66 -216 105 -397q20 -93 31 -189
q4 -33 4 -75v-74h-120v74q0 47 -4 83h-152q-4 -54 -4 -83v-74h-120z" />
    <glyph glyph-name="aogonek" unicode="&#x105;" 
d="M308 -38q4 26 35 44q22 12 39 12h24v-18q-20 0 -20 -38q0 -18 12.5 -28t32.5 -10h60v-98h-60q-39 0 -70 20t-45 51q-14 32 -8 65zM162 155q0 -28 20.5 -41.5t52.5 -13.5h1q66 0 88 57q6 16 6 41v24h-60q-49 0 -79 -18q-29 -17 -29 -49zM42.5 160.5q1.5 39.5 15.5 68.5
q30 62 117 89q39 12 95 12h60q-1 40 -22 68q-24 32 -66 32q-62 0 -79 -55l-114 35q25 74 97 108q43 20 96 20q97 0 156 -64q30 -31 42 -71q10 -29 10 -83v-320h-120v52q-48 -60 -132 -60q-110 0 -145 96q-12 33 -10.5 72.5z" />
    <glyph glyph-name="Cacute" unicode="&#x106;" 
d="M172 816q24 26 48 55l46 56q24 29 48 55l72 -67q-12 -13 -52 -51l-53 -50q-31 -29 -51 -51zM50 210v315q0 50 10 83q11 35 35.5 65t55.5 47q43 23 102 23q93 0 148 -60q41 -44 50 -103l-119 -16q-4 31 -25 51t-54 20q-40 0 -62 -32q-21 -29 -21 -78v-315q0 -49 21 -78
q22 -32 62 -32q38 0 59 26q17 20 20 45l119 -16q-7 -46 -33.5 -83.5t-65.5 -57.5q-44 -22 -99 -22q-95 0 -152 64q-30 34 -41 71q-10 33 -10 83z" />
    <glyph glyph-name="cacute" unicode="&#x107;" 
d="M172 611q24 26 48 55l46 56q24 29 48 55l72 -67q-12 -13 -52 -51l-53 -50q-31 -29 -51 -51zM42 220v90q0 51 10 86q11 37 36.5 68.5t57.5 49.5q44 24 104 24q93 0 151 -61q39 -42 50 -102l-118 -19q-5 32 -26.5 53t-56.5 21q-42 0 -66 -35q-22 -32 -22 -85v-90
q0 -53 22 -85q24 -35 66 -35q39 0 62 28q17 20 21 46l118 -19q-8 -45 -35 -83t-66 -58q-41 -22 -100 -22q-98 0 -156 66q-30 35 -42 76q-10 35 -10 86z" />
    <glyph glyph-name="Ccircumflex" unicode="&#x108;" 
d="M64 831l23 25.5l22 24.5l41 44l22.5 25l23.5 26h108l23.5 -26l22.5 -25l41 -44l22 -24.5l23 -25.5l-74 -63q-23 26 -55 67l-57 74l-57 -74q-32 -41 -55 -67zM50 210v315q0 50 10 83q11 35 35.5 65t55.5 47q43 23 102 23q93 0 148 -60q41 -44 50 -103l-119 -16
q-4 31 -25 51t-54 20q-40 0 -62 -32q-21 -29 -21 -78v-315q0 -49 21 -78q22 -32 62 -32q38 0 59 26q17 20 20 45l119 -16q-7 -46 -33.5 -83.5t-65.5 -57.5q-44 -22 -99 -22q-95 0 -152 64q-30 34 -41 71q-10 33 -10 83z" />
    <glyph glyph-name="ccircumflex" unicode="&#x109;" 
d="M42 220v90q0 51 10 86q11 37 36.5 68.5t57.5 49.5q44 24 104 24q93 0 151 -61q39 -42 50 -102l-118 -19q-5 32 -26.5 53t-56.5 21q-42 0 -66 -35q-22 -32 -22 -85v-90q0 -53 22 -85q24 -35 66 -35q39 0 62 28q17 20 21 46l118 -19q-8 -45 -35 -83t-66 -58
q-41 -22 -100 -22q-98 0 -156 66q-30 35 -42 76q-10 35 -10 86zM64 626l23 25.5l22 24.5l41 44l22.5 25l23.5 26h108l23.5 -26l22.5 -25l41 -44l22 -24.5l23 -25.5l-74 -63q-23 26 -55 67l-57 74l-57 -74q-32 -41 -55 -67z" />
    <glyph glyph-name="Cdotaccent" unicode="&#x10a;" 
d="M170 890q0 37 21 58.5t59 21.5t59 -21.5t21 -58.5t-21 -58.5t-59 -21.5t-59 21.5t-21 58.5zM50 210v315q0 50 10 83q11 35 35.5 65t55.5 47q43 23 102 23q93 0 148 -60q41 -44 50 -103l-119 -16q-4 31 -25 51t-54 20q-40 0 -62 -32q-21 -29 -21 -78v-315q0 -49 21 -78
q22 -32 62 -32q38 0 59 26q17 20 20 45l119 -16q-7 -46 -33.5 -83.5t-65.5 -57.5q-44 -22 -99 -22q-95 0 -152 64q-30 34 -41 71q-10 33 -10 83z" />
    <glyph glyph-name="cdotaccent" unicode="&#x10b;" 
d="M170 685q0 37 21 58.5t59 21.5t59 -21.5t21 -58.5t-21 -58.5t-59 -21.5t-59 21.5t-21 58.5zM42 220v90q0 51 10 86q11 37 36.5 68.5t57.5 49.5q44 24 104 24q93 0 151 -61q39 -42 50 -102l-118 -19q-5 32 -26.5 53t-56.5 21q-42 0 -66 -35q-22 -32 -22 -85v-90
q0 -53 22 -85q24 -35 66 -35q39 0 62 28q17 20 21 46l118 -19q-8 -45 -35 -83t-66 -58q-41 -22 -100 -22q-98 0 -156 66q-30 35 -42 76q-10 35 -10 86z" />
    <glyph glyph-name="Ccaron" unicode="&#x10c;" 
d="M64 917l74 63q23 -26 55 -67l57 -74l57 74q32 41 55 67l74 -63l-45 -51l-41 -43l-22.5 -25l-23.5 -26h-108l-23.5 26l-22.5 25l-41 43zM50 210v315q0 50 10 83q11 35 35.5 65t55.5 47q43 23 102 23q93 0 148 -60q41 -44 50 -103l-119 -16q-4 31 -25 51t-54 20
q-40 0 -62 -32q-21 -29 -21 -78v-315q0 -49 21 -78q22 -32 62 -32q38 0 59 26q17 20 20 45l119 -16q-7 -46 -33.5 -83.5t-65.5 -57.5q-44 -22 -99 -22q-95 0 -152 64q-30 34 -41 71q-10 33 -10 83z" />
    <glyph glyph-name="ccaron" unicode="&#x10d;" 
d="M64 712l74 63q23 -26 55 -67l57 -74l57 74q32 41 55 67l74 -63l-45 -51l-41 -43l-22.5 -25l-23.5 -26h-108l-23.5 26l-22.5 25l-41 43zM42 220v90q0 51 10 86q11 37 36.5 68.5t57.5 49.5q44 24 104 24q93 0 151 -61q39 -42 50 -102l-118 -19q-5 32 -26.5 53t-56.5 21
q-42 0 -66 -35q-22 -32 -22 -85v-90q0 -53 22 -85q24 -35 66 -35q39 0 62 28q17 20 21 46l118 -19q-8 -45 -35 -83t-66 -58q-41 -22 -100 -22q-98 0 -156 66q-30 35 -42 76q-10 35 -10 86z" />
    <glyph glyph-name="Dcaron" unicode="&#x10e;" 
d="M64 917l74 63q23 -26 55 -67l57 -74l57 74q32 41 55 67l74 -63l-45 -51l-41 -43l-22.5 -25l-23.5 -26h-108l-23.5 26l-22.5 25l-41 43zM170 108h49q27 0 46 12q65 42 65 164v168q0 121 -65 163q-19 12 -46 12h-49v-519zM50 0v735h169q55 0 96 -20q86 -42 119 -145
q16 -49 16 -118v-168q0 -70 -16 -119q-33 -103 -119 -145q-41 -20 -96 -20h-169z" />
    <glyph glyph-name="dcaron" unicode="&#x10f;" 
d="M436 605q25 26 35 65q-23 12 -23 46q0 24 14 38t38 14t38 -14t14 -38v-1q0 -64 -28 -113q-14 -26 -34 -46zM162 220q0 -57 20 -88q20 -32 54 -32h2q46 1 62 70q5 23 5 50v90q0 56 -18 88t-49 32h-2q-34 0 -54 -32q-20 -31 -20 -88v-90zM42 220v90q0 104 42 166
q43 62 113 62h1q68 0 107 -60v257h120v-735h-120v52q-39 -60 -107 -60h-1q-70 0 -113 62q-42 62 -42 166z" />
    <glyph glyph-name="Dcroat" unicode="&#x110;" 
d="M170 108h49q27 0 46 12q65 42 65 164v168q0 121 -65 163q-19 12 -46 12h-49v-213h89v-78h-89v-228zM15 336v78h35v321h169q55 0 96 -20q86 -42 119 -145q16 -49 16 -118v-168q0 -70 -16 -119q-33 -103 -119 -145q-41 -20 -96 -20h-169v336h-35z" />
    <glyph glyph-name="dcroat" unicode="&#x111;" 
d="M162 220q0 -85 51 -112q15 -8 36 -8h1q55 1 74 70q6 21 6 50v90q0 53 -22 88q-22 32 -58 32h-1q-60 0 -81 -70q-6 -21 -6 -50v-90zM42 220v90q0 105 46 166q45 62 123 62h1q75 0 118 -62v107h-80v78h80v74h120v-74h35v-78h-35v-583h-120v54q-43 -62 -118 -62h-1
q-78 0 -123 62q-46 61 -46 166z" />
    <glyph glyph-name="Emacron" unicode="&#x112;" 
d="M100 846v88h300v-88h-300zM75 0v735h375v-108h-255v-176h201v-108h-201v-235h255v-108h-375z" />
    <glyph glyph-name="emacron" unicode="&#x113;" 
d="M100 641v88h300v-88h-300zM162 320h176q-3 78 -51 102q-15 8 -37 8q-62 0 -82 -70q-5 -18 -6 -40zM42 220v90q0 59 14 95q32 86 107 117q38 16 87 16q145 0 194 -133q14 -39 14 -95v-98h-296q1 -47 24 -77q27 -35 71 -35q64 0 85 57l113 -37q-26 -74 -99 -108
q-43 -20 -99 -20q-101 0 -161 66q-30 33 -44 76q-10 30 -10 86z" />
    <glyph glyph-name="Ebreve" unicode="&#x114;" 
d="M81 949h98q0 -72 71 -72t71 72h98q0 -94 -79 -138q-41 -22 -90 -22q-101 0 -147 76q-22 37 -22 84zM75 0v735h375v-108h-255v-176h201v-108h-201v-235h255v-108h-375z" />
    <glyph glyph-name="ebreve" unicode="&#x115;" 
d="M81 744h98q0 -72 71 -72t71 72h98q0 -94 -79 -138q-41 -22 -90 -22q-101 0 -147 76q-22 37 -22 84zM162 320h176q-3 78 -51 102q-15 8 -37 8q-62 0 -82 -70q-5 -18 -6 -40zM42 220v90q0 59 14 95q32 86 107 117q38 16 87 16q145 0 194 -133q14 -39 14 -95v-98h-296
q1 -47 24 -77q27 -35 71 -35q64 0 85 57l113 -37q-26 -74 -99 -108q-43 -20 -99 -20q-101 0 -161 66q-30 33 -44 76q-10 30 -10 86z" />
    <glyph glyph-name="Edotaccent" unicode="&#x116;" 
d="M170 890q0 37 21 58.5t59 21.5t59 -21.5t21 -58.5t-21 -58.5t-59 -21.5t-59 21.5t-21 58.5zM75 0v735h375v-108h-255v-176h201v-108h-201v-235h255v-108h-375z" />
    <glyph glyph-name="edotaccent" unicode="&#x117;" 
d="M170 685q0 37 21 58.5t59 21.5t59 -21.5t21 -58.5t-21 -58.5t-59 -21.5t-59 21.5t-21 58.5zM162 320h176q-3 78 -51 102q-15 8 -37 8q-62 0 -82 -70q-5 -18 -6 -40zM42 220v90q0 59 14 95q32 86 107 117q38 16 87 16q145 0 194 -133q14 -39 14 -95v-98h-296q1 -47 24 -77
q27 -35 71 -35q64 0 85 57l113 -37q-26 -74 -99 -108q-43 -20 -99 -20q-101 0 -161 66q-30 33 -44 76q-10 30 -10 86z" />
    <glyph glyph-name="Eogonek" unicode="&#x118;" 
d="M152 -38q4 26 35 44q22 12 39 12h24v-18q-20 0 -20 -38q0 -18 12.5 -28t32.5 -10h60v-98h-60q-39 0 -70 20t-45 51q-14 32 -8 65zM75 0v735h375v-108h-255v-176h201v-108h-201v-235h255v-108h-375z" />
    <glyph glyph-name="eogonek" unicode="&#x119;" 
d="M152 -38q4 26 35 44q22 12 39 12h24v-18q-20 0 -20 -38q0 -18 12.5 -28t32.5 -10h60v-98h-60q-39 0 -70 20t-45 51q-14 32 -8 65zM162 320h176q-3 78 -51 102q-15 8 -37 8q-62 0 -82 -70q-5 -18 -6 -40zM42 220v90q0 59 14 95q32 86 107 117q38 16 87 16q145 0 194 -133
q14 -39 14 -95v-98h-296q1 -47 24 -77q27 -35 71 -35q64 0 85 57l113 -37q-26 -74 -99 -108q-43 -20 -99 -20q-101 0 -161 66q-30 33 -44 76q-10 30 -10 86z" />
    <glyph glyph-name="Ecaron" unicode="&#x11a;" 
d="M64 917l74 63q23 -26 55 -67l57 -74l57 74q32 41 55 67l74 -63l-45 -51l-41 -43l-22.5 -25l-23.5 -26h-108l-23.5 26l-22.5 25l-41 43zM75 0v735h375v-108h-255v-176h201v-108h-201v-235h255v-108h-375z" />
    <glyph glyph-name="ecaron" unicode="&#x11b;" 
d="M64 712l74 63q23 -26 55 -67l57 -74l57 74q32 41 55 67l74 -63l-45 -51l-41 -43l-22.5 -25l-23.5 -26h-108l-23.5 26l-22.5 25l-41 43zM162 320h176q-3 78 -51 102q-15 8 -37 8q-62 0 -82 -70q-5 -18 -6 -40zM42 220v90q0 59 14 95q32 86 107 117q38 16 87 16
q145 0 194 -133q14 -39 14 -95v-98h-296q1 -47 24 -77q27 -35 71 -35q64 0 85 57l113 -37q-26 -74 -99 -108q-43 -20 -99 -20q-101 0 -161 66q-30 33 -44 76q-10 30 -10 86z" />
    <glyph glyph-name="Gcircumflex" unicode="&#x11c;" 
d="M64 831l23 25.5l22 24.5l41 44l22.5 25l23.5 26h108l23.5 -26l22.5 -25l41 -44l22 -24.5l23 -25.5l-74 -63q-23 26 -55 67l-57 74l-57 -74q-32 -41 -55 -67zM42 210v315q0 50 10 83q11 35 36 65t57 47q44 23 104 23q94 0 151 -60q42 -44 51 -103l-119 -16
q-5 32 -26.5 51.5t-56.5 19.5q-41 0 -65 -32q-22 -29 -22 -78v-315q0 -77 51 -102q18 -8 36 -8h1q56 0 74 64q6 20 6 46v91h-80v108h200v-199q0 -53 -14 -91q-47 -127 -186 -127h-1q-144 0 -193 127q-14 38 -14 91z" />
    <glyph glyph-name="gcircumflex" unicode="&#x11d;" 
d="M162 353q0 -36 21.5 -56t58.5 -20t59 20t22 56t-22 56.5t-59 20.5t-58.5 -20.5t-21.5 -56.5zM152 -39q-1 -47 56 -61q20 -5 40 -5q68 0 88 38q13 26 2 48q-14 27 -62 27h-59q-64 -2 -65 -47zM32 -39q0 62 41 103q-23 32 -23 71q0 54 40 90q-48 50 -48 128q0 84 54 135
q53 50 146 50q34 0 68 -8h152v-108l-30 1q11 -33 11 -70q0 -83 -54 -134q-53 -50 -147 -50q-47 0 -80 11q-8 -23 4 -40t32 -22q8 -2 16 -2h62q46 0 78 -11q70 -22 96 -79q13 -30 12.5 -68.5t-14.5 -68.5q-31 -66 -110 -90q-39 -12 -90 -12q-100 0 -158 47q-58 46 -58 127z
M64 626l23 25.5l22 24.5l41 44l22.5 25l23.5 26h108l23.5 -26l22.5 -25l41 -44l22 -24.5l23 -25.5l-74 -63q-23 26 -55 67l-57 74l-57 -74q-32 -41 -55 -67z" />
    <glyph glyph-name="Gbreve" unicode="&#x11e;" 
d="M81 949h98q0 -72 71 -72t71 72h98q0 -94 -79 -138q-41 -22 -90 -22q-101 0 -147 76q-22 37 -22 84zM42 210v315q0 50 10 83q11 35 36 65t57 47q44 23 104 23q94 0 151 -60q42 -44 51 -103l-119 -16q-5 32 -26.5 51.5t-56.5 19.5q-41 0 -65 -32q-22 -29 -22 -78v-315
q0 -77 51 -102q18 -8 36 -8h1q56 0 74 64q6 20 6 46v91h-80v108h200v-199q0 -53 -14 -91q-47 -127 -186 -127h-1q-144 0 -193 127q-14 38 -14 91z" />
    <glyph glyph-name="gbreve" unicode="&#x11f;" 
d="M81 744h98q0 -72 71 -72t71 72h98q0 -94 -79 -138q-41 -22 -90 -22q-101 0 -147 76q-22 37 -22 84zM162 353q0 -36 21.5 -56t58.5 -20t59 20t22 56t-22 56.5t-59 20.5t-58.5 -20.5t-21.5 -56.5zM152 -39q-1 -47 56 -61q20 -5 40 -5q68 0 88 38q13 26 2 48q-14 27 -62 27
h-59q-64 -2 -65 -47zM32 -39q0 62 41 103q-23 32 -23 71q0 54 40 90q-48 50 -48 128q0 84 54 135q53 50 146 50q34 0 68 -8h152v-108l-30 1q11 -33 11 -70q0 -83 -54 -134q-53 -50 -147 -50q-47 0 -80 11q-8 -23 4 -40t32 -22q8 -2 16 -2h62q46 0 78 -11q70 -22 96 -79
q13 -30 12.5 -68.5t-14.5 -68.5q-31 -66 -110 -90q-39 -12 -90 -12q-100 0 -158 47q-58 46 -58 127z" />
    <glyph glyph-name="Gdotaccent" unicode="&#x120;" 
d="M170 890q0 37 21 58.5t59 21.5t59 -21.5t21 -58.5t-21 -58.5t-59 -21.5t-59 21.5t-21 58.5zM42 210v315q0 50 10 83q11 35 36 65t57 47q44 23 104 23q94 0 151 -60q42 -44 51 -103l-119 -16q-5 32 -26.5 51.5t-56.5 19.5q-41 0 -65 -32q-22 -29 -22 -78v-315
q0 -77 51 -102q18 -8 36 -8h1q56 0 74 64q6 20 6 46v91h-80v108h200v-199q0 -53 -14 -91q-47 -127 -186 -127h-1q-144 0 -193 127q-14 38 -14 91z" />
    <glyph glyph-name="gdotaccent" unicode="&#x121;" 
d="M170 685q0 37 21 58.5t59 21.5t59 -21.5t21 -58.5t-21 -58.5t-59 -21.5t-59 21.5t-21 58.5zM162 353q0 -36 21.5 -56t58.5 -20t59 20t22 56t-22 56.5t-59 20.5t-58.5 -20.5t-21.5 -56.5zM152 -39q-1 -47 56 -61q20 -5 40 -5q68 0 88 38q13 26 2 48q-14 27 -62 27h-59
q-64 -2 -65 -47zM32 -39q0 62 41 103q-23 32 -23 71q0 54 40 90q-48 50 -48 128q0 84 54 135q53 50 146 50q34 0 68 -8h152v-108l-30 1q11 -33 11 -70q0 -83 -54 -134q-53 -50 -147 -50q-47 0 -80 11q-8 -23 4 -40t32 -22q8 -2 16 -2h62q46 0 78 -11q70 -22 96 -79
q13 -30 12.5 -68.5t-14.5 -68.5q-31 -66 -110 -90q-39 -12 -90 -12q-100 0 -158 47q-58 46 -58 127z" />
    <glyph glyph-name="Gcommaaccent" unicode="&#x122;" 
d="M186 -189q25 26 35 65q-23 12 -23 46q0 24 14 38t38 14t38 -14t14 -38v-1q0 -64 -28 -113q-14 -26 -34 -46zM42 210v315q0 50 10 83q11 35 36 65t57 47q44 23 104 23q94 0 151 -60q42 -44 51 -103l-119 -16q-5 32 -26.5 51.5t-56.5 19.5q-41 0 -65 -32q-22 -29 -22 -78
v-315q0 -77 51 -102q18 -8 36 -8h1q56 0 74 64q6 20 6 46v91h-80v108h200v-199q0 -53 -14 -91q-47 -127 -186 -127h-1q-144 0 -193 127q-14 38 -14 91z" />
    <glyph glyph-name="gcommaaccent" unicode="&#x123;" 
d="M198 608v1q0 64 28 113q14 26 34 46l54 -49q-25 -26 -35 -65q23 -12 23 -46q0 -24 -14 -38t-38 -14t-38 14t-14 38zM162 353q0 -36 21.5 -56t58.5 -20t59 20t22 56t-22 56.5t-59 20.5t-58.5 -20.5t-21.5 -56.5zM152 -39q-1 -47 56 -61q20 -5 40 -5q68 0 88 38q13 26 2 48
q-14 27 -62 27h-59q-64 -2 -65 -47zM32 -39q0 62 41 103q-23 32 -23 71q0 54 40 90q-48 50 -48 128q0 84 54 135q53 50 146 50q34 0 68 -8h152v-108l-30 1q11 -33 11 -70q0 -83 -54 -134q-53 -50 -147 -50q-47 0 -80 11q-8 -23 4 -40t32 -22q8 -2 16 -2h62q46 0 78 -11
q70 -22 96 -79q13 -30 12.5 -68.5t-14.5 -68.5q-31 -66 -110 -90q-39 -12 -90 -12q-100 0 -158 47q-58 46 -58 127z" />
    <glyph glyph-name="Hcircumflex" unicode="&#x124;" 
d="M64 831l23 25.5l22 24.5l41 44l22.5 25l23.5 26h108l23.5 -26l22.5 -25l41 -44l22 -24.5l23 -25.5l-74 -63q-23 26 -55 67l-57 74l-57 -74q-32 -41 -55 -67zM50 0v735h120v-306h160v306h120v-735h-120v321h-160v-321h-120z" />
    <glyph glyph-name="hcircumflex" unicode="&#x125;" 
d="M50 0v735h120v-259q43 62 118 62t118 -62q44 -62 44 -166v-310h-120v310q0 53 -22 88q-20 32 -58 32q-55 0 -74 -70q-6 -21 -6 -50v-310h-120zM64 831l23 25.5l22 24.5l41 44l22.5 25l23.5 26h108l23.5 -26l22.5 -25l41 -44l22 -24.5l23 -25.5l-74 -63q-23 26 -55 67
l-57 74l-57 -74q-32 -41 -55 -67z" />
    <glyph glyph-name="Hbar" unicode="&#x126;" 
d="M170 429h160v65h-160v-65zM15 494v78h35v163h120v-163h160v163h120v-163h35v-78h-35v-494h-120v321h-160v-321h-120v494h-35z" />
    <glyph glyph-name="hbar" unicode="&#x127;" 
d="M15 583v78h35v74h120v-74h80v-78h-80v-107q43 62 118 62t118 -62q44 -62 44 -166v-310h-120v310q0 53 -22 88q-20 32 -58 32q-55 0 -74 -70q-6 -21 -6 -50v-310h-120v583h-35z" />
    <glyph glyph-name="Itilde" unicode="&#x128;" 
d="M60 828q42 90 81 120q26 20 53 20q19 0 36 -8.5t26 -18t21 -25.5l15 -20q13 -15 14 -16q20 17 54 88l80 -38q-42 -90 -81 -120q-26 -20 -53 -20q-19 0 -36 8.5t-26 18t-21 25.5l-15 20q-10 12 -14 15q-21 -18 -54 -87zM120 0v108h70v519h-70v108h260v-108h-70v-519h70
v-108h-260z" />
    <glyph glyph-name="itilde" unicode="&#x129;" 
d="M75 0v108h122v314h-108v108h228v-422h108v-108h-350zM60 623q42 90 81 120q26 20 53 20q19 0 36 -8.5t26 -18t21 -25.5l15 -20q13 -15 14 -16q20 17 54 88l80 -38q-42 -90 -81 -120q-26 -20 -53 -20q-19 0 -36 8.5t-26 18t-21 25.5l-15 20q-10 12 -14 15q-21 -18 -54 -87
z" />
    <glyph glyph-name="Imacron" unicode="&#x12a;" 
d="M100 846v88h300v-88h-300zM120 0v108h70v519h-70v108h260v-108h-70v-519h70v-108h-260z" />
    <glyph glyph-name="imacron" unicode="&#x12b;" 
d="M75 0v108h122v314h-108v108h228v-422h108v-108h-350zM100 641v88h300v-88h-300z" />
    <glyph glyph-name="Ibreve" unicode="&#x12c;" 
d="M81 949h98q0 -72 71 -72t71 72h98q0 -94 -79 -138q-41 -22 -90 -22q-101 0 -147 76q-22 37 -22 84zM120 0v108h70v519h-70v108h260v-108h-70v-519h70v-108h-260z" />
    <glyph glyph-name="ibreve" unicode="&#x12d;" 
d="M81 744h98q0 -72 71 -72t71 72h98q0 -94 -79 -138q-41 -22 -90 -22q-101 0 -147 76q-22 37 -22 84zM75 0v108h122v314h-108v108h228v-422h108v-108h-350z" />
    <glyph glyph-name="Iogonek" unicode="&#x12e;" 
d="M152 -38q4 26 35 44q22 12 39 12h24v-18q-20 0 -20 -38q0 -18 12.5 -28t32.5 -10h60v-98h-60q-39 0 -70 20t-45 51q-14 32 -8 65zM120 0v108h70v519h-70v108h260v-108h-70v-519h70v-108h-260z" />
    <glyph glyph-name="iogonek" unicode="&#x12f;" 
d="M152 -38q4 26 35 44q22 12 39 12h24v-18q-20 0 -20 -38q0 -18 12.5 -28t32.5 -10h60v-98h-60q-39 0 -70 20t-45 51q-14 32 -8 65zM170 685q0 37 21 58.5t59 21.5t59 -21.5t21 -58.5t-21 -58.5t-59 -21.5t-59 21.5t-21 58.5zM75 0v108h122v314h-108v108h228v-422h108v-108
h-350z" />
    <glyph glyph-name="Idotaccent" unicode="&#x130;" 
d="M170 890q0 37 21 58.5t59 21.5t59 -21.5t21 -58.5t-21 -58.5t-59 -21.5t-59 21.5t-21 58.5zM120 0v108h70v519h-70v108h260v-108h-70v-519h70v-108h-260z" />
    <glyph glyph-name="dotlessi" unicode="&#x131;" 
d="M75 0v108h122v314h-108v108h228v-422h108v-108h-350z" />
    <glyph glyph-name="IJ" unicode="&#x132;" 
d="M230 -8v108q47 0 70.5 21t28.5 65q1 9 1 50v499h120v-499q0 -64 -6 -96q-22 -109 -119 -138q-31 -10 -95 -10zM50 0v735h120v-735h-120z" />
    <glyph glyph-name="ij" unicode="&#x133;" 
d="M53 -70l116 26q5 -26 21.5 -43.5t43.5 -17.5q32 0 53 36q18 33 18 87v512h120v-512q0 -56 -9 -87q-22 -80 -87 -120q-39 -24 -95 -24q-86 0 -136 57q-33 36 -45 86zM75 0v530h120v-530h-120zM55 685q0 37 21 58.5t59 21.5t59 -21.5t21 -58.5t-21 -58.5t-59 -21.5
t-59 21.5t-21 58.5zM265 685q0 37 21 58.5t59 21.5t59 -21.5t21 -58.5t-21 -58.5t-59 -21.5t-59 21.5t-21 58.5z" />
    <glyph glyph-name="Jcircumflex" unicode="&#x134;" 
d="M64 831l23 25.5l22 24.5l41 44l22.5 25l23.5 26h108l23.5 -26l22.5 -25l41 -44l22 -24.5l23 -25.5l-74 -63q-23 26 -55 67l-57 74l-57 -74q-32 -41 -55 -67zM23 155l118 19q8 -61 46 -72q10 -2 16 -2q21 0 33 14q22 22 31 73q3 18 3 49v391h-115v108h235v-499
q0 -62 -8 -91q-21 -85 -86 -127q-38 -26 -93 -26q-84 0 -135 63q-35 44 -45 100z" />
    <glyph glyph-name="jcircumflex" unicode="&#x135;" 
d="M-12 -70l116 26q5 -26 21.5 -43.5t43.5 -17.5q32 0 53 36q18 33 18 87v404h-115v108h235v-512q0 -56 -9 -87q-22 -80 -87 -120q-39 -24 -95 -24q-86 0 -136 57q-33 36 -45 86zM94 626l23 25.5l22 24.5l41 44l22.5 25l23.5 26h108l23.5 -26l22.5 -25l41 -44l22 -24.5
l23 -25.5l-74 -63q-23 26 -55 67l-57 74l-57 -74q-32 -41 -55 -67z" />
    <glyph glyph-name="Kcommaaccent" unicode="&#x136;" 
d="M186 -189q25 26 35 65q-23 12 -23 46q0 24 14 38t38 14t38 -14t14 -38v-1q0 -64 -28 -113q-14 -26 -34 -46zM50 0v735h120v-288q66 93 103 163q25 47 37 89q6 19 6 36h126q0 -15 -7 -41q-13 -44 -46 -103q-32 -56 -88 -136q96 -195 132 -323q15 -51 20 -93q3 -21 3 -39
h-120q0 49 -19 121q-26 100 -81 234q-1 2 -1.5 4.5t-1.5 4.5l-63 -75v-289h-120z" />
    <glyph glyph-name="kcommaaccent" unicode="&#x137;" 
d="M186 -189q25 26 35 65q-23 12 -23 46q0 24 14 38t38 14t38 -14t14 -38v-1q0 -64 -28 -113q-14 -26 -34 -46zM50 0v735h120v-401q63 59 105 114q23 30 36 59q5 11 5 23h126q0 -11 -7 -30q-13 -33 -46 -74q-36 -48 -86 -96q72 -107 112 -191q30 -64 38 -110q3 -15 3 -29
h-120q0 32 -18 84q-27 75 -87 177q-29 -26 -61 -52v-209h-120z" />
    <glyph glyph-name="kgreenlandic" unicode="&#x138;" 
d="M50 0v530h120v-196q63 59 105 114q23 30 36 59q5 11 5 23h126q0 -11 -7 -30q-13 -33 -46 -74q-36 -48 -86 -96q72 -107 112 -191q30 -64 38 -110q3 -15 3 -29h-120q0 32 -18 84q-27 75 -87 177q-29 -26 -61 -52v-209h-120z" />
    <glyph glyph-name="Lacute" unicode="&#x139;" 
d="M172 816q24 26 48 55l46 56q24 29 48 55l72 -67q-12 -13 -52 -51l-53 -50q-31 -29 -51 -51zM75 0v735h120v-627h255v-108h-375z" />
    <glyph glyph-name="lacute" unicode="&#x13a;" 
d="M172 816q24 26 48 55l46 56q24 29 48 55l72 -67q-12 -13 -52 -51l-53 -50q-31 -29 -51 -51zM75 0v108h122v519h-108v108h228v-627h108v-108h-350z" />
    <glyph glyph-name="Lcommaaccent" unicode="&#x13b;" 
d="M186 -189q25 26 35 65q-23 12 -23 46q0 24 14 38t38 14t38 -14t14 -38v-1q0 -64 -28 -113q-14 -26 -34 -46zM75 0v735h120v-627h255v-108h-375z" />
    <glyph glyph-name="lcommaaccent" unicode="&#x13c;" 
d="M186 -189q25 26 35 65q-23 12 -23 46q0 24 14 38t38 14t38 -14t14 -38v-1q0 -64 -28 -113q-14 -26 -34 -46zM75 0v108h122v519h-108v108h228v-627h108v-108h-350z" />
    <glyph glyph-name="Lcaron" unicode="&#x13d;" 
d="M336 605q25 26 35 65q-23 12 -23 46q0 24 14 38t38 14t38 -14t14 -38v-1q0 -64 -28 -113q-14 -26 -34 -46zM75 0v735h120v-627h255v-108h-375z" />
    <glyph glyph-name="lcaron" unicode="&#x13e;" 
d="M336 605q25 26 35 65q-23 12 -23 46q0 24 14 38t38 14t38 -14t14 -38v-1q0 -64 -28 -113q-14 -26 -34 -46zM75 0v108h122v519h-108v108h228v-627h108v-108h-350z" />
    <glyph glyph-name="Ldot" unicode="&#x13f;" 
d="M230 421q0 37 21 58.5t59 21.5t59 -21.5t21 -58.5t-21 -58.5t-59 -21.5t-59 21.5t-21 58.5zM75 0v735h120v-627h255v-108h-375z" />
    <glyph glyph-name="ldot" unicode="&#x140;" 
d="M290 421q0 37 21 58.5t59 21.5t59 -21.5t21 -58.5t-21 -58.5t-59 -21.5t-59 21.5t-21 58.5zM35 0v108h122v519h-108v108h228v-627h108v-108h-350z" />
    <glyph glyph-name="Lslash" unicode="&#x141;" 
d="M6 386l69 35v314h120v-254l91 46l38 -71l-129 -64v-284h255v-108h-375v332l-31 -16z" />
    <glyph glyph-name="lslash" unicode="&#x142;" 
d="M75 0v108h122v519h-108v108h228v-627h108v-108h-350z" />
    <glyph glyph-name="Nacute" unicode="&#x143;" 
d="M172 816q24 26 48 55l46 56q24 29 48 55l72 -67q-12 -13 -52 -51l-53 -50q-31 -29 -51 -51zM50 0v735h126l175 -547q-1 9 -5 32q-16 113 -16 221v294h120v-735h-126l-175 547q1 -11 5 -33q16 -113 16 -220v-294h-120z" />
    <glyph glyph-name="nacute" unicode="&#x144;" 
d="M172 611q24 26 48 55l46 56q24 29 48 55l72 -67q-12 -13 -52 -51l-53 -50q-31 -29 -51 -51zM50 0v530h120v-54q43 62 118 62t118 -62q44 -62 44 -166v-310h-120v310q0 53 -22 88q-20 32 -58 32q-55 0 -74 -70q-6 -21 -6 -50v-310h-120z" />
    <glyph glyph-name="Ncommaaccent" unicode="&#x145;" 
d="M186 -189q25 26 35 65q-23 12 -23 46q0 24 14 38t38 14t38 -14t14 -38v-1q0 -64 -28 -113q-14 -26 -34 -46zM50 0v735h126l175 -547q-1 9 -5 32q-16 113 -16 221v294h120v-735h-126l-175 547q1 -11 5 -33q16 -113 16 -220v-294h-120z" />
    <glyph glyph-name="ncommaaccent" unicode="&#x146;" 
d="M186 -189q25 26 35 65q-23 12 -23 46q0 24 14 38t38 14t38 -14t14 -38v-1q0 -64 -28 -113q-14 -26 -34 -46zM50 0v530h120v-54q43 62 118 62t118 -62q44 -62 44 -166v-310h-120v310q0 53 -22 88q-20 32 -58 32q-55 0 -74 -70q-6 -21 -6 -50v-310h-120z" />
    <glyph glyph-name="Ncaron" unicode="&#x147;" 
d="M64 917l74 63q23 -26 55 -67l57 -74l57 74q32 41 55 67l74 -63l-45 -51l-41 -43l-22.5 -25l-23.5 -26h-108l-23.5 26l-22.5 25l-41 43zM50 0v735h126l175 -547q-1 9 -5 32q-16 113 -16 221v294h120v-735h-126l-175 547q1 -11 5 -33q16 -113 16 -220v-294h-120z" />
    <glyph glyph-name="ncaron" unicode="&#x148;" 
d="M64 712l74 63q23 -26 55 -67l57 -74l57 74q32 41 55 67l74 -63l-45 -51l-41 -43l-22.5 -25l-23.5 -26h-108l-23.5 26l-22.5 25l-41 43zM50 0v530h120v-54q43 62 118 62t118 -62q44 -62 44 -166v-310h-120v310q0 53 -22 88q-20 32 -58 32q-55 0 -74 -70q-6 -21 -6 -50
v-310h-120z" />
    <glyph glyph-name="napostrophe" unicode="&#x149;" 
d="M-14 605q25 26 35 65q-23 12 -23 46q0 24 14 38t38 14t38 -14t14 -38v-1q0 -64 -28 -113q-14 -26 -34 -46zM50 0v530h120v-54q43 62 118 62t118 -62q44 -62 44 -166v-310h-120v310q0 53 -22 88q-20 32 -58 32q-55 0 -74 -70q-6 -21 -6 -50v-310h-120z" />
    <glyph glyph-name="Eng" unicode="&#x14a;" 
d="M50 0v735h120v-46q44 54 116 54q76 0 120 -59t44 -159v-324q0 -58 -7 -85q-22 -93 -114 -116q-32 -8 -85 -8v108q49 0 69 27q17 23 17 74v324q0 78 -50 102q-18 8 -36 8q-52 0 -74 -48v-587h-120z" />
    <glyph glyph-name="eng" unicode="&#x14b;" 
d="M50 0v530h120v-54q43 62 118 62t118 -62q44 -62 44 -166v-310q0 -58 -9 -90q-28 -93 -131 -113q-30 -6 -90 -6v108q58 0 82 21q28 24 28 80v310q0 53 -22 88q-20 32 -58 32q-55 0 -74 -70q-6 -21 -6 -50v-310h-120z" />
    <glyph glyph-name="Omacron" unicode="&#x14c;" 
d="M100 846v88h300v-88h-300zM162 210q0 -50 24 -80q23 -30 64 -30q62 0 82 64q6 18 6 46v315q0 50 -24 80q-23 30 -64 30q-62 0 -82 -64q-6 -18 -6 -46v-315zM42 210v315q0 53 14 91q48 127 194 127t194 -127q14 -38 14 -91v-315q0 -53 -14 -91q-48 -127 -194 -127
t-194 127q-14 38 -14 91z" />
    <glyph glyph-name="omacron" unicode="&#x14d;" 
d="M100 641v88h300v-88h-300zM162 220q0 -56 24 -88t64 -32q62 0 82 70q6 21 6 50v90q0 56 -24 88t-64 32q-62 0 -82 -70q-6 -21 -6 -50v-90zM42 220v90q0 59 14 95q32 86 107 117q38 16 87 16q145 0 194 -133q14 -39 14 -95v-90q0 -59 -14 -95q-32 -86 -107 -117
q-38 -16 -87 -16q-145 0 -194 133q-14 39 -14 95z" />
    <glyph glyph-name="Obreve" unicode="&#x14e;" 
d="M81 949h98q0 -72 71 -72t71 72h98q0 -94 -79 -138q-41 -22 -90 -22q-101 0 -147 76q-22 37 -22 84zM162 210q0 -50 24 -80q23 -30 64 -30q62 0 82 64q6 18 6 46v315q0 50 -24 80q-23 30 -64 30q-62 0 -82 -64q-6 -18 -6 -46v-315zM42 210v315q0 53 14 91q48 127 194 127
t194 -127q14 -38 14 -91v-315q0 -53 -14 -91q-48 -127 -194 -127t-194 127q-14 38 -14 91z" />
    <glyph glyph-name="obreve" unicode="&#x14f;" 
d="M81 744h98q0 -72 71 -72t71 72h98q0 -94 -79 -138q-41 -22 -90 -22q-101 0 -147 76q-22 37 -22 84zM162 220q0 -56 24 -88t64 -32q62 0 82 70q6 21 6 50v90q0 56 -24 88t-64 32q-62 0 -82 -70q-6 -21 -6 -50v-90zM42 220v90q0 59 14 95q32 86 107 117q38 16 87 16
q145 0 194 -133q14 -39 14 -95v-90q0 -59 -14 -95q-32 -86 -107 -117q-38 -16 -87 -16q-145 0 -194 133q-14 39 -14 95z" />
    <glyph glyph-name="Ohungarumlaut" unicode="&#x150;" 
d="M257 816q24 26 48 55l46 56q24 29 48 55l72 -67q-12 -13 -52 -51l-53 -50q-31 -29 -51 -51zM87 816q24 26 48 55l46 56q24 29 48 55l72 -67q-12 -13 -52 -51l-53 -50q-31 -29 -51 -51zM162 210q0 -50 24 -80q23 -30 64 -30q62 0 82 64q6 18 6 46v315q0 50 -24 80
q-23 30 -64 30q-62 0 -82 -64q-6 -18 -6 -46v-315zM42 210v315q0 53 14 91q48 127 194 127t194 -127q14 -38 14 -91v-315q0 -53 -14 -91q-48 -127 -194 -127t-194 127q-14 38 -14 91z" />
    <glyph glyph-name="ohungarumlaut" unicode="&#x151;" 
d="M257 611q24 26 48 55l46 56q24 29 48 55l72 -67q-12 -13 -52 -51l-53 -50q-31 -29 -51 -51zM87 611q24 26 48 55l46 56q24 29 48 55l72 -67q-12 -13 -52 -51l-53 -50q-31 -29 -51 -51zM162 220q0 -56 24 -88t64 -32q62 0 82 70q6 21 6 50v90q0 56 -24 88t-64 32
q-62 0 -82 -70q-6 -21 -6 -50v-90zM42 220v90q0 59 14 95q32 86 107 117q38 16 87 16q145 0 194 -133q14 -39 14 -95v-90q0 -59 -14 -95q-32 -86 -107 -117q-38 -16 -87 -16q-145 0 -194 133q-14 39 -14 95z" />
    <glyph glyph-name="OE" unicode="&#x152;" 
d="M154 210q0 -80 56 -108q17 -8 40 -8v547q-44 0 -70 -31t-26 -85v-315zM50 210v315q0 51 14 88q29 77 102 107q37 15 84 15h200v-108h-96v-176h72v-108h-72v-235h96v-108h-200q-47 0 -84 15q-73 30 -102 107q-14 37 -14 88z" />
    <glyph glyph-name="oe" unicode="&#x153;" 
d="M302 320h60v78q0 46 -30 46t-30 -46v-78zM138 132q0 -46 30 -46t30 46v266q0 46 -30 46t-30 -46v-266zM34 132v266q0 34 9 58q32 82 125 82q50 0 82 -24q32 24 82 24q93 0 125 -82q9 -24 9 -58v-186h-164v-80q0 -30 15 -41q7 -5 16 -5q14 0 22 9.5t8 24.5h104
q0 -39 -18.5 -68.5t-48.5 -44.5q-28 -15 -67 -15q-49 0 -83 24q-32 -24 -82 -24q-93 0 -125 82q-9 24 -9 58z" />
    <glyph glyph-name="Racute" unicode="&#x154;" 
d="M172 816q24 26 48 55l46 56q24 29 48 55l72 -67q-12 -13 -52 -51l-53 -50q-31 -29 -51 -51zM170 386h74q43 0 69 33q25 33 25 88q0 83 -54 112q-16 8 -40 8h-74v-241zM50 0v735h194q51 0 90 -16q124 -53 124 -212q0 -151 -113 -208q65 -97 95 -179q24 -66 24 -120h-120
q0 46 -20 99q-29 79 -105 179h-49v-278h-120z" />
    <glyph glyph-name="racute" unicode="&#x155;" 
d="M172 611q24 26 48 55l46 56q24 29 48 55l72 -67q-12 -13 -52 -51l-53 -50q-31 -29 -51 -51zM110 0v530h120v-66q36 73 105 74h2q43 0 78 -25.5t52 -62.5l-109 -44q-17 24 -48 24q-34 0 -57 -32t-23 -88v-310h-120z" />
    <glyph glyph-name="Rcommaaccent" unicode="&#x156;" 
d="M186 -189q25 26 35 65q-23 12 -23 46q0 24 14 38t38 14t38 -14t14 -38v-1q0 -64 -28 -113q-14 -26 -34 -46zM170 386h74q43 0 69 33q25 33 25 88q0 83 -54 112q-16 8 -40 8h-74v-241zM50 0v735h194q51 0 90 -16q124 -53 124 -212q0 -151 -113 -208q65 -97 95 -179
q24 -66 24 -120h-120q0 46 -20 99q-29 79 -105 179h-49v-278h-120z" />
    <glyph glyph-name="rcommaaccent" unicode="&#x157;" 
d="M186 -189q25 26 35 65q-23 12 -23 46q0 24 14 38t38 14t38 -14t14 -38v-1q0 -64 -28 -113q-14 -26 -34 -46zM110 0v530h120v-66q36 73 105 74h2q43 0 78 -25.5t52 -62.5l-109 -44q-17 24 -48 24q-34 0 -57 -32t-23 -88v-310h-120z" />
    <glyph glyph-name="Rcaron" unicode="&#x158;" 
d="M64 917l74 63q23 -26 55 -67l57 -74l57 74q32 41 55 67l74 -63l-45 -51l-41 -43l-22.5 -25l-23.5 -26h-108l-23.5 26l-22.5 25l-41 43zM170 386h74q43 0 69 33q25 33 25 88q0 83 -54 112q-16 8 -40 8h-74v-241zM50 0v735h194q51 0 90 -16q124 -53 124 -212
q0 -151 -113 -208q65 -97 95 -179q24 -66 24 -120h-120q0 46 -20 99q-29 79 -105 179h-49v-278h-120z" />
    <glyph glyph-name="rcaron" unicode="&#x159;" 
d="M64 712l74 63q23 -26 55 -67l57 -74l57 74q32 41 55 67l74 -63l-45 -51l-41 -43l-22.5 -25l-23.5 -26h-108l-23.5 26l-22.5 25l-41 43zM110 0v530h120v-66q36 73 105 74h2q43 0 78 -25.5t52 -62.5l-109 -44q-17 24 -48 24q-34 0 -57 -32t-23 -88v-310h-120z" />
    <glyph glyph-name="Sacute" unicode="&#x15a;" 
d="M172 816q24 26 48 55l46 56q24 29 48 55l72 -67q-12 -13 -52 -51l-53 -50q-31 -29 -51 -51zM49 155l120 9q4 -46 51 -60q16 -4 28 -4q60 0 78 50q18 53 -29 109q-21 25 -65 57q-98 70 -118 92q-57 61 -64 134q-7 82 50 142q57 59 152 59q127 0 179 -95q17 -29 20 -68
l-120 -9q-4 46 -51 60q-16 4 -28 4q-60 0 -78 -50q-18 -53 29 -109q21 -25 65 -57q98 -70 118 -92q57 -61 64 -134q7 -82 -50 -142q-57 -59 -152 -59q-127 0 -179 96q-17 30 -20 67z" />
    <glyph glyph-name="sacute" unicode="&#x15b;" 
d="M172 611q24 26 48 55l46 56q24 29 48 55l72 -67q-12 -13 -52 -51l-53 -50q-31 -29 -51 -51zM49 110l111 41q21 -51 87 -51q59 0 77 29q6 9 6 19q0 25 -26 43q-23 15 -47 20l-34 6.5t-39 8.5q-82 20 -116 84q-18 33 -18 72q0 68 51 110q54 46 152 46q73 0 124.5 -31.5
t73.5 -86.5l-111 -41q-21 51 -87 51q-59 0 -77 -29q-6 -9 -6 -19q0 -25 26 -43q23 -15 47 -20l34 -6.5t39 -8.5q82 -20 116 -84q18 -33 18 -72q0 -68 -51 -110q-54 -46 -152 -46q-73 0 -124.5 31.5t-73.5 86.5z" />
    <glyph glyph-name="Scircumflex" unicode="&#x15c;" 
d="M64 831l23 25.5l22 24.5l41 44l22.5 25l23.5 26h108l23.5 -26l22.5 -25l41 -44l22 -24.5l23 -25.5l-74 -63q-23 26 -55 67l-57 74l-57 -74q-32 -41 -55 -67zM49 155l120 9q4 -46 51 -60q16 -4 28 -4q60 0 78 50q18 53 -29 109q-21 25 -65 57q-98 70 -118 92
q-57 61 -64 134q-7 82 50 142q57 59 152 59q127 0 179 -95q17 -29 20 -68l-120 -9q-4 46 -51 60q-16 4 -28 4q-60 0 -78 -50q-18 -53 29 -109q21 -25 65 -57q98 -70 118 -92q57 -61 64 -134q7 -82 -50 -142q-57 -59 -152 -59q-127 0 -179 96q-17 30 -20 67z" />
    <glyph glyph-name="scircumflex" unicode="&#x15d;" 
d="M49 110l111 41q21 -51 87 -51q59 0 77 29q6 9 6 19q0 25 -26 43q-23 15 -47 20l-34 6.5t-39 8.5q-82 20 -116 84q-18 33 -18 72q0 68 51 110q54 46 152 46q73 0 124.5 -31.5t73.5 -86.5l-111 -41q-21 51 -87 51q-59 0 -77 -29q-6 -9 -6 -19q0 -25 26 -43q23 -15 47 -20
l34 -6.5t39 -8.5q82 -20 116 -84q18 -33 18 -72q0 -68 -51 -110q-54 -46 -152 -46q-73 0 -124.5 31.5t-73.5 86.5zM64 626l23 25.5l22 24.5l41 44l22.5 25l23.5 26h108l23.5 -26l22.5 -25l41 -44l22 -24.5l23 -25.5l-74 -63q-23 26 -55 67l-57 74l-57 -74q-32 -41 -55 -67z
" />
    <glyph glyph-name="Scedilla" unicode="&#x15e;" 
d="M150 -134h100q19 0 19 17t-19 17h-44v100h88v-27q64 -21 64 -89.5t-63 -90.5q-21 -7 -45 -7h-100v80zM49 155l120 9q4 -46 51 -60q16 -4 28 -4q60 0 78 50q18 53 -29 109q-21 25 -65 57q-98 70 -118 92q-57 61 -64 134q-7 82 50 142q57 59 152 59q127 0 179 -95
q17 -29 20 -68l-120 -9q-4 46 -51 60q-16 4 -28 4q-60 0 -78 -50q-18 -53 29 -109q21 -25 65 -57q98 -70 118 -92q57 -61 64 -134q7 -82 -50 -142q-57 -59 -152 -59q-127 0 -179 96q-17 30 -20 67z" />
    <glyph glyph-name="scedilla" unicode="&#x15f;" 
d="M150 -134h100q19 0 19 17t-19 17h-44v100h88v-27q64 -21 64 -89.5t-63 -90.5q-21 -7 -45 -7h-100v80zM49 110l111 41q21 -51 87 -51q59 0 77 29q6 9 6 19q0 25 -26 43q-23 15 -47 20l-34 6.5t-39 8.5q-82 20 -116 84q-18 33 -18 72q0 68 51 110q54 46 152 46
q73 0 124.5 -31.5t73.5 -86.5l-111 -41q-21 51 -87 51q-59 0 -77 -29q-6 -9 -6 -19q0 -25 26 -43q23 -15 47 -20l34 -6.5t39 -8.5q82 -20 116 -84q18 -33 18 -72q0 -68 -51 -110q-54 -46 -152 -46q-73 0 -124.5 31.5t-73.5 86.5z" />
    <glyph glyph-name="Scaron" unicode="&#x160;" 
d="M64 917l74 63q23 -26 55 -67l57 -74l57 74q32 41 55 67l74 -63l-45 -51l-41 -43l-22.5 -25l-23.5 -26h-108l-23.5 26l-22.5 25l-41 43zM49 155l120 9q4 -46 51 -60q16 -4 28 -4q60 0 78 50q18 53 -29 109q-21 25 -65 57q-98 70 -118 92q-57 61 -64 134q-7 82 50 142
q57 59 152 59q127 0 179 -95q17 -29 20 -68l-120 -9q-4 46 -51 60q-16 4 -28 4q-60 0 -78 -50q-18 -53 29 -109q21 -25 65 -57q98 -70 118 -92q57 -61 64 -134q7 -82 -50 -142q-57 -59 -152 -59q-127 0 -179 96q-17 30 -20 67z" />
    <glyph glyph-name="scaron" unicode="&#x161;" 
d="M64 712l74 63q23 -26 55 -67l57 -74l57 74q32 41 55 67l74 -63l-45 -51l-41 -43l-22.5 -25l-23.5 -26h-108l-23.5 26l-22.5 25l-41 43zM49 110l111 41q21 -51 87 -51q59 0 77 29q6 9 6 19q0 25 -26 43q-23 15 -47 20l-34 6.5t-39 8.5q-82 20 -116 84q-18 33 -18 72
q0 68 51 110q54 46 152 46q73 0 124.5 -31.5t73.5 -86.5l-111 -41q-21 51 -87 51q-59 0 -77 -29q-6 -9 -6 -19q0 -25 26 -43q23 -15 47 -20l34 -6.5t39 -8.5q82 -20 116 -84q18 -33 18 -72q0 -68 -51 -110q-54 -46 -152 -46q-73 0 -124.5 31.5t-73.5 86.5z" />
    <glyph glyph-name="Tcommaaccent" unicode="&#x162;" 
d="M150 -134h100q19 0 19 17t-19 17h-44v100h88v-27q64 -21 64 -89.5t-63 -90.5q-21 -7 -45 -7h-100v80zM50 627v108h400v-108h-140v-627h-120v627h-140z" />
    <glyph glyph-name="tcommaaccent" unicode="&#x163;" 
d="M150 -134h100q19 0 19 17t-19 17h-44v100h88v-27q64 -21 64 -89.5t-63 -90.5q-21 -7 -45 -7h-100v80zM49 422v108h91v205h120v-205h139v-108h-139v-229q0 -42 11 -68q12 -25 29 -25h1q22 0 33 30q6 15 8 39l119 -14q-6 -45 -29.5 -86t-55.5 -59t-76 -18q-73 0 -117 54
q-33 42 -41 104q-2 20 -2 43v229h-91z" />
    <glyph glyph-name="Tcaron" unicode="&#x164;" 
d="M64 917l74 63q23 -26 55 -67l57 -74l57 74q32 41 55 67l74 -63l-45 -51l-41 -43l-22.5 -25l-23.5 -26h-108l-23.5 26l-22.5 25l-41 43zM50 627v108h400v-108h-140v-627h-120v627h-140z" />
    <glyph glyph-name="tcaron" unicode="&#x165;" 
d="M386 605q25 26 35 65q-23 12 -23 46q0 24 14 38t38 14t38 -14t14 -38v-1q0 -64 -28 -113q-14 -26 -34 -46zM49 422v108h91v205h120v-205h139v-108h-139v-229q0 -42 11 -68q12 -25 29 -25h1q22 0 33 30q6 15 8 39l119 -14q-6 -45 -29.5 -86t-55.5 -59t-76 -18
q-73 0 -117 54q-33 42 -41 104q-2 20 -2 43v229h-91z" />
    <glyph glyph-name="Tbar" unicode="&#x166;" 
d="M50 627v108h400v-108h-140v-257h100v-78h-100v-292h-120v292h-100v78h100v257h-140z" />
    <glyph glyph-name="tbar" unicode="&#x167;" 
d="M49 422v108h91v205h120v-205h139v-108h-139v-65h105v-78h-105v-86q0 -42 11 -68q12 -25 29 -25h1q22 0 33 30q6 15 8 39l119 -14q-6 -45 -29.5 -86t-55.5 -59t-76 -18q-73 0 -117 54q-33 42 -41 104q-2 20 -2 43v86h-55v78h55v65h-91z" />
    <glyph glyph-name="Utilde" unicode="&#x168;" 
d="M60 828q42 90 81 120q26 20 53 20q19 0 36 -8.5t26 -18t21 -25.5l15 -20q13 -15 14 -16q20 17 54 88l80 -38q-42 -90 -81 -120q-26 -20 -53 -20q-19 0 -36 8.5t-26 18t-21 25.5l-15 20q-10 12 -14 15q-21 -18 -54 -87zM50 210v525h120v-525q0 -78 47 -102q16 -8 33 -8
q56 0 74 64q6 20 6 46v525h120v-525q0 -53 -14 -91q-47 -127 -186 -127t-186 127q-14 38 -14 91z" />
    <glyph glyph-name="utilde" unicode="&#x169;" 
d="M60 623q42 90 81 120q26 20 53 20q19 0 36 -8.5t26 -18t21 -25.5l15 -20q13 -15 14 -16q20 17 54 88l80 -38q-42 -90 -81 -120q-26 -20 -53 -20q-19 0 -36 8.5t-26 18t-21 25.5l-15 20q-10 12 -14 15q-21 -18 -54 -87zM50 220v310h120v-310q0 -53 22 -88q20 -32 58 -32
q55 0 74 70q6 21 6 50v310h120v-530h-120v54q-43 -62 -118 -62t-118 62q-44 62 -44 166z" />
    <glyph glyph-name="Umacron" unicode="&#x16a;" 
d="M100 846v88h300v-88h-300zM50 210v525h120v-525q0 -78 47 -102q16 -8 33 -8q56 0 74 64q6 20 6 46v525h120v-525q0 -53 -14 -91q-47 -127 -186 -127t-186 127q-14 38 -14 91z" />
    <glyph glyph-name="umacron" unicode="&#x16b;" 
d="M100 641v88h300v-88h-300zM50 220v310h120v-310q0 -53 22 -88q20 -32 58 -32q55 0 74 70q6 21 6 50v310h120v-530h-120v54q-43 -62 -118 -62t-118 62q-44 62 -44 166z" />
    <glyph glyph-name="Ubreve" unicode="&#x16c;" 
d="M81 949h98q0 -72 71 -72t71 72h98q0 -94 -79 -138q-41 -22 -90 -22q-101 0 -147 76q-22 37 -22 84zM50 210v525h120v-525q0 -78 47 -102q16 -8 33 -8q56 0 74 64q6 20 6 46v525h120v-525q0 -53 -14 -91q-47 -127 -186 -127t-186 127q-14 38 -14 91z" />
    <glyph glyph-name="ubreve" unicode="&#x16d;" 
d="M81 744h98q0 -72 71 -72t71 72h98q0 -94 -79 -138q-41 -22 -90 -22q-101 0 -147 76q-22 37 -22 84zM50 220v310h120v-310q0 -53 22 -88q20 -32 58 -32q55 0 74 70q6 21 6 50v310h120v-530h-120v54q-43 -62 -118 -62t-118 62q-44 62 -44 166z" />
    <glyph glyph-name="Uring" unicode="&#x16e;" 
d="M213 861q0 -17 10 -27.5t27 -10.5t27 10.5t10 27.5q0 37 -37 37t-37 -37zM144 861q0 75 62 98q18 7 44 7q76 0 98 -61q8 -21 8 -44q0 -76 -62 -99q-18 -7 -44 -7q-75 0 -98 62q-8 21 -8 44zM50 210v525h120v-525q0 -78 47 -102q16 -8 33 -8q56 0 74 64q6 20 6 46v525h120
v-525q0 -53 -14 -91q-47 -127 -186 -127t-186 127q-14 38 -14 91z" />
    <glyph glyph-name="uring" unicode="&#x16f;" 
d="M213 656q0 -17 10 -27.5t27 -10.5t27 10.5t10 27.5q0 37 -37 37t-37 -37zM144 656q0 75 62 98q18 7 44 7q76 0 98 -61q8 -21 8 -44q0 -76 -62 -99q-18 -7 -44 -7q-75 0 -98 62q-8 21 -8 44zM50 220v310h120v-310q0 -53 22 -88q20 -32 58 -32q55 0 74 70q6 21 6 50v310
h120v-530h-120v54q-43 -62 -118 -62t-118 62q-44 62 -44 166z" />
    <glyph glyph-name="Uhungarumlaut" unicode="&#x170;" 
d="M257 816q24 26 48 55l46 56q24 29 48 55l72 -67q-12 -13 -52 -51l-53 -50q-31 -29 -51 -51zM87 816q24 26 48 55l46 56q24 29 48 55l72 -67q-12 -13 -52 -51l-53 -50q-31 -29 -51 -51zM50 210v525h120v-525q0 -78 47 -102q16 -8 33 -8q56 0 74 64q6 20 6 46v525h120v-525
q0 -53 -14 -91q-47 -127 -186 -127t-186 127q-14 38 -14 91z" />
    <glyph glyph-name="uhungarumlaut" unicode="&#x171;" 
d="M257 611q24 26 48 55l46 56q24 29 48 55l72 -67q-12 -13 -52 -51l-53 -50q-31 -29 -51 -51zM87 611q24 26 48 55l46 56q24 29 48 55l72 -67q-12 -13 -52 -51l-53 -50q-31 -29 -51 -51zM50 220v310h120v-310q0 -53 22 -88q20 -32 58 -32q55 0 74 70q6 21 6 50v310h120
v-530h-120v54q-43 -62 -118 -62t-118 62q-44 62 -44 166z" />
    <glyph glyph-name="Uogonek" unicode="&#x172;" 
d="M152 -38q4 26 35 44q22 12 39 12h24v-18q-20 0 -20 -38q0 -18 12.5 -28t32.5 -10h60v-98h-60q-39 0 -70 20t-45 51q-14 32 -8 65zM50 210v525h120v-525q0 -78 47 -102q16 -8 33 -8q56 0 74 64q6 20 6 46v525h120v-525q0 -53 -14 -91q-47 -127 -186 -127t-186 127
q-14 38 -14 91z" />
    <glyph glyph-name="uogonek" unicode="&#x173;" 
d="M308 -38q4 26 35 44q22 12 39 12h24v-18q-20 0 -20 -38q0 -18 12.5 -28t32.5 -10h60v-98h-60q-39 0 -70 20t-45 51q-14 32 -8 65zM50 220v310h120v-310q0 -53 22 -88q20 -32 58 -32q55 0 74 70q6 21 6 50v310h120v-530h-120v54q-43 -62 -118 -62t-118 62q-44 62 -44 166z
" />
    <glyph glyph-name="Wcircumflex" unicode="&#x174;" 
d="M64 831l23 25.5l22 24.5l41 44l22.5 25l23.5 26h108l23.5 -26l22.5 -25l41 -44l22 -24.5l23 -25.5l-74 -63q-23 26 -55 67l-57 74l-57 -74q-32 -41 -55 -67zM50 551v184h120v-184q0 -55 5 -357q24 112 43 222q3 16 3 25h58q0 -9 3 -25q17 -105 43 -222q5 202 5 357v184
h120v-184q0 -59 -9 -135q-16 -145 -75 -416h-58q-34 149 -58 273q-24 -124 -58 -273h-58q-44 206 -63 331q-12 80 -19 158q-2 21 -2 62z" />
    <glyph glyph-name="wcircumflex" unicode="&#x175;" 
d="M50 398v132h120v-132q0 -84 4 -258q25 81 37 130q10 38 10 48h58q0 -5 3 -17q19 -78 44 -161q4 174 4 258v132h120v-132q0 -44 -9 -98q-19 -117 -75 -300h-58l-58 197l-58 -197h-58q-44 147 -63 238q-12 56 -19 114q-2 15 -2 46zM64 626l23 25.5l22 24.5l41 44l22.5 25
l23.5 26h108l23.5 -26l22.5 -25l41 -44l22 -24.5l23 -25.5l-74 -63q-23 26 -55 67l-57 74l-57 -74q-32 -41 -55 -67z" />
    <glyph glyph-name="Ycircumflex" unicode="&#x176;" 
d="M64 831l23 25.5l22 24.5l41 44l22.5 25l23.5 26h108l23.5 -26l22.5 -25l41 -44l22 -24.5l23 -25.5l-74 -63q-23 26 -55 67l-57 74l-57 -74q-32 -41 -55 -67zM50 691v44h120v-44q0 -69 28 -150q12 -32 22 -52l30 -61l30 61q37 75 47 151q3 24 3 51v44h120v-44
q0 -88 -35 -186q-9 -24 -27 -63l-78 -159v-283h-120v283l-78 159q-45 92 -58 187q-4 25 -4 62z" />
    <glyph glyph-name="ycircumflex" unicode="&#x177;" 
d="M50 493v37h120v-37q0 -19 14 -72q8 -31 40 -129l31 -91l27 91q34 116 45 172q3 18 3 29v37h120v-37q0 -14 -13 -83q-10 -50 -40 -149l-88 -300q-14 -51 -24 -100q-3 -18 -3 -29v-37h-120v37q0 14 13 83q5 23 22 87l-86 256q-39 113 -57 201q-4 20 -4 34zM64 626l23 25.5
l22 24.5l41 44l22.5 25l23.5 26h108l23.5 -26l22.5 -25l41 -44l22 -24.5l23 -25.5l-74 -63q-23 26 -55 67l-57 74l-57 -74q-32 -41 -55 -67z" />
    <glyph glyph-name="Ydieresis" unicode="&#x178;" 
d="M277 890q0 34 19.5 53.5t53.5 19.5t53.5 -19.5t19.5 -53.5t-19.5 -53.5t-53.5 -19.5t-53.5 19.5t-19.5 53.5zM77 890q0 34 19.5 53.5t53.5 19.5t53.5 -19.5t19.5 -53.5t-19.5 -53.5t-53.5 -19.5t-53.5 19.5t-19.5 53.5zM50 691v44h120v-44q0 -69 28 -150q12 -32 22 -52
l30 -61l30 61q37 75 47 151q3 24 3 51v44h120v-44q0 -88 -35 -186q-9 -24 -27 -63l-78 -159v-283h-120v283l-78 159q-45 92 -58 187q-4 25 -4 62z" />
    <glyph glyph-name="Zacute" unicode="&#x179;" 
d="M172 816q24 26 48 55l46 56q24 29 48 55l72 -67q-12 -13 -52 -51l-53 -50q-31 -29 -51 -51zM50 0v108l276 519h-276v108h400v-108l-276 -519h276v-108h-400z" />
    <glyph glyph-name="zacute" unicode="&#x17a;" 
d="M172 611q24 26 48 55l46 56q24 29 48 55l72 -67q-12 -13 -52 -51l-53 -50q-31 -29 -51 -51zM50 0v108l270 314h-270v108h400v-108l-270 -314h270v-108h-400z" />
    <glyph glyph-name="Zdotaccent" unicode="&#x17b;" 
d="M170 890q0 37 21 58.5t59 21.5t59 -21.5t21 -58.5t-21 -58.5t-59 -21.5t-59 21.5t-21 58.5zM50 0v108l276 519h-276v108h400v-108l-276 -519h276v-108h-400z" />
    <glyph glyph-name="zdotaccent" unicode="&#x17c;" 
d="M170 685q0 37 21 58.5t59 21.5t59 -21.5t21 -58.5t-21 -58.5t-59 -21.5t-59 21.5t-21 58.5zM50 0v108l270 314h-270v108h400v-108l-270 -314h270v-108h-400z" />
    <glyph glyph-name="Zcaron" unicode="&#x17d;" 
d="M64 917l74 63q23 -26 55 -67l57 -74l57 74q32 41 55 67l74 -63l-45 -51l-41 -43l-22.5 -25l-23.5 -26h-108l-23.5 26l-22.5 25l-41 43zM50 0v108l276 519h-276v108h400v-108l-276 -519h276v-108h-400z" />
    <glyph glyph-name="zcaron" unicode="&#x17e;" 
d="M64 712l74 63q23 -26 55 -67l57 -74l57 74q32 41 55 67l74 -63l-45 -51l-41 -43l-22.5 -25l-23.5 -26h-108l-23.5 26l-22.5 25l-41 43zM50 0v108l270 314h-270v108h400v-108l-270 -314h270v-108h-400z" />
    <glyph glyph-name="longs" unicode="&#x17f;" 
d="M184 0v615q0 55 12 81q32 70 136 78q14 1 82 1v-108q-9 0 -29 1.5t-29 1.5q-52 0 -52 -55v-615h-120z" />
    <glyph glyph-name="uni0180" unicode="&#x180;" 
d="M170 220q0 -53 22 -88q22 -32 58 -32h1q60 0 81 70q6 21 6 50v90q0 85 -51 112q-15 8 -36 8h-1q-55 -1 -74 -70q-6 -21 -6 -50v-90zM15 583v78h35v74h120v-74h80v-78h-80v-107q43 62 118 62h1q78 0 123 -62q46 -61 46 -166v-90q0 -105 -46 -166q-45 -62 -123 -62h-1
q-75 0 -118 62v-54h-120v583h-35z" />
    <glyph glyph-name="uni0181" unicode="&#x181;" 
d="M170 436h52q42 0 66 26q25 25 25 70q0 66 -53 88q-17 7 -38 7h-52v-191zM170 108h84q38 0 61 30q23 29 23 80q0 77 -49 103q-13 7 -35 7h-84v-220zM-61 565q-2 76 30 124q30 46 81 46h172q51 0 88 -14q123 -48 123 -189q0 -86 -47 -139q72 -59 72 -175q0 -152 -119 -203
q-35 -15 -85 -15h-204v661q-8 0 -12 -6q-17 -26 -17 -88z" />
    <glyph glyph-name="uni0182" unicode="&#x182;" 
d="M170 108h51q52 0 85 33q32 32 32 88q0 85 -68 113q-18 8 -49 8h-51v-242zM50 0v735h360v-108h-240v-169h51q60 0 99 -16q138 -53 138 -213t-138 -213q-39 -16 -99 -16h-171z" />
    <glyph glyph-name="uni0183" unicode="&#x183;" 
d="M170 220q0 -53 22 -88q22 -32 58 -32h1q60 0 81 70q6 21 6 50v90q0 85 -51 112q-15 8 -36 8h-1q-55 -1 -74 -70q-6 -21 -6 -50v-90zM50 0v735h360v-108h-240v-151q43 62 118 62h1q78 0 123 -62q46 -61 46 -166v-90q0 -105 -46 -166q-45 -62 -123 -62h-1q-75 0 -118 62
v-54h-120z" />
    <glyph glyph-name="uni0184" unicode="&#x184;" 
d="M170 108h51q52 0 85 33q32 32 32 88q0 85 -68 113q-18 8 -49 8h-51v-242zM-58 627l108 108h120v-277h51q60 0 99 -16q138 -53 138 -213t-138 -213q-39 -16 -99 -16h-171v519z" />
    <glyph glyph-name="uni0185" unicode="&#x185;" 
d="M170 220q0 -53 22 -88q22 -32 58 -32h1q60 0 81 70q6 21 6 50v90q0 85 -51 112q-15 8 -36 8h-1q-55 -1 -74 -70q-6 -21 -6 -50v-90zM-58 627l108 108h120v-259q43 62 118 62h1q78 0 123 -62q46 -61 46 -166v-90q0 -105 -46 -166q-45 -62 -123 -62h-1q-75 0 -118 62v-54
h-120v519z" />
    <glyph glyph-name="uni0186" unicode="&#x186;" 
d="M49 155l119 16q4 -31 25 -51t54 -20q40 0 62 32q21 29 21 78v315q0 49 -21 78q-22 32 -62 32q-38 0 -59 -26q-17 -20 -20 -45l-119 16q7 46 33.5 83.5t65.5 57.5q44 22 99 22q95 0 152 -63q29 -34 41 -72q10 -33 10 -83v-315q0 -50 -10 -83q-11 -35 -35.5 -65t-55.5 -47
q-43 -23 -102 -23q-93 0 -148 60q-41 44 -50 103z" />
    <glyph glyph-name="uni0187" unicode="&#x187;" 
d="M450 586l1 -6l-119 -16q-4 31 -25 51t-54 20q-40 0 -62 -32q-21 -29 -21 -78v-315q0 -49 21 -78q22 -32 62 -32q38 0 59 26q17 20 20 45l119 -16q-7 -46 -33.5 -83.5t-65.5 -57.5q-44 -22 -99 -22q-95 0 -152 64q-30 34 -41 71q-10 33 -10 83v315q0 50 10 83
q11 35 35.5 65t55.5 47q43 23 102 23q44 0 77 -12v4q0 58 9 90q28 93 131 113q30 6 90 6v-108q-58 0 -82 -21q-28 -24 -28 -80v-149z" />
    <glyph glyph-name="uni0188" unicode="&#x188;" 
d="M42 220v90q0 51 10 86q11 37 36.5 68.5t57.5 49.5q44 24 104 24q47 0 80 -13v5q0 58 9 90q28 93 131 113q30 6 90 6v-108q-58 0 -82 -21q-28 -24 -28 -80v-150q0 -1 0.5 -2.5t0.5 -2.5l-118 -19q-5 32 -26.5 53t-56.5 21q-42 0 -66 -35q-22 -32 -22 -85v-90q0 -53 22 -85
q24 -35 66 -35q39 0 62 28q17 20 21 46l118 -19q-8 -45 -35 -83t-66 -58q-41 -22 -100 -22q-98 0 -156 66q-30 35 -42 76q-10 35 -10 86z" />
    <glyph glyph-name="uni0189" unicode="&#x189;" 
d="M170 108h49q27 0 46 12q65 42 65 164v168q0 121 -65 163q-19 12 -46 12h-49v-213h89v-78h-89v-228zM15 336v78h35v321h169q55 0 96 -20q86 -42 119 -145q16 -49 16 -118v-168q0 -70 -16 -119q-33 -103 -119 -145q-41 -20 -96 -20h-169v336h-35z" />
    <glyph glyph-name="uni018A" unicode="&#x18a;" 
d="M170 108h49q27 0 46 12q65 42 65 164v168q0 121 -65 163q-19 12 -46 12h-49v-519zM-61 565q-2 76 30 124q30 46 81 46h169q55 0 96 -20q86 -42 119 -145q16 -49 16 -118v-168q0 -70 -16 -119q-33 -103 -119 -145q-41 -20 -96 -20h-169v661q-8 0 -12 -6q-17 -26 -17 -88z
" />
    <glyph glyph-name="uni018B" unicode="&#x18b;" 
d="M162 229q0 -85 68 -113q18 -8 49 -8h51v242h-51q-53 0 -85 -32t-32 -89zM42 229q0 160 138 213q39 16 99 16h51v169h-240v108h360v-735h-171q-60 0 -99 16q-138 53 -138 213z" />
    <glyph glyph-name="uni018C" unicode="&#x18c;" 
d="M162 220q0 -85 51 -112q15 -8 36 -8h1q55 1 74 70q6 21 6 50v90q0 53 -22 88q-22 32 -58 32h-1q-60 0 -81 -70q-6 -21 -6 -50v-90zM42 220v90q0 105 46 166q45 62 123 62h1q75 0 118 -62v151h-272v108h392v-735h-120v54q-43 -62 -118 -62h-1q-78 0 -123 62
q-46 61 -46 166z" />
    <glyph glyph-name="uni018D" unicode="&#x18d;" 
d="M162 232q0 -43 16 -65.5t50 -32.5q14 -4 22 -5t26 -4t26 -4q36 33 36 111v87q0 51 -24 81q-23 30 -64 30q-62 0 -82 -65q-6 -19 -6 -46v-87zM42 232v87q0 53 14 91q49 128 194 128t194 -128q14 -38 14 -91v-87q0 -44 -14 -76q-21 -44 -61 -72l1 -1q50 -48 50 -125
q0 -120 -106 -159q-33 -12 -71 -12q-81 0 -177 49v108q34 -18 83 -33.5t86 -15.5h1q30 0 47 16.5t17 46.5q0 46 -37 59q-5 2 -26 4.5t-27 3.5q-44 9 -78 24q-87 36 -101 127q-3 20 -3 56z" />
    <glyph glyph-name="uni018E" unicode="&#x18e;" 
d="M50 0v108h255v176h-201v108h201v235h-255v108h375v-735h-375z" />
    <glyph glyph-name="uni018F" unicode="&#x18f;" 
d="M162 220q0 -56 24 -88t64 -32q62 0 82 70q6 21 6 50v113h-176v-113zM42 220v221h296v74q0 53 -24 85q-27 35 -71 35q-64 0 -85 -57l-113 37q26 74 99 108q43 20 99 20q101 0 161 -66q31 -34 44 -75q10 -30 10 -87v-295q0 -59 -14 -95q-32 -86 -107 -117q-38 -16 -87 -16
q-145 0 -194 133q-14 39 -14 95z" />
    <glyph glyph-name="uni0190" unicode="&#x190;" 
d="M50 210q-1 105 58 164q-59 58 -58 158q1 131 105 182q45 21 105 21q68 0 117.5 -29.5t73.5 -80.5l-108 -47q-25 49 -83 49q-43 0 -66 -25.5t-24 -70.5q-2 -69 47 -95q15 -7 33 -7h60v-108h-60q-35 0 -58 -30q-15 -20 -20 -53.5t3 -64.5q19 -65 85 -65q61 0 83 48l108 -46
q-24 -51 -73.5 -80.5t-117.5 -29.5q-101 0 -157 61q-52 56 -53 149z" />
    <glyph glyph-name="uni0191" unicode="&#x191;" 
d="M-35 -101q59 0 83 21q27 23 27 80v735h375v-108h-255v-176h201v-108h-201v-343q0 -58 -9 -90q-28 -93 -131 -113q-30 -6 -90 -6v108z" />
    <glyph glyph-name="florin" unicode="&#x192;" 
d="M75 422v108h115v50q0 58 10 87q29 86 132 103q32 5 88 5v-108q-58 0 -80 -15q-30 -20 -30 -72v-50h115v-108h-115v-422q0 -58 -10 -87q-29 -86 -132 -103q-32 -5 -88 -5v108q58 0 80 15q30 20 30 72v422h-115z" />
    <glyph glyph-name="uni0193" unicode="&#x193;" 
d="M450 586l1 -6l-119 -16q-5 32 -26.5 51.5t-56.5 19.5q-41 0 -65 -32q-22 -29 -22 -78v-315q0 -77 51 -102q18 -8 36 -8h1q56 0 74 64q6 20 6 46v91h-80v108h200v-199q0 -53 -14 -91q-47 -127 -186 -127h-1q-144 0 -193 127q-14 38 -14 91v315q0 50 10 83q11 35 36 65
t57 47q44 23 104 23q48 0 81 -13v5q0 58 9 90q28 93 131 113q30 6 90 6v-108q-58 0 -82 -21q-28 -24 -28 -80v-149z" />
    <glyph glyph-name="uni0194" unicode="&#x194;" 
d="M229 -100q0 -27 21 -27t21 27q1 66 -21 181q-12 -65 -17 -111q-4 -40 -4 -70zM42 735h120q52 -154 88 -281q15 59 63 204q13 43 25 77h120q-94 -239 -156 -448q0 -2 -2 -5.5t-2 -5.5q51 -205 59 -344q3 -50 -7 -78q-22 -59 -100 -59t-100 59q-11 28 -4 113q10 124 56 309
q-52 183 -160 459z" />
    <glyph glyph-name="uni0195" unicode="&#x195;" 
d="M42 0v735h104v-219q24 22 59 22h1q67 0 90 -82q6 -24 6 -58v-266q0 -33 15 -43q5 -3 11 -3q26 0 26 46v398h104v-398q0 -34 -9 -58q-31 -82 -121 -82t-121 82q-9 24 -9 58v266q0 33 -15 43q-5 3 -11 3q-26 0 -26 -46v-398h-104z" />
    <glyph glyph-name="uni0196" unicode="&#x196;" 
d="M75 627v108h235v-580q0 -47 41 -47h83v-108h-83q-37 0 -67 11q-60 22 -83 79q-11 26 -11 65v472h-115z" />
    <glyph glyph-name="uni0197" unicode="&#x197;" 
d="M119 343v78h262v-78h-262zM120 0v108h70v519h-70v108h260v-108h-70v-519h70v-108h-260z" />
    <glyph glyph-name="uni0198" unicode="&#x198;" 
d="M50 0v526q0 58 9 90q28 93 131 113q30 6 90 6v-108q-58 0 -82 -21q-28 -24 -28 -80v-79q66 93 103 163q25 47 37 89q6 19 6 36h126q0 -15 -7 -41q-13 -44 -46 -103q-32 -56 -88 -136q77 -158 115 -268q29 -84 37 -148q3 -21 3 -39h-120q0 49 -19 121q-26 100 -81 234
q-1 2 -1.5 4.5t-1.5 4.5l-63 -75v-289h-120z" />
    <glyph glyph-name="uni0199" unicode="&#x199;" 
d="M50 0v526q0 58 9 90q28 93 131 113q30 6 90 6v-108q-58 0 -82 -21q-28 -24 -28 -80v-192q63 59 105 114q23 30 36 59q5 11 5 23h126q0 -11 -7 -30q-13 -33 -46 -74q-36 -48 -86 -96q95 -144 130 -232q15 -38 20 -69q3 -15 3 -29h-120q0 32 -18 84q-27 75 -87 177
q-29 -26 -61 -52v-209h-120z" />
    <glyph glyph-name="uni019A" unicode="&#x19a;" 
d="M119 343v78h262v-78h-262zM75 0v108h122v519h-108v108h228v-627h108v-108h-350z" />
    <glyph glyph-name="uni019B" unicode="&#x19b;" 
d="M50 0v37q0 21 15 85q10 40 46 150l55 165l-40 -21l-32 57l101 50l2 5q-23 87 -32 137q-3 14 -3 33v37h120v-37q0 -16 12 -72q4 -20 12 -48l68 34l32 -56l-82 -40q4 -12 10.5 -34.5l29 -98.5l33.5 -114q33 -111 50 -199q3 -14 3 -33v-37h-120v37q0 16 -12 72
q-3 13 -36 129l-27 91l-31 -91q-36 -105 -51 -172q-3 -12 -3 -29v-37h-120z" />
    <glyph glyph-name="uni019C" unicode="&#x19c;" 
d="M42 165v570h104v-570q0 -34 7 -58q5 -14 13 -19q4 -2 6 -2q7 0 11 6q9 9 13 40q2 18 2 33v570h104v-570q0 -34 7 -58q5 -14 13 -19q4 -2 6 -2q5 0 11 6q9 9 13 40q2 18 2 33v570h104v-735h-104v20q-19 -28 -58 -28q-48 0 -75 53q-27 -53 -75 -53h-1q-47 0 -75 47t-28 126
z" />
    <glyph glyph-name="uni019D" unicode="&#x19d;" 
d="M-60 -101q58 0 82 21q28 24 28 80v735h126l175 -547q-1 9 -5 32q-16 113 -16 221v294h120v-735h-126l-175 547q1 -11 5 -33q16 -113 16 -220v-294q0 -58 -9 -90q-28 -93 -131 -113q-30 -6 -90 -6v108z" />
    <glyph glyph-name="uni019E" unicode="&#x19e;" 
d="M50 0v530h120v-64q42 72 122 72q72 0 115 -62q43 -63 43 -166v-515h-120v515q0 53 -22 88q-20 32 -58 32q-55 0 -74 -70q-6 -21 -6 -50v-310h-120z" />
    <glyph glyph-name="uni019F" unicode="&#x19f;" 
d="M162 407h176v118q0 50 -24 80q-23 30 -64 30q-62 0 -82 -64q-6 -18 -6 -46v-118zM162 210q0 -50 24 -80q23 -30 64 -30q62 0 82 64q6 18 6 46v118h-176v-118zM42 210v315q0 53 14 91q48 127 194 127t194 -127q14 -38 14 -91v-315q0 -53 -14 -91q-48 -127 -194 -127
t-194 127q-14 38 -14 91z" />
    <glyph glyph-name="Ohorn" unicode="&#x1a0;" 
d="M347 706q63 15 95 40q-35 17 -35 60q0 31 17.5 48.5t48.5 17.5t48.5 -17.5t17.5 -48.5q0 -76 -64 -121q-41 -29 -112 -46zM162 210q0 -50 24 -80q23 -30 64 -30q62 0 82 64q6 18 6 46v315q0 50 -24 80q-23 30 -64 30q-62 0 -82 -64q-6 -18 -6 -46v-315zM42 210v315
q0 53 14 91q48 127 194 127t194 -127q14 -38 14 -91v-315q0 -53 -14 -91q-48 -127 -194 -127t-194 127q-14 38 -14 91z" />
    <glyph glyph-name="ohorn" unicode="&#x1a1;" 
d="M347 501q63 15 95 40q-35 17 -35 60q0 31 17.5 48.5t48.5 17.5t48.5 -17.5t17.5 -48.5q0 -76 -64 -121q-41 -29 -112 -46zM162 220q0 -56 24 -88t64 -32q62 0 82 70q6 21 6 50v90q0 56 -24 88t-64 32q-62 0 -82 -70q-6 -21 -6 -50v-90zM42 220v90q0 59 14 95
q32 86 107 117q38 16 87 16q145 0 194 -133q14 -39 14 -95v-90q0 -59 -14 -95q-32 -86 -107 -117q-38 -16 -87 -16q-145 0 -194 133q-14 39 -14 95z" />
    <glyph glyph-name="uni01A2" unicode="&#x1a2;" 
d="M138 132q0 -46 34 -46t34 46v471q0 46 -34 46t-34 -46v-471zM34 132v471q0 34 10 58q33 82 128 82q71 0 107 -44q43 6 67 36l16 -6v6h104v-940h-104v829q-28 -13 -52 -17v-475q0 -37 -9 -58q-33 -82 -128.5 -82t-128.5 82q-10 24 -10 58z" />
    <glyph glyph-name="uni01A3" unicode="&#x1a3;" 
d="M138 132q0 -46 34 -46t34 46v266q0 46 -34 46t-34 -46v-266zM34 132v266q0 34 10 58q33 82 128 82q71 0 107 -44q43 6 67 36l16 -6v6h104v-735h-104v624q-28 -13 -52 -17v-270q0 -37 -9 -58q-33 -82 -128.5 -82t-128.5 82q-10 24 -10 58z" />
    <glyph glyph-name="uni01A4" unicode="&#x1a4;" 
d="M182 386h62q43 0 69 33q25 33 25 88q0 83 -54 112q-16 8 -40 8h-62v-241zM-48 565q-2 76 30 124q30 46 80 46h182q51 0 90 -16q124 -53 124 -212.5t-124 -212.5q-39 -16 -90 -16h-62v-278h-120v661q-8 0 -12 -6q-16 -25 -16 -88z" />
    <glyph glyph-name="uni01A5" unicode="&#x1a5;" 
d="M170 220q0 -53 22 -88q22 -32 58 -32h1q60 0 81 70q6 21 6 50v90q0 85 -51 112q-15 8 -36 8h-1q-55 -1 -74 -70q-6 -21 -6 -50v-90zM50 -205v720q0 55 9 86q11 37 36 68.5t57 49.5q42 24 102 24q92 0 148 -61q38 -43 49 -102l-118 -18q-5 32 -25 52.5t-54 20.5
q-40 0 -63 -35q-21 -30 -21 -85v-39q43 62 118 62h1q78 0 123 -62q46 -61 46 -166v-90q0 -105 -46 -166q-45 -62 -123 -62h-1q-75 0 -118 62v-259h-120z" />
    <glyph glyph-name="uni01A6" unicode="&#x1a6;" 
d="M170 287h79q41 0 65 31q24 30 24 84q0 79 -52 107q-16 8 -37 8h-79v-230zM50 0v735h120v-110h79q50 0 87 -16q122 -53 122 -207q0 -142 -101 -198q56 -63 82 -114q25 -50 25 -90h-120q0 29 -19 63q-28 51 -99 116h-56v-179h-120z" />
    <glyph glyph-name="uni01A7" unicode="&#x1a7;" 
d="M49 580q7 74 66 121q53 42 133 42q95 0 152 -59q57 -60 50 -142q-7 -73 -64 -134q-20 -22 -118 -92q-44 -32 -65 -57q-47 -58 -29 -109q18 -50 78 -50q50 0 71 38q6 10 8 26l120 -9q-7 -74 -66 -121q-53 -42 -133 -42q-95 0 -152 59q-57 60 -50 142q7 73 64 134
q20 22 118 92q44 32 65 57q47 58 29 109q-18 50 -78 50q-50 0 -71 -37q-6 -10 -8 -27z" />
    <glyph glyph-name="uni01A8" unicode="&#x1a8;" 
d="M49 420q22 55 73.5 86.5t124.5 31.5q147 0 190 -95q29 -66 -2 -133q-32 -68 -112 -88q-22 -3 -37 -5.5t-36 -5.5q-62 -9 -77 -43q-8 -19 -2.5 -34.5t19.5 -22.5q21 -11 63 -11q68 0 87 51l111 -41q-22 -55 -73.5 -86.5t-124.5 -31.5q-147 0 -190 95q-29 66 2 133
q32 68 112 88q22 3 37 5.5t36 5.5q62 9 77 43q8 19 2.5 34.5t-19.5 22.5q-21 11 -63 11q-68 0 -87 -51z" />
    <glyph glyph-name="uni01A9" unicode="&#x1a9;" 
d="M50 0v108l160 260l-160 259v108h400v-108h-276l160 -259l-160 -260h276v-108h-400z" />
    <glyph glyph-name="uni01AA" unicode="&#x1aa;" 
d="M159 641q0 -31 28 -31h3v31q0 6 -0.5 12.5t-0.5 10.5q0 10 -6 10q-3 0 -7 -4l-9 -6q-8 -6 -8 -23zM90 641q0 67 57 87q21 7 40 7h3q82 0 112 -55q8 -16 8 -39v-641q0 -46 30 -74q31 -27 75 -27h5v-108h-11q-96 0 -157 56q-48 44 -59 108q-3 16 -3 45v547h-3q-69 0 -90 55
q-7 21 -7 39z" />
    <glyph glyph-name="uni01AB" unicode="&#x1ab;" 
d="M49 422v108h91v205h120v-205h139v-108h-139v-229q0 -42 11 -68q12 -25 29 -25h1q22 0 33 30q6 15 8 39l119 -14v-155q0 -58 -9 -90q-28 -93 -131 -113q-30 -6 -90 -6v108q59 0 83 21q27 24 27 77q-22 -5 -41 -5q-73 0 -117 54q-33 42 -41 104q-2 20 -2 43v229h-91z" />
    <glyph glyph-name="uni01AC" unicode="&#x1ac;" 
d="M50 565q-2 76 30 124q30 46 81 46h289v-108h-140v-627h-120v661h-29q-7 0 -12 -6q-17 -26 -17 -88z" />
    <glyph glyph-name="uni01AD" unicode="&#x1ad;" 
d="M49 422v108h91q0 58 9 90q28 93 131 113q30 6 90 6v-108q-58 0 -82 -21q-28 -24 -28 -80h139v-108h-139v-229q0 -42 11 -68q12 -25 29 -25h1q22 0 33 30q6 15 8 39l119 -14q-6 -45 -29.5 -86t-55.5 -59t-76 -18q-73 0 -117 54q-33 42 -41 104q-2 20 -2 43v229h-91z" />
    <glyph glyph-name="uni01AE" unicode="&#x1ae;" 
d="M50 627v108h400v-108h-140v-627q0 -56 28 -80q24 -21 82 -21v-108q-60 0 -90 6q-103 20 -131 113q-9 32 -9 90v627h-140z" />
    <glyph glyph-name="Uhorn" unicode="&#x1af;" 
d="M347 706q63 15 95 40q-35 17 -35 60q0 31 17.5 48.5t48.5 17.5t48.5 -17.5t17.5 -48.5q0 -76 -64 -121q-41 -29 -112 -46zM50 210v525h120v-525q0 -78 47 -102q16 -8 33 -8q56 0 74 64q6 20 6 46v525h120v-525q0 -53 -14 -91q-47 -127 -186 -127t-186 127q-14 38 -14 91z
" />
    <glyph glyph-name="uhorn" unicode="&#x1b0;" 
d="M347 501q63 15 95 40q-35 17 -35 60q0 31 17.5 48.5t48.5 17.5t48.5 -17.5t17.5 -48.5q0 -76 -64 -121q-41 -29 -112 -46zM50 220v310h120v-310q0 -53 22 -88q20 -32 58 -32q55 0 74 70q6 21 6 50v310h120v-530h-120v54q-43 -62 -118 -62t-118 62q-44 62 -44 166z" />
    <glyph glyph-name="uni01B1" unicode="&#x1b1;" 
d="M50 210v305q0 70 42 112h-42v108h160v-108q-20 -2 -29 -30q-11 -34 -11 -82v-305q0 -78 47 -102q16 -8 33 -8q56 0 74 64q6 20 6 46v305q0 48 -11 82q-9 28 -29 30v108h160v-108h-42q42 -42 42 -112v-305q0 -53 -14 -91q-47 -127 -186 -127t-186 127q-14 38 -14 91z" />
    <glyph glyph-name="uni01B2" unicode="&#x1b2;" 
d="M50 210v525h120v-525q0 -78 47 -102q16 -8 33 -8q56 0 74 64q6 20 6 46v316q0 51 -14 73q-18 28 -66 28v108q54 0 84 -8q88 -25 110 -117q6 -28 6 -84v-316q0 -53 -14 -91q-47 -127 -186 -127t-186 127q-14 38 -14 91z" />
    <glyph glyph-name="uni01B3" unicode="&#x1b3;" 
d="M50 691v44h120v-44q0 -69 28 -150q12 -32 22 -52l19 -39q24 80 33 125q9 43 12 50q31 100 155 109q13 1 68 1v-108q-45 0 -65 -6q-47 -14 -56 -65q-7 -42 -15 -70l-6 -20t-5 -20q-26 -97 -50 -152v-294h-120v283l-78 159q-45 92 -58 187q-4 25 -4 62z" />
    <glyph glyph-name="uni01B4" unicode="&#x1b4;" 
d="M50 493v37h120v-37q0 -23 13 -72q8 -34 39 -130l28 -89l1 6q26 113 38 146q28 81 74 131q23 25 51 35t78 10v-108q-12 1 -21 1q-11 0 -18 -10q-44 -71 -85 -229q-34 -133 -45 -181q-22 -92 -23 -95q-18 -65 -18 -81v-32h-120v36q2 31 22 106l17 69l-12 -3l-82 255
q-32 99 -53 201q-4 20 -4 34z" />
    <glyph glyph-name="uni01B5" unicode="&#x1b5;" 
d="M119 343v78h262v-78h-262zM50 0v108l276 519h-276v108h400v-108l-276 -519h276v-108h-400z" />
    <glyph glyph-name="uni01B6" unicode="&#x1b6;" 
d="M119 237v78h262v-78h-262zM50 0v108l270 314h-270v108h400v-108l-270 -314h270v-108h-400z" />
    <glyph glyph-name="uni01B7" unicode="&#x1b7;" 
d="M49 110l109 46q22 -48 80 -48q43 0 69 33q23 29 23 80q0 77 -47 104q-13 8 -33 8h-120v108l160 186h-240v108h370v-108l-160 -186q44 -1 74 -15q117 -52 116 -206q-1 -142 -106 -197q-46 -23 -106 -23q-86 0 -142 48q-30 26 -47 62z" />
    <glyph glyph-name="uni01B8" unicode="&#x1b8;" 
d="M50 220q-1 154 116 206q30 14 74 15l-160 186v108h370v-108h-240l160 -186v-108h-120q-35 0 -58 -30q-15 -20 -20 -56t3 -68q18 -71 87 -71q58 0 80 48l109 -46q-52 -110 -189 -110q-102 0 -159 64q-53 59 -53 156z" />
    <glyph glyph-name="uni01B9" unicode="&#x1b9;" 
d="M50 15q-1 154 116 206q30 14 74 15l-160 186v108h370v-108h-240l160 -186v-108h-120q-35 0 -58 -30q-15 -20 -20 -56t3 -68q18 -71 87 -71q58 0 80 48l109 -46q-52 -110 -189 -110q-102 0 -159 64q-53 59 -53 156z" />
    <glyph glyph-name="uni01BA" unicode="&#x1ba;" 
d="M50 -59q0 102 93 136q27 10 67 10h20q47 0 73 15q27 16 27 42q0 40 -47 54q-12 4 -33 4h-120v108l160 112h-240v108h370v-108l-160 -112v-1q86 -1 136 -44q54 -45 54 -121.5t-59 -120.5t-161 -44h-20q-40 0 -40 -38t40 -38h240v-108h-240q-40 0 -67 10q-93 34 -93 136z
" />
    <glyph glyph-name="uni01BB" unicode="&#x1bb;" 
d="M25 343v78h450v-78h-450zM49 580q7 46 33.5 83.5t65.5 57.5q44 22 99 22q96 0 152 -64q57 -64 51 -155q-5 -77 -59 -151q-26 -33 -113 -119q-61 -61 -85 -113q-7 -13 -12 -33h269v-108h-400v1q0 65 6 101q16 93 94 176l20 20.5t22.5 22.5l29.5 29q47 46 72 83
q36 53 37 102q3 61 -42 89q-17 11 -42 11q-38 0 -59 -26q-17 -20 -20 -45z" />
    <glyph glyph-name="uni01BC" unicode="&#x1bc;" 
d="M49 155l118 22q6 -33 25.5 -55t52.5 -22q41 0 64 39q15 25 20 67.5t-4 79.5q-14 56 -65 73q-18 6 -50 6h-130v370h345v-108h-225v-154h10q65 0 96 -10q68 -19 105.5 -79t38.5 -148q1 -76 -26 -132t-76 -86q-43 -26 -103 -26q-92 0 -147 63q-37 41 -49 100z" />
    <glyph glyph-name="uni01BD" unicode="&#x1bd;" 
d="M49 155l120 8q3 -30 24.5 -46.5t55.5 -16.5q60 0 77 41q12 27 -2 50.5t-38 34.5q-26 12 -76 12h-130v292h345v-108h-225v-76h10q45 0 83 -6q90 -16 133 -89q43 -72 13 -148q-43 -111 -190 -111q-129 0 -180 95q-17 29 -20 68z" />
    <glyph glyph-name="uni01BE" unicode="&#x1be;" 
d="M49 155l120 7q2 -30 24.5 -46t56.5 -16q42 0 64 17t16 56q-7 37 -31 67l-42.5 50l-36.5 43q-8 12 -14 25h-61v79h45v93h120v-93h45v-79h-25q4 -9 11 -17l32 -38.5l36 -44.5q37 -45 41 -98q5 -71 -50 -119q-57 -49 -150 -49q-130 0 -181 95q-17 29 -20 68z" />
    <glyph glyph-name="uni01BF" unicode="&#x1bf;" 
d="M170 17q99 95 142 190q24 53 26 105q1 38 -12 67.5t-37 42.5q-13 8 -33 8h-2q-32 0 -58 -24q-16 -13 -26 -37v-352zM50 -205v735h120v-11q43 19 88 19q87 0 144 -62t56 -166q-2 -65 -28 -133t-64 -120q-78 -112 -196 -189v-73h-120z" />
    <glyph glyph-name="uni01C0" unicode="&#x1c0;" 
d="M190 -181v1025h120v-1025h-120z" />
    <glyph glyph-name="uni01C1" unicode="&#x1c1;" 
d="M278 -181v1025h120v-1025h-120zM102 -181v1025h120v-1025h-120z" />
    <glyph glyph-name="uni01C2" unicode="&#x1c2;" 
d="M190 -181v1025h120v-1025h-120zM50 395v98h400v-98h-400zM50 170v97h400v-97h-400z" />
    <glyph glyph-name="uni01C3" unicode="&#x1c3;" 
d="M190 266v469h120v-469h-120zM162 80q0 41 23.5 64.5t64.5 23.5t64.5 -23.5t23.5 -64.5t-23.5 -64.5t-64.5 -23.5t-64.5 23.5t-23.5 64.5z" />
    <glyph glyph-name="uni01C4" unicode="&#x1c4;" horiz-adv-x="1000" 
d="M564 917l74 63q23 -26 55 -67l57 -74l57 74q32 41 55 67l74 -63l-45 -51l-41 -43l-22.5 -25l-23.5 -26h-108l-23.5 26l-22.5 25l-41 43zM550 0v108l276 519h-276v108h400v-108l-276 -519h276v-108h-400zM170 108h49q27 0 46 12q65 42 65 164v168q0 121 -65 163
q-19 12 -46 12h-49v-519zM50 0v735h169q55 0 96 -20q86 -42 119 -145q16 -49 16 -118v-168q0 -70 -16 -119q-33 -103 -119 -145q-41 -20 -96 -20h-169z" />
    <glyph glyph-name="uni01C5" unicode="&#x1c5;" horiz-adv-x="1000" 
d="M564 712l74 63q23 -26 55 -67l57 -74l57 74q32 41 55 67l74 -63l-45 -51l-41 -43l-22.5 -25l-23.5 -26h-108l-23.5 26l-22.5 25l-41 43zM550 0v108l270 314h-270v108h400v-108l-270 -314h270v-108h-400zM170 108h49q27 0 46 12q65 42 65 164v168q0 121 -65 163
q-19 12 -46 12h-49v-519zM50 0v735h169q55 0 96 -20q86 -42 119 -145q16 -49 16 -118v-168q0 -70 -16 -119q-33 -103 -119 -145q-41 -20 -96 -20h-169z" />
    <glyph glyph-name="uni01C6" unicode="&#x1c6;" horiz-adv-x="1000" 
d="M564 712l74 63q23 -26 55 -67l57 -74l57 74q32 41 55 67l74 -63l-45 -51l-41 -43l-22.5 -25l-23.5 -26h-108l-23.5 26l-22.5 25l-41 43zM550 0v108l270 314h-270v108h400v-108l-270 -314h270v-108h-400zM162 220q0 -85 51 -112q15 -8 36 -8h1q55 1 74 70q6 21 6 50v90
q0 53 -22 88q-22 32 -58 32h-1q-60 0 -81 -70q-6 -21 -6 -50v-90zM42 220v90q0 105 46 166q45 62 123 62h1q75 0 118 -62v259h120v-735h-120v54q-43 -62 -118 -62h-1q-78 0 -123 62q-46 61 -46 166z" />
    <glyph glyph-name="uni01C7" unicode="&#x1c7;" horiz-adv-x="1000" 
d="M75 0v735h120v-627h255v-108h-375zM523 155l118 19q8 -61 46 -72q10 -2 16 -2q21 0 33 14q22 22 31 73q3 18 3 49v391h-115v108h235v-499q0 -62 -8 -91q-21 -85 -86 -127q-38 -26 -93 -26q-84 0 -135 63q-35 44 -45 100z" />
    <glyph glyph-name="uni01C8" unicode="&#x1c8;" horiz-adv-x="1000" 
d="M700 685q0 37 21 58.5t59 21.5t59 -21.5t21 -58.5t-21 -58.5t-59 -21.5t-59 21.5t-21 58.5zM488 -70l116 26q5 -26 21.5 -43.5t43.5 -17.5q32 0 53 36q18 33 18 87v404h-115v108h235v-512q0 -56 -9 -87q-22 -80 -87 -120q-39 -24 -95 -24q-86 0 -136 57q-33 36 -45 86z
M75 0v735h120v-627h255v-108h-375z" />
    <glyph glyph-name="uni01C9" unicode="&#x1c9;" horiz-adv-x="1000" 
d="M75 0v108h122v519h-108v108h228v-627h108v-108h-350zM700 685q0 37 21 58.5t59 21.5t59 -21.5t21 -58.5t-21 -58.5t-59 -21.5t-59 21.5t-21 58.5zM488 -70l116 26q5 -26 21.5 -43.5t43.5 -17.5q32 0 53 36q18 33 18 87v404h-115v108h235v-512q0 -56 -9 -87
q-22 -80 -87 -120q-39 -24 -95 -24q-86 0 -136 57q-33 36 -45 86z" />
    <glyph glyph-name="uni01CA" unicode="&#x1ca;" horiz-adv-x="1000" 
d="M50 0v735h126l175 -547q-1 9 -5 32q-16 113 -16 221v294h120v-735h-126l-175 547q1 -11 5 -33q16 -113 16 -220v-294h-120zM523 155l118 19q8 -61 46 -72q10 -2 16 -2q21 0 33 14q22 22 31 73q3 18 3 49v391h-115v108h235v-499q0 -62 -8 -91q-21 -85 -86 -127
q-38 -26 -93 -26q-84 0 -135 63q-35 44 -45 100z" />
    <glyph glyph-name="uni01CB" unicode="&#x1cb;" horiz-adv-x="1000" 
d="M700 685q0 37 21 58.5t59 21.5t59 -21.5t21 -58.5t-21 -58.5t-59 -21.5t-59 21.5t-21 58.5zM488 -70l116 26q5 -26 21.5 -43.5t43.5 -17.5q32 0 53 36q18 33 18 87v404h-115v108h235v-512q0 -56 -9 -87q-22 -80 -87 -120q-39 -24 -95 -24q-86 0 -136 57q-33 36 -45 86z
M50 0v735h126l175 -547q-1 9 -5 32q-16 113 -16 221v294h120v-735h-126l-175 547q1 -11 5 -33q16 -113 16 -220v-294h-120z" />
    <glyph glyph-name="uni01CC" unicode="&#x1cc;" horiz-adv-x="1000" 
d="M50 0v530h120v-54q43 62 118 62t118 -62q44 -62 44 -166v-310h-120v310q0 53 -22 88q-20 32 -58 32q-55 0 -74 -70q-6 -21 -6 -50v-310h-120zM700 685q0 37 21 58.5t59 21.5t59 -21.5t21 -58.5t-21 -58.5t-59 -21.5t-59 21.5t-21 58.5zM488 -70l116 26q5 -26 21.5 -43.5
t43.5 -17.5q32 0 53 36q18 33 18 87v404h-115v108h235v-512q0 -56 -9 -87q-22 -80 -87 -120q-39 -24 -95 -24q-86 0 -136 57q-33 36 -45 86z" />
    <glyph glyph-name="uni01CD" unicode="&#x1cd;" 
d="M64 917l74 63q23 -26 55 -67l57 -74l57 74q32 41 55 67l74 -63l-45 -51l-41 -43l-22.5 -25l-23.5 -26h-108l-23.5 26l-22.5 25l-41 43zM188 265h124q-21 139 -62 313q-39 -165 -62 -313zM50 0v74q0 64 16 162q23 147 80 349l44 150h120q66 -216 105 -397q20 -93 31 -189
q4 -33 4 -75v-74h-120v74q0 47 -4 83h-152q-4 -54 -4 -83v-74h-120z" />
    <glyph glyph-name="uni01CE" unicode="&#x1ce;" 
d="M64 712l74 63q23 -26 55 -67l57 -74l57 74q32 41 55 67l74 -63l-45 -51l-41 -43l-22.5 -25l-23.5 -26h-108l-23.5 26l-22.5 25l-41 43zM162 155q0 -28 20.5 -41.5t52.5 -13.5h1q66 0 88 57q6 16 6 41v24h-60q-49 0 -79 -18q-29 -17 -29 -49zM42.5 160.5
q1.5 39.5 15.5 68.5q30 62 117 89q39 12 95 12h60q-1 40 -22 68q-24 32 -66 32q-62 0 -79 -55l-114 35q25 74 97 108q43 20 96 20q97 0 156 -64q30 -31 42 -71q10 -29 10 -83v-320h-120v52q-48 -60 -132 -60q-110 0 -145 96q-12 33 -10.5 72.5z" />
    <glyph glyph-name="uni01CF" unicode="&#x1cf;" 
d="M64 917l74 63q23 -26 55 -67l57 -74l57 74q32 41 55 67l74 -63l-45 -51l-41 -43l-22.5 -25l-23.5 -26h-108l-23.5 26l-22.5 25l-41 43zM120 0v108h70v519h-70v108h260v-108h-70v-519h70v-108h-260z" />
    <glyph glyph-name="uni01D0" unicode="&#x1d0;" 
d="M64 712l74 63q23 -26 55 -67l57 -74l57 74q32 41 55 67l74 -63l-45 -51l-41 -43l-22.5 -25l-23.5 -26h-108l-23.5 26l-22.5 25l-41 43zM75 0v108h122v314h-108v108h228v-422h108v-108h-350z" />
    <glyph glyph-name="uni01D1" unicode="&#x1d1;" 
d="M64 917l74 63q23 -26 55 -67l57 -74l57 74q32 41 55 67l74 -63l-45 -51l-41 -43l-22.5 -25l-23.5 -26h-108l-23.5 26l-22.5 25l-41 43zM162 210q0 -50 24 -80q23 -30 64 -30q62 0 82 64q6 18 6 46v315q0 50 -24 80q-23 30 -64 30q-62 0 -82 -64q-6 -18 -6 -46v-315z
M42 210v315q0 53 14 91q48 127 194 127t194 -127q14 -38 14 -91v-315q0 -53 -14 -91q-48 -127 -194 -127t-194 127q-14 38 -14 91z" />
    <glyph glyph-name="uni01D2" unicode="&#x1d2;" 
d="M64 712l74 63q23 -26 55 -67l57 -74l57 74q32 41 55 67l74 -63l-45 -51l-41 -43l-22.5 -25l-23.5 -26h-108l-23.5 26l-22.5 25l-41 43zM162 220q0 -56 24 -88t64 -32q62 0 82 70q6 21 6 50v90q0 56 -24 88t-64 32q-62 0 -82 -70q-6 -21 -6 -50v-90zM42 220v90q0 59 14 95
q32 86 107 117q38 16 87 16q145 0 194 -133q14 -39 14 -95v-90q0 -59 -14 -95q-32 -86 -107 -117q-38 -16 -87 -16q-145 0 -194 133q-14 39 -14 95z" />
    <glyph glyph-name="uni01D3" unicode="&#x1d3;" 
d="M64 917l74 63q23 -26 55 -67l57 -74l57 74q32 41 55 67l74 -63l-45 -51l-41 -43l-22.5 -25l-23.5 -26h-108l-23.5 26l-22.5 25l-41 43zM50 210v525h120v-525q0 -78 47 -102q16 -8 33 -8q56 0 74 64q6 20 6 46v525h120v-525q0 -53 -14 -91q-47 -127 -186 -127t-186 127
q-14 38 -14 91z" />
    <glyph glyph-name="uni01D4" unicode="&#x1d4;" 
d="M64 712l74 63q23 -26 55 -67l57 -74l57 74q32 41 55 67l74 -63l-45 -51l-41 -43l-22.5 -25l-23.5 -26h-108l-23.5 26l-22.5 25l-41 43zM50 220v310h120v-310q0 -53 22 -88q20 -32 58 -32q55 0 74 70q6 21 6 50v310h120v-530h-120v54q-43 -62 -118 -62t-118 62
q-44 62 -44 166z" />
    <glyph glyph-name="uni01D5" unicode="&#x1d5;" 
d="M277 890q0 34 19.5 53.5t53.5 19.5t53.5 -19.5t19.5 -53.5t-19.5 -53.5t-53.5 -19.5t-53.5 19.5t-19.5 53.5zM77 890q0 34 19.5 53.5t53.5 19.5t53.5 -19.5t19.5 -53.5t-19.5 -53.5t-53.5 -19.5t-53.5 19.5t-19.5 53.5zM50 210v525h120v-525q0 -78 47 -102q16 -8 33 -8
q56 0 74 64q6 20 6 46v525h120v-525q0 -53 -14 -91q-47 -127 -186 -127t-186 127q-14 38 -14 91zM100 1060v88h300v-88h-300z" />
    <glyph glyph-name="uni01D6" unicode="&#x1d6;" 
d="M277 685q0 34 19.5 53.5t53.5 19.5t53.5 -19.5t19.5 -53.5t-19.5 -53.5t-53.5 -19.5t-53.5 19.5t-19.5 53.5zM77 685q0 34 19.5 53.5t53.5 19.5t53.5 -19.5t19.5 -53.5t-19.5 -53.5t-53.5 -19.5t-53.5 19.5t-19.5 53.5zM50 220v310h120v-310q0 -53 22 -88q20 -32 58 -32
q55 0 74 70q6 21 6 50v310h120v-530h-120v54q-43 -62 -118 -62t-118 62q-44 62 -44 166zM100 855v88h300v-88h-300z" />
    <glyph glyph-name="uni01D7" unicode="&#x1d7;" 
d="M277 890q0 34 19.5 53.5t53.5 19.5t53.5 -19.5t19.5 -53.5t-19.5 -53.5t-53.5 -19.5t-53.5 19.5t-19.5 53.5zM77 890q0 34 19.5 53.5t53.5 19.5t53.5 -19.5t19.5 -53.5t-19.5 -53.5t-53.5 -19.5t-53.5 19.5t-19.5 53.5zM50 210v525h120v-525q0 -78 47 -102q16 -8 33 -8
q56 0 74 64q6 20 6 46v525h120v-525q0 -53 -14 -91q-47 -127 -186 -127t-186 127q-14 38 -14 91zM172 1030q24 26 48 55l46 56q24 29 48 55l72 -67q-12 -13 -52 -51l-53 -50q-31 -29 -51 -51z" />
    <glyph glyph-name="uni01D8" unicode="&#x1d8;" 
d="M277 685q0 34 19.5 53.5t53.5 19.5t53.5 -19.5t19.5 -53.5t-19.5 -53.5t-53.5 -19.5t-53.5 19.5t-19.5 53.5zM77 685q0 34 19.5 53.5t53.5 19.5t53.5 -19.5t19.5 -53.5t-19.5 -53.5t-53.5 -19.5t-53.5 19.5t-19.5 53.5zM50 220v310h120v-310q0 -53 22 -88q20 -32 58 -32
q55 0 74 70q6 21 6 50v310h120v-530h-120v54q-43 -62 -118 -62t-118 62q-44 62 -44 166zM172 825q24 26 48 55l46 56q24 29 48 55l72 -67q-12 -13 -52 -51l-53 -50q-31 -29 -51 -51z" />
    <glyph glyph-name="uni01D9" unicode="&#x1d9;" 
d="M64 1131l74 63q23 -26 55 -67l57 -74l57 74q32 41 55 67l74 -63l-45 -51l-41 -43l-22.5 -25l-23.5 -26h-108l-23.5 26l-22.5 25l-41 43zM277 890q0 34 19.5 53.5t53.5 19.5t53.5 -19.5t19.5 -53.5t-19.5 -53.5t-53.5 -19.5t-53.5 19.5t-19.5 53.5zM77 890q0 34 19.5 53.5
t53.5 19.5t53.5 -19.5t19.5 -53.5t-19.5 -53.5t-53.5 -19.5t-53.5 19.5t-19.5 53.5zM50 210v525h120v-525q0 -78 47 -102q16 -8 33 -8q56 0 74 64q6 20 6 46v525h120v-525q0 -53 -14 -91q-47 -127 -186 -127t-186 127q-14 38 -14 91z" />
    <glyph glyph-name="uni01DA" unicode="&#x1da;" 
d="M64 926l74 63q23 -26 55 -67l57 -74l57 74q32 41 55 67l74 -63l-45 -51l-41 -43l-22.5 -25l-23.5 -26h-108l-23.5 26l-22.5 25l-41 43zM277 685q0 34 19.5 53.5t53.5 19.5t53.5 -19.5t19.5 -53.5t-19.5 -53.5t-53.5 -19.5t-53.5 19.5t-19.5 53.5zM77 685q0 34 19.5 53.5
t53.5 19.5t53.5 -19.5t19.5 -53.5t-19.5 -53.5t-53.5 -19.5t-53.5 19.5t-19.5 53.5zM50 220v310h120v-310q0 -53 22 -88q20 -32 58 -32q55 0 74 70q6 21 6 50v310h120v-530h-120v54q-43 -62 -118 -62t-118 62q-44 62 -44 166z" />
    <glyph glyph-name="uni01DB" unicode="&#x1db;" 
d="M277 890q0 34 19.5 53.5t53.5 19.5t53.5 -19.5t19.5 -53.5t-19.5 -53.5t-53.5 -19.5t-53.5 19.5t-19.5 53.5zM77 890q0 34 19.5 53.5t53.5 19.5t53.5 -19.5t19.5 -53.5t-19.5 -53.5t-53.5 -19.5t-53.5 19.5t-19.5 53.5zM50 210v525h120v-525q0 -78 47 -102q16 -8 33 -8
q56 0 74 64q6 20 6 46v525h120v-525q0 -53 -14 -91q-47 -127 -186 -127t-186 127q-14 38 -14 91zM114 1129l72 67q24 -26 48 -55l46 -56q24 -29 48 -55l-58 -53q-20 22 -51 51l-53 50q-40 38 -52 51z" />
    <glyph glyph-name="uni01DC" unicode="&#x1dc;" 
d="M277 685q0 34 19.5 53.5t53.5 19.5t53.5 -19.5t19.5 -53.5t-19.5 -53.5t-53.5 -19.5t-53.5 19.5t-19.5 53.5zM77 685q0 34 19.5 53.5t53.5 19.5t53.5 -19.5t19.5 -53.5t-19.5 -53.5t-53.5 -19.5t-53.5 19.5t-19.5 53.5zM50 220v310h120v-310q0 -53 22 -88q20 -32 58 -32
q55 0 74 70q6 21 6 50v310h120v-530h-120v54q-43 -62 -118 -62t-118 62q-44 62 -44 166zM114 924l72 67q24 -26 48 -55l46 -56q24 -29 48 -55l-58 -53q-20 22 -51 51l-53 50q-40 38 -52 51z" />
    <glyph glyph-name="uni01DD" unicode="&#x1dd;" 
d="M162 210q3 -78 51 -102q15 -8 37 -8q62 0 82 70q5 18 6 40h-176zM42 220v98h296q-1 47 -24 77q-27 35 -71 35q-64 0 -85 -57l-113 37q26 74 99 108q43 20 99 20q101 0 161 -66q30 -33 44 -76q10 -30 10 -86v-90q0 -59 -14 -95q-32 -86 -107 -117q-38 -16 -87 -16
q-145 0 -194 133q-14 39 -14 95z" />
    <glyph glyph-name="uni01DE" unicode="&#x1de;" 
d="M277 890q0 34 19.5 53.5t53.5 19.5t53.5 -19.5t19.5 -53.5t-19.5 -53.5t-53.5 -19.5t-53.5 19.5t-19.5 53.5zM77 890q0 34 19.5 53.5t53.5 19.5t53.5 -19.5t19.5 -53.5t-19.5 -53.5t-53.5 -19.5t-53.5 19.5t-19.5 53.5zM188 265h124q-21 139 -62 313q-39 -165 -62 -313z
M50 0v74q0 64 16 162q23 147 80 349l44 150h120q66 -216 105 -397q20 -93 31 -189q4 -33 4 -75v-74h-120v74q0 47 -4 83h-152q-4 -54 -4 -83v-74h-120zM100 1060v88h300v-88h-300z" />
    <glyph glyph-name="uni01DF" unicode="&#x1df;" 
d="M277 685q0 34 19.5 53.5t53.5 19.5t53.5 -19.5t19.5 -53.5t-19.5 -53.5t-53.5 -19.5t-53.5 19.5t-19.5 53.5zM77 685q0 34 19.5 53.5t53.5 19.5t53.5 -19.5t19.5 -53.5t-19.5 -53.5t-53.5 -19.5t-53.5 19.5t-19.5 53.5zM162 155q0 -28 20.5 -41.5t52.5 -13.5h1
q66 0 88 57q6 16 6 41v24h-60q-49 0 -79 -18q-29 -17 -29 -49zM42.5 160.5q1.5 39.5 15.5 68.5q30 62 117 89q39 12 95 12h60q-1 40 -22 68q-24 32 -66 32q-62 0 -79 -55l-114 35q25 74 97 108q43 20 96 20q97 0 156 -64q30 -31 42 -71q10 -29 10 -83v-320h-120v52
q-48 -60 -132 -60q-110 0 -145 96q-12 33 -10.5 72.5zM100 855v88h300v-88h-300z" />
    <glyph glyph-name="uni01E0" unicode="&#x1e0;" 
d="M170 890q0 37 21 58.5t59 21.5t59 -21.5t21 -58.5t-21 -58.5t-59 -21.5t-59 21.5t-21 58.5zM188 265h124q-21 139 -62 313q-39 -165 -62 -313zM50 0v74q0 64 16 162q23 147 80 349l44 150h120q66 -216 105 -397q20 -93 31 -189q4 -33 4 -75v-74h-120v74q0 47 -4 83h-152
q-4 -54 -4 -83v-74h-120zM100 1060v88h300v-88h-300z" />
    <glyph glyph-name="uni01E1" unicode="&#x1e1;" 
d="M170 685q0 37 21 58.5t59 21.5t59 -21.5t21 -58.5t-21 -58.5t-59 -21.5t-59 21.5t-21 58.5zM162 155q0 -28 20.5 -41.5t52.5 -13.5h1q66 0 88 57q6 16 6 41v24h-60q-49 0 -79 -18q-29 -17 -29 -49zM42.5 160.5q1.5 39.5 15.5 68.5q30 62 117 89q39 12 95 12h60
q-1 40 -22 68q-24 32 -66 32q-62 0 -79 -55l-114 35q25 74 97 108q43 20 96 20q97 0 156 -64q30 -31 42 -71q10 -29 10 -83v-320h-120v52q-48 -60 -132 -60q-110 0 -145 96q-12 33 -10.5 72.5zM100 855v88h300v-88h-300z" />
    <glyph glyph-name="uni01E2" unicode="&#x1e2;" 
d="M170 265h56v325q-38 -189 -56 -325zM50 0v74q0 62 14 162q21 147 70 349q12 50 38 150h278v-108h-119v-176h95v-108h-95v-235h119v-108h-224v171h-67q-5 -52 -5 -97v-74h-104zM100 846v88h300v-88h-300z" />
    <glyph glyph-name="uni01E3" unicode="&#x1e3;" 
d="M302 320h60v78q0 46 -30 46t-30 -46v-78zM138 148q0 -61 30 -62h1q29 0 29 46v100q-59 -17 -60 -84zM34 148q0 127 112 169q26 11 52 12v69q0 46 -27 46q-26 0 -26 -33l-104 -1q0 39 18 68.5t47 44.5q27 15 65 15q47 0 79 -24q32 24 82 24q93 0 125 -82q9 -24 9 -58v-186
h-164v-80q0 -30 15 -41q7 -5 16 -5q14 0 22 9.5t8 24.5h104q0 -39 -18.5 -68.5t-48.5 -44.5q-28 -15 -67 -15q-49 0 -83 24q-32 -24 -81 -24h-1q-62 0 -98 42t-36 114zM100 641v88h300v-88h-300z" />
    <glyph glyph-name="uni01E4" unicode="&#x1e4;" 
d="M42 210v315q0 50 10 83q11 35 36 65t57 47q44 23 104 23q94 0 151 -60q42 -44 51 -103l-119 -16q-5 32 -26.5 51.5t-56.5 19.5q-41 0 -65 -32q-22 -29 -22 -78v-315q0 -77 51 -102q18 -8 36 -8h1q55 0 74 63h-74v78h80v60h-80v108h200v-168h35v-78h-38q-11 -68 -51 -112
q-54 -59 -146 -59h-1q-144 0 -193 127q-14 38 -14 91z" />
    <glyph glyph-name="uni01E5" unicode="&#x1e5;" 
d="M165 -9h85v-79h-71q24 -17 69 -17q68 0 88 38q13 26 2 48q-14 27 -62 27h-59q-34 -2 -52 -17zM162 353q0 -36 21.5 -56t58.5 -20t59 20t22 56t-22 56.5t-59 20.5t-58.5 -20.5t-21.5 -56.5zM25 -9h10q7 42 38 73q-23 32 -23 71q0 54 40 90q-48 50 -48 128q0 84 54 135
q53 50 146 50q34 0 68 -8h152v-108l-30 1q11 -33 11 -70q0 -83 -54 -134q-53 -50 -147 -50q-47 0 -80 11q-8 -23 4 -40t32 -22q8 -2 16 -2h62q46 0 78 -11q70 -22 96 -79q13 -30 12.5 -68.5t-14.5 -68.5q-31 -66 -110 -90q-39 -12 -90 -12q-100 0 -158 47q-39 32 -52 78h-13
v79z" />
    <glyph glyph-name="Gcaron" unicode="&#x1e6;" 
d="M64 917l74 63q23 -26 55 -67l57 -74l57 74q32 41 55 67l74 -63l-45 -51l-41 -43l-22.5 -25l-23.5 -26h-108l-23.5 26l-22.5 25l-41 43zM42 210v315q0 50 10 83q11 35 36 65t57 47q44 23 104 23q94 0 151 -60q42 -44 51 -103l-119 -16q-5 32 -26.5 51.5t-56.5 19.5
q-41 0 -65 -32q-22 -29 -22 -78v-315q0 -77 51 -102q18 -8 36 -8h1q56 0 74 64q6 20 6 46v91h-80v108h200v-199q0 -53 -14 -91q-47 -127 -186 -127h-1q-144 0 -193 127q-14 38 -14 91z" />
    <glyph glyph-name="gcaron" unicode="&#x1e7;" 
d="M64 712l74 63q23 -26 55 -67l57 -74l57 74q32 41 55 67l74 -63l-45 -51l-41 -43l-22.5 -25l-23.5 -26h-108l-23.5 26l-22.5 25l-41 43zM162 353q0 -36 21.5 -56t58.5 -20t59 20t22 56t-22 56.5t-59 20.5t-58.5 -20.5t-21.5 -56.5zM152 -39q-1 -47 56 -61q20 -5 40 -5
q68 0 88 38q13 26 2 48q-14 27 -62 27h-59q-64 -2 -65 -47zM32 -39q0 62 41 103q-23 32 -23 71q0 54 40 90q-48 50 -48 128q0 84 54 135q53 50 146 50q34 0 68 -8h152v-108l-30 1q11 -33 11 -70q0 -83 -54 -134q-53 -50 -147 -50q-47 0 -80 11q-8 -23 4 -40t32 -22
q8 -2 16 -2h62q46 0 78 -11q70 -22 96 -79q13 -30 12.5 -68.5t-14.5 -68.5q-31 -66 -110 -90q-39 -12 -90 -12q-100 0 -158 47q-58 46 -58 127z" />
    <glyph glyph-name="uni01E8" unicode="&#x1e8;" 
d="M64 917l74 63q23 -26 55 -67l57 -74l57 74q32 41 55 67l74 -63l-45 -51l-41 -43l-22.5 -25l-23.5 -26h-108l-23.5 26l-22.5 25l-41 43zM50 0v735h120v-288q66 93 103 163q25 47 37 89q6 19 6 36h126q0 -15 -7 -41q-13 -44 -46 -103q-32 -56 -88 -136q96 -195 132 -323
q15 -51 20 -93q3 -21 3 -39h-120q0 49 -19 121q-26 100 -81 234q-1 2 -1.5 4.5t-1.5 4.5l-63 -75v-289h-120z" />
    <glyph glyph-name="uni01E9" unicode="&#x1e9;" 
d="M64 917l74 63q23 -26 55 -67l57 -74l57 74q32 41 55 67l74 -63l-45 -51l-41 -43l-22.5 -25l-23.5 -26h-108l-23.5 26l-22.5 25l-41 43zM50 0v735h120v-401q63 59 105 114q23 30 36 59q5 11 5 23h126q0 -11 -7 -30q-13 -33 -46 -74q-36 -48 -86 -96q72 -107 112 -191
q30 -64 38 -110q3 -15 3 -29h-120q0 32 -18 84q-27 75 -87 177q-29 -26 -61 -52v-209h-120z" />
    <glyph glyph-name="uni01EA" unicode="&#x1ea;" 
d="M152 -38q4 26 35 44q22 12 39 12h24v-18q-20 0 -20 -38q0 -18 12.5 -28t32.5 -10h60v-98h-60q-39 0 -70 20t-45 51q-14 32 -8 65zM162 210q0 -50 24 -80q23 -30 64 -30q62 0 82 64q6 18 6 46v315q0 50 -24 80q-23 30 -64 30q-62 0 -82 -64q-6 -18 -6 -46v-315zM42 210
v315q0 53 14 91q48 127 194 127t194 -127q14 -38 14 -91v-315q0 -53 -14 -91q-48 -127 -194 -127t-194 127q-14 38 -14 91z" />
    <glyph glyph-name="uni01EB" unicode="&#x1eb;" 
d="M152 -38q4 26 35 44q22 12 39 12h24v-18q-20 0 -20 -38q0 -18 12.5 -28t32.5 -10h60v-98h-60q-39 0 -70 20t-45 51q-14 32 -8 65zM162 220q0 -56 24 -88t64 -32q62 0 82 70q6 21 6 50v90q0 56 -24 88t-64 32q-62 0 -82 -70q-6 -21 -6 -50v-90zM42 220v90q0 59 14 95
q32 86 107 117q38 16 87 16q145 0 194 -133q14 -39 14 -95v-90q0 -59 -14 -95q-32 -86 -107 -117q-38 -16 -87 -16q-145 0 -194 133q-14 39 -14 95z" />
    <glyph glyph-name="uni01EC" unicode="&#x1ec;" 
d="M152 -38q4 26 35 44q22 12 39 12h24v-18q-20 0 -20 -38q0 -18 12.5 -28t32.5 -10h60v-98h-60q-39 0 -70 20t-45 51q-14 32 -8 65zM100 846v88h300v-88h-300zM162 210q0 -50 24 -80q23 -30 64 -30q62 0 82 64q6 18 6 46v315q0 50 -24 80q-23 30 -64 30q-62 0 -82 -64
q-6 -18 -6 -46v-315zM42 210v315q0 53 14 91q48 127 194 127t194 -127q14 -38 14 -91v-315q0 -53 -14 -91q-48 -127 -194 -127t-194 127q-14 38 -14 91z" />
    <glyph glyph-name="uni01ED" unicode="&#x1ed;" 
d="M152 -38q4 26 35 44q22 12 39 12h24v-18q-20 0 -20 -38q0 -18 12.5 -28t32.5 -10h60v-98h-60q-39 0 -70 20t-45 51q-14 32 -8 65zM100 641v88h300v-88h-300zM162 220q0 -56 24 -88t64 -32q62 0 82 70q6 21 6 50v90q0 56 -24 88t-64 32q-62 0 -82 -70q-6 -21 -6 -50v-90z
M42 220v90q0 59 14 95q32 86 107 117q38 16 87 16q145 0 194 -133q14 -39 14 -95v-90q0 -59 -14 -95q-32 -86 -107 -117q-38 -16 -87 -16q-145 0 -194 133q-14 39 -14 95z" />
    <glyph glyph-name="uni01EE" unicode="&#x1ee;" 
d="M64 917l74 63q23 -26 55 -67l57 -74l57 74q32 41 55 67l74 -63l-45 -51l-41 -43l-22.5 -25l-23.5 -26h-108l-23.5 26l-22.5 25l-41 43zM49 110l109 46q22 -48 80 -48q43 0 69 33q23 29 23 80q0 77 -47 104q-13 8 -33 8h-120v108l160 186h-240v108h370v-108l-160 -186
q44 -1 74 -15q117 -52 116 -206q-1 -142 -106 -197q-46 -23 -106 -23q-86 0 -142 48q-30 26 -47 62z" />
    <glyph glyph-name="uni01EF" unicode="&#x1ef;" 
d="M64 712l74 63q23 -26 55 -67l57 -74l57 74q32 41 55 67l74 -63l-45 -51l-41 -43l-22.5 -25l-23.5 -26h-108l-23.5 26l-22.5 25l-41 43zM49 -95l109 46q22 -48 80 -48q43 0 69 33q23 29 23 80q0 77 -47 104q-13 8 -33 8h-120v108l160 186h-240v108h370v-108l-160 -186
q44 -1 74 -15q117 -52 116 -206q-1 -142 -106 -197q-46 -23 -106 -23q-86 0 -142 48q-30 26 -47 62z" />
    <glyph glyph-name="uni01F0" unicode="&#x1f0;" 
d="M94 712l74 63q23 -26 55 -67l57 -74l57 74q32 41 55 67l74 -63l-45 -51l-41 -43l-22.5 -25l-23.5 -26h-108l-23.5 26l-22.5 25l-41 43zM-12 -70l116 26q5 -26 21.5 -43.5t43.5 -17.5q32 0 53 36q18 33 18 87v404h-115v108h235v-512q0 -56 -9 -87q-22 -80 -87 -120
q-39 -24 -95 -24q-86 0 -136 57q-33 36 -45 86z" />
    <glyph glyph-name="uni01F1" unicode="&#x1f1;" horiz-adv-x="1000" 
d="M550 0v108l276 519h-276v108h400v-108l-276 -519h276v-108h-400zM170 108h49q27 0 46 12q65 42 65 164v168q0 121 -65 163q-19 12 -46 12h-49v-519zM50 0v735h169q55 0 96 -20q86 -42 119 -145q16 -49 16 -118v-168q0 -70 -16 -119q-33 -103 -119 -145q-41 -20 -96 -20
h-169z" />
    <glyph glyph-name="uni01F2" unicode="&#x1f2;" horiz-adv-x="1000" 
d="M550 0v108l270 314h-270v108h400v-108l-270 -314h270v-108h-400zM170 108h49q27 0 46 12q65 42 65 164v168q0 121 -65 163q-19 12 -46 12h-49v-519zM50 0v735h169q55 0 96 -20q86 -42 119 -145q16 -49 16 -118v-168q0 -70 -16 -119q-33 -103 -119 -145q-41 -20 -96 -20
h-169z" />
    <glyph glyph-name="uni01F3" unicode="&#x1f3;" horiz-adv-x="1000" 
d="M550 0v108l270 314h-270v108h400v-108l-270 -314h270v-108h-400zM162 220q0 -85 51 -112q15 -8 36 -8h1q55 1 74 70q6 21 6 50v90q0 53 -22 88q-22 32 -58 32h-1q-60 0 -81 -70q-6 -21 -6 -50v-90zM42 220v90q0 105 46 166q45 62 123 62h1q75 0 118 -62v259h120v-735
h-120v54q-43 -62 -118 -62h-1q-78 0 -123 62q-46 61 -46 166z" />
    <glyph glyph-name="uni01F4" unicode="&#x1f4;" 
d="M172 816q24 26 48 55l46 56q24 29 48 55l72 -67q-12 -13 -52 -51l-53 -50q-31 -29 -51 -51zM42 210v315q0 50 10 83q11 35 36 65t57 47q44 23 104 23q94 0 151 -60q42 -44 51 -103l-119 -16q-5 32 -26.5 51.5t-56.5 19.5q-41 0 -65 -32q-22 -29 -22 -78v-315
q0 -77 51 -102q18 -8 36 -8h1q56 0 74 64q6 20 6 46v91h-80v108h200v-199q0 -53 -14 -91q-47 -127 -186 -127h-1q-144 0 -193 127q-14 38 -14 91z" />
    <glyph glyph-name="uni01F5" unicode="&#x1f5;" 
d="M172 611q24 26 48 55l46 56q24 29 48 55l72 -67q-12 -13 -52 -51l-53 -50q-31 -29 -51 -51zM162 353q0 -36 21.5 -56t58.5 -20t59 20t22 56t-22 56.5t-59 20.5t-58.5 -20.5t-21.5 -56.5zM152 -39q-1 -47 56 -61q20 -5 40 -5q68 0 88 38q13 26 2 48q-14 27 -62 27h-59
q-64 -2 -65 -47zM32 -39q0 62 41 103q-23 32 -23 71q0 54 40 90q-48 50 -48 128q0 84 54 135q53 50 146 50q34 0 68 -8h152v-108l-30 1q11 -33 11 -70q0 -83 -54 -134q-53 -50 -147 -50q-47 0 -80 11q-8 -23 4 -40t32 -22q8 -2 16 -2h62q46 0 78 -11q70 -22 96 -79
q13 -30 12.5 -68.5t-14.5 -68.5q-31 -66 -110 -90q-39 -12 -90 -12q-100 0 -158 47q-58 46 -58 127z" />
    <glyph glyph-name="uni01F6" unicode="&#x1f6;" 
d="M42 0v735h104v-313h52v313h104v-603q0 -33 15 -43q5 -3 11 -3q26 0 26 46v398h104v-398q0 -34 -9 -58q-31 -82 -121 -82t-121 82q-9 24 -9 58v182h-52v-314h-104z" />
    <glyph glyph-name="uni01F7" unicode="&#x1f7;" 
d="M170 222q99 95 142 190q24 53 26 105q1 38 -12 67.5t-37 42.5q-13 8 -33 8h-2q-32 0 -58 -24q-16 -13 -26 -37v-352zM50 0v735h120v-11q43 19 88 19q87 0 144 -62t56 -166q-2 -65 -28 -133t-64 -120q-78 -112 -196 -189v-73h-120z" />
    <glyph glyph-name="uni01F8" unicode="&#x1f8;" 
d="M114 915l72 67q24 -26 48 -55l46 -56q24 -29 48 -55l-58 -53q-20 22 -51 51l-53 50q-40 38 -52 51zM50 0v735h126l175 -547q-1 9 -5 32q-16 113 -16 221v294h120v-735h-126l-175 547q1 -11 5 -33q16 -113 16 -220v-294h-120z" />
    <glyph glyph-name="uni01F9" unicode="&#x1f9;" 
d="M50 0v530h120v-54q43 62 118 62t118 -62q44 -62 44 -166v-310h-120v310q0 53 -22 88q-20 32 -58 32q-55 0 -74 -70q-6 -21 -6 -50v-310h-120zM114 710l72 67q24 -26 48 -55l46 -56q24 -29 48 -55l-58 -53q-20 22 -51 51l-53 50q-40 38 -52 51z" />
    <glyph glyph-name="Aringacute" unicode="&#x1fa;" 
d="M213 861q0 -17 10 -27.5t27 -10.5t27 10.5t10 27.5q0 37 -37 37t-37 -37zM144 861q0 75 62 98q18 7 44 7q76 0 98 -61q8 -21 8 -44q0 -76 -62 -99q-18 -7 -44 -7q-75 0 -98 62q-8 21 -8 44zM188 265h124q-21 139 -62 313q-39 -165 -62 -313zM50 0v74q0 64 16 162
q23 147 80 349l44 150h120q66 -216 105 -397q20 -93 31 -189q4 -33 4 -75v-74h-120v74q0 47 -4 83h-152q-4 -54 -4 -83v-74h-120zM172 1030q24 26 48 55l46 56q24 29 48 55l72 -67q-12 -13 -52 -51l-53 -50q-31 -29 -51 -51z" />
    <glyph glyph-name="aringacute" unicode="&#x1fb;" 
d="M213 656q0 -17 10 -27.5t27 -10.5t27 10.5t10 27.5q0 37 -37 37t-37 -37zM144 656q0 75 62 98q18 7 44 7q76 0 98 -61q8 -21 8 -44q0 -76 -62 -99q-18 -7 -44 -7q-75 0 -98 62q-8 21 -8 44zM162 155q0 -28 20.5 -41.5t52.5 -13.5h1q66 0 88 57q6 16 6 41v24h-60
q-49 0 -79 -18q-29 -17 -29 -49zM42.5 160.5q1.5 39.5 15.5 68.5q30 62 117 89q39 12 95 12h60q-1 40 -22 68q-24 32 -66 32q-62 0 -79 -55l-114 35q25 74 97 108q43 20 96 20q97 0 156 -64q30 -31 42 -71q10 -29 10 -83v-320h-120v52q-48 -60 -132 -60q-110 0 -145 96
q-12 33 -10.5 72.5zM172 825q24 26 48 55l46 56q24 29 48 55l72 -67q-12 -13 -52 -51l-53 -50q-31 -29 -51 -51z" />
    <glyph glyph-name="AEacute" unicode="&#x1fc;" 
d="M170 265h56v325q-38 -189 -56 -325zM50 0v74q0 62 14 162q21 147 70 349q12 50 38 150h278v-108h-119v-176h95v-108h-95v-235h119v-108h-224v171h-67q-5 -52 -5 -97v-74h-104zM172 816q24 26 48 55l46 56q24 29 48 55l72 -67q-12 -13 -52 -51l-53 -50q-31 -29 -51 -51z
" />
    <glyph glyph-name="aeacute" unicode="&#x1fd;" 
d="M302 320h60v78q0 46 -30 46t-30 -46v-78zM138 148q0 -61 30 -62h1q29 0 29 46v100q-59 -17 -60 -84zM34 148q0 127 112 169q26 11 52 12v69q0 46 -27 46q-26 0 -26 -33l-104 -1q0 39 18 68.5t47 44.5q27 15 65 15q47 0 79 -24q32 24 82 24q93 0 125 -82q9 -24 9 -58v-186
h-164v-80q0 -30 15 -41q7 -5 16 -5q14 0 22 9.5t8 24.5h104q0 -39 -18.5 -68.5t-48.5 -44.5q-28 -15 -67 -15q-49 0 -83 24q-32 -24 -81 -24h-1q-62 0 -98 42t-36 114zM172 611q24 26 48 55l46 56q24 29 48 55l72 -67q-12 -13 -52 -51l-53 -50q-31 -29 -51 -51z" />
    <glyph glyph-name="Oslashacute" unicode="&#x1fe;" 
d="M194 121q21 -21 56 -21q62 0 82 64q6 18 6 46v257zM162 268l144 346q-21 21 -56 21q-62 0 -82 -64q-6 -18 -6 -46v-257zM41 -22l39 95q-38 55 -38 137v315q0 53 14 91q48 127 194 127q57 0 101 -22l28 66l80 -30l-39 -95q38 -55 38 -137v-315q0 -53 -14 -91
q-48 -127 -194 -127q-57 0 -101 22l-28 -66zM172 816q24 26 48 55l46 56q24 29 48 55l72 -67q-12 -13 -52 -51l-53 -50q-31 -29 -51 -51z" />
    <glyph glyph-name="oslashacute" unicode="&#x1ff;" 
d="M209 110q16 -10 41 -10q62 0 82 70q6 21 6 50v90q0 14 -1 21zM162 220q0 -14 1 -21l128 221q-16 10 -41 10q-62 0 -82 -70q-6 -21 -6 -50v-90zM42 220v90q0 59 14 95q32 86 107 117q38 16 87 16q55 0 97 -20l34 58l75 -39l-43 -75q33 -45 42 -104q3 -18 3 -48v-90
q0 -59 -14 -95q-32 -86 -107 -117q-38 -16 -87 -16q-55 0 -97 20l-34 -58l-75 39l43 75q-33 45 -42 104q-3 18 -3 48zM172 611q24 26 48 55l46 56q24 29 48 55l72 -67q-12 -13 -52 -51l-53 -50q-31 -29 -51 -51z" />
    <glyph glyph-name="uni0200" unicode="&#x200;" 
d="M199 915l72 67q24 -26 48 -55l46 -56q24 -29 48 -55l-58 -53q-20 22 -51 51l-53 50q-40 38 -52 51zM29 915l72 67q24 -26 48 -55l46 -56q24 -29 48 -55l-58 -53q-20 22 -51 51l-53 50q-40 38 -52 51zM188 265h124q-21 139 -62 313q-39 -165 -62 -313zM50 0v74
q0 64 16 162q23 147 80 349l44 150h120q66 -216 105 -397q20 -93 31 -189q4 -33 4 -75v-74h-120v74q0 47 -4 83h-152q-4 -54 -4 -83v-74h-120z" />
    <glyph glyph-name="uni0201" unicode="&#x201;" 
d="M199 710l72 67q24 -26 48 -55l46 -56q24 -29 48 -55l-58 -53q-20 22 -51 51l-53 50q-40 38 -52 51zM29 710l72 67q24 -26 48 -55l46 -56q24 -29 48 -55l-58 -53q-20 22 -51 51l-53 50q-40 38 -52 51zM162 155q0 -28 20.5 -41.5t52.5 -13.5h1q66 0 88 57q6 16 6 41v24h-60
q-49 0 -79 -18q-29 -17 -29 -49zM42.5 160.5q1.5 39.5 15.5 68.5q30 62 117 89q39 12 95 12h60q-1 40 -22 68q-24 32 -66 32q-62 0 -79 -55l-114 35q25 74 97 108q43 20 96 20q97 0 156 -64q30 -31 42 -71q10 -29 10 -83v-320h-120v52q-48 -60 -132 -60q-110 0 -145 96
q-12 33 -10.5 72.5z" />
    <glyph glyph-name="uni0202" unicode="&#x202;" 
d="M81 789q0 95 79 139q39 21 90 21q101 0 147 -76q22 -37 22 -84h-98q0 72 -71 72t-71 -72h-98zM188 265h124q-21 139 -62 313q-39 -165 -62 -313zM50 0v74q0 64 16 162q23 147 80 349l44 150h120q66 -216 105 -397q20 -93 31 -189q4 -33 4 -75v-74h-120v74q0 47 -4 83
h-152q-4 -54 -4 -83v-74h-120z" />
    <glyph glyph-name="uni0203" unicode="&#x203;" 
d="M81 584q0 95 79 139q39 21 90 21q101 0 147 -76q22 -37 22 -84h-98q0 72 -71 72t-71 -72h-98zM162 155q0 -28 20.5 -41.5t52.5 -13.5h1q66 0 88 57q6 16 6 41v24h-60q-49 0 -79 -18q-29 -17 -29 -49zM42.5 160.5q1.5 39.5 15.5 68.5q30 62 117 89q39 12 95 12h60
q-1 40 -22 68q-24 32 -66 32q-62 0 -79 -55l-114 35q25 74 97 108q43 20 96 20q97 0 156 -64q30 -31 42 -71q10 -29 10 -83v-320h-120v52q-48 -60 -132 -60q-110 0 -145 96q-12 33 -10.5 72.5z" />
    <glyph glyph-name="uni0204" unicode="&#x204;" 
d="M199 915l72 67q24 -26 48 -55l46 -56q24 -29 48 -55l-58 -53q-20 22 -51 51l-53 50q-40 38 -52 51zM29 915l72 67q24 -26 48 -55l46 -56q24 -29 48 -55l-58 -53q-20 22 -51 51l-53 50q-40 38 -52 51zM75 0v735h375v-108h-255v-176h201v-108h-201v-235h255v-108h-375z" />
    <glyph glyph-name="uni0205" unicode="&#x205;" 
d="M199 710l72 67q24 -26 48 -55l46 -56q24 -29 48 -55l-58 -53q-20 22 -51 51l-53 50q-40 38 -52 51zM29 710l72 67q24 -26 48 -55l46 -56q24 -29 48 -55l-58 -53q-20 22 -51 51l-53 50q-40 38 -52 51zM162 320h176q-3 78 -51 102q-15 8 -37 8q-62 0 -82 -70q-5 -18 -6 -40
zM42 220v90q0 59 14 95q32 86 107 117q38 16 87 16q145 0 194 -133q14 -39 14 -95v-98h-296q1 -47 24 -77q27 -35 71 -35q64 0 85 57l113 -37q-26 -74 -99 -108q-43 -20 -99 -20q-101 0 -161 66q-30 33 -44 76q-10 30 -10 86z" />
    <glyph glyph-name="uni0206" unicode="&#x206;" 
d="M81 789q0 95 79 139q39 21 90 21q101 0 147 -76q22 -37 22 -84h-98q0 72 -71 72t-71 -72h-98zM75 0v735h375v-108h-255v-176h201v-108h-201v-235h255v-108h-375z" />
    <glyph glyph-name="uni0207" unicode="&#x207;" 
d="M81 584q0 95 79 139q39 21 90 21q101 0 147 -76q22 -37 22 -84h-98q0 72 -71 72t-71 -72h-98zM162 320h176q-3 78 -51 102q-15 8 -37 8q-62 0 -82 -70q-5 -18 -6 -40zM42 220v90q0 59 14 95q32 86 107 117q38 16 87 16q145 0 194 -133q14 -39 14 -95v-98h-296
q1 -47 24 -77q27 -35 71 -35q64 0 85 57l113 -37q-26 -74 -99 -108q-43 -20 -99 -20q-101 0 -161 66q-30 33 -44 76q-10 30 -10 86z" />
    <glyph glyph-name="uni0208" unicode="&#x208;" 
d="M199 915l72 67q24 -26 48 -55l46 -56q24 -29 48 -55l-58 -53q-20 22 -51 51l-53 50q-40 38 -52 51zM29 915l72 67q24 -26 48 -55l46 -56q24 -29 48 -55l-58 -53q-20 22 -51 51l-53 50q-40 38 -52 51zM120 0v108h70v519h-70v108h260v-108h-70v-519h70v-108h-260z" />
    <glyph glyph-name="uni0209" unicode="&#x209;" 
d="M199 710l72 67q24 -26 48 -55l46 -56q24 -29 48 -55l-58 -53q-20 22 -51 51l-53 50q-40 38 -52 51zM29 710l72 67q24 -26 48 -55l46 -56q24 -29 48 -55l-58 -53q-20 22 -51 51l-53 50q-40 38 -52 51zM75 0v108h122v314h-108v108h228v-422h108v-108h-350z" />
    <glyph glyph-name="uni020A" unicode="&#x20a;" 
d="M81 789q0 95 79 139q39 21 90 21q101 0 147 -76q22 -37 22 -84h-98q0 72 -71 72t-71 -72h-98zM120 0v108h70v519h-70v108h260v-108h-70v-519h70v-108h-260z" />
    <glyph glyph-name="uni020B" unicode="&#x20b;" 
d="M81 584q0 95 79 139q39 21 90 21q101 0 147 -76q22 -37 22 -84h-98q0 72 -71 72t-71 -72h-98zM75 0v108h122v314h-108v108h228v-422h108v-108h-350z" />
    <glyph glyph-name="uni020C" unicode="&#x20c;" 
d="M199 915l72 67q24 -26 48 -55l46 -56q24 -29 48 -55l-58 -53q-20 22 -51 51l-53 50q-40 38 -52 51zM29 915l72 67q24 -26 48 -55l46 -56q24 -29 48 -55l-58 -53q-20 22 -51 51l-53 50q-40 38 -52 51zM162 210q0 -50 24 -80q23 -30 64 -30q62 0 82 64q6 18 6 46v315
q0 50 -24 80q-23 30 -64 30q-62 0 -82 -64q-6 -18 -6 -46v-315zM42 210v315q0 53 14 91q48 127 194 127t194 -127q14 -38 14 -91v-315q0 -53 -14 -91q-48 -127 -194 -127t-194 127q-14 38 -14 91z" />
    <glyph glyph-name="uni020D" unicode="&#x20d;" 
d="M199 710l72 67q24 -26 48 -55l46 -56q24 -29 48 -55l-58 -53q-20 22 -51 51l-53 50q-40 38 -52 51zM29 710l72 67q24 -26 48 -55l46 -56q24 -29 48 -55l-58 -53q-20 22 -51 51l-53 50q-40 38 -52 51zM162 220q0 -56 24 -88t64 -32q62 0 82 70q6 21 6 50v90q0 56 -24 88
t-64 32q-62 0 -82 -70q-6 -21 -6 -50v-90zM42 220v90q0 59 14 95q32 86 107 117q38 16 87 16q145 0 194 -133q14 -39 14 -95v-90q0 -59 -14 -95q-32 -86 -107 -117q-38 -16 -87 -16q-145 0 -194 133q-14 39 -14 95z" />
    <glyph glyph-name="uni020E" unicode="&#x20e;" 
d="M81 789q0 95 79 139q39 21 90 21q101 0 147 -76q22 -37 22 -84h-98q0 72 -71 72t-71 -72h-98zM162 210q0 -50 24 -80q23 -30 64 -30q62 0 82 64q6 18 6 46v315q0 50 -24 80q-23 30 -64 30q-62 0 -82 -64q-6 -18 -6 -46v-315zM42 210v315q0 53 14 91q48 127 194 127
t194 -127q14 -38 14 -91v-315q0 -53 -14 -91q-48 -127 -194 -127t-194 127q-14 38 -14 91z" />
    <glyph glyph-name="uni020F" unicode="&#x20f;" 
d="M81 584q0 95 79 139q39 21 90 21q101 0 147 -76q22 -37 22 -84h-98q0 72 -71 72t-71 -72h-98zM162 220q0 -56 24 -88t64 -32q62 0 82 70q6 21 6 50v90q0 56 -24 88t-64 32q-62 0 -82 -70q-6 -21 -6 -50v-90zM42 220v90q0 59 14 95q32 86 107 117q38 16 87 16
q145 0 194 -133q14 -39 14 -95v-90q0 -59 -14 -95q-32 -86 -107 -117q-38 -16 -87 -16q-145 0 -194 133q-14 39 -14 95z" />
    <glyph glyph-name="uni0210" unicode="&#x210;" 
d="M199 915l72 67q24 -26 48 -55l46 -56q24 -29 48 -55l-58 -53q-20 22 -51 51l-53 50q-40 38 -52 51zM29 915l72 67q24 -26 48 -55l46 -56q24 -29 48 -55l-58 -53q-20 22 -51 51l-53 50q-40 38 -52 51zM170 386h74q43 0 69 33q25 33 25 88q0 83 -54 112q-16 8 -40 8h-74
v-241zM50 0v735h194q51 0 90 -16q124 -53 124 -212q0 -151 -113 -208q65 -97 95 -179q24 -66 24 -120h-120q0 46 -20 99q-29 79 -105 179h-49v-278h-120z" />
    <glyph glyph-name="uni0211" unicode="&#x211;" 
d="M199 710l72 67q24 -26 48 -55l46 -56q24 -29 48 -55l-58 -53q-20 22 -51 51l-53 50q-40 38 -52 51zM29 710l72 67q24 -26 48 -55l46 -56q24 -29 48 -55l-58 -53q-20 22 -51 51l-53 50q-40 38 -52 51zM110 0v530h120v-66q36 73 105 74h2q43 0 78 -25.5t52 -62.5l-109 -44
q-17 24 -48 24q-34 0 -57 -32t-23 -88v-310h-120z" />
    <glyph glyph-name="uni0212" unicode="&#x212;" 
d="M81 789q0 95 79 139q39 21 90 21q101 0 147 -76q22 -37 22 -84h-98q0 72 -71 72t-71 -72h-98zM170 386h74q43 0 69 33q25 33 25 88q0 83 -54 112q-16 8 -40 8h-74v-241zM50 0v735h194q51 0 90 -16q124 -53 124 -212q0 -151 -113 -208q65 -97 95 -179q24 -66 24 -120h-120
q0 46 -20 99q-29 79 -105 179h-49v-278h-120z" />
    <glyph glyph-name="uni0213" unicode="&#x213;" 
d="M81 584q0 95 79 139q39 21 90 21q101 0 147 -76q22 -37 22 -84h-98q0 72 -71 72t-71 -72h-98zM110 0v530h120v-66q36 73 105 74h2q43 0 78 -25.5t52 -62.5l-109 -44q-17 24 -48 24q-34 0 -57 -32t-23 -88v-310h-120z" />
    <glyph glyph-name="uni0214" unicode="&#x214;" 
d="M199 915l72 67q24 -26 48 -55l46 -56q24 -29 48 -55l-58 -53q-20 22 -51 51l-53 50q-40 38 -52 51zM29 915l72 67q24 -26 48 -55l46 -56q24 -29 48 -55l-58 -53q-20 22 -51 51l-53 50q-40 38 -52 51zM50 210v525h120v-525q0 -78 47 -102q16 -8 33 -8q56 0 74 64
q6 20 6 46v525h120v-525q0 -53 -14 -91q-47 -127 -186 -127t-186 127q-14 38 -14 91z" />
    <glyph glyph-name="uni0215" unicode="&#x215;" 
d="M199 710l72 67q24 -26 48 -55l46 -56q24 -29 48 -55l-58 -53q-20 22 -51 51l-53 50q-40 38 -52 51zM29 710l72 67q24 -26 48 -55l46 -56q24 -29 48 -55l-58 -53q-20 22 -51 51l-53 50q-40 38 -52 51zM50 220v310h120v-310q0 -53 22 -88q20 -32 58 -32q55 0 74 70
q6 21 6 50v310h120v-530h-120v54q-43 -62 -118 -62t-118 62q-44 62 -44 166z" />
    <glyph glyph-name="uni0216" unicode="&#x216;" 
d="M81 789q0 95 79 139q39 21 90 21q101 0 147 -76q22 -37 22 -84h-98q0 72 -71 72t-71 -72h-98zM50 210v525h120v-525q0 -78 47 -102q16 -8 33 -8q56 0 74 64q6 20 6 46v525h120v-525q0 -53 -14 -91q-47 -127 -186 -127t-186 127q-14 38 -14 91z" />
    <glyph glyph-name="uni0217" unicode="&#x217;" 
d="M81 584q0 95 79 139q39 21 90 21q101 0 147 -76q22 -37 22 -84h-98q0 72 -71 72t-71 -72h-98zM50 220v310h120v-310q0 -53 22 -88q20 -32 58 -32q55 0 74 70q6 21 6 50v310h120v-530h-120v54q-43 -62 -118 -62t-118 62q-44 62 -44 166z" />
    <glyph glyph-name="Scommaaccent" unicode="&#x218;" 
d="M186 -189q25 26 35 65q-23 12 -23 46q0 24 14 38t38 14t38 -14t14 -38v-1q0 -64 -28 -113q-14 -26 -34 -46zM49 155l120 9q4 -46 51 -60q16 -4 28 -4q60 0 78 50q18 53 -29 109q-21 25 -65 57q-98 70 -118 92q-57 61 -64 134q-7 82 50 142q57 59 152 59q127 0 179 -95
q17 -29 20 -68l-120 -9q-4 46 -51 60q-16 4 -28 4q-60 0 -78 -50q-18 -53 29 -109q21 -25 65 -57q98 -70 118 -92q57 -61 64 -134q7 -82 -50 -142q-57 -59 -152 -59q-127 0 -179 96q-17 30 -20 67z" />
    <glyph glyph-name="scommaaccent" unicode="&#x219;" 
d="M186 -189q25 26 35 65q-23 12 -23 46q0 24 14 38t38 14t38 -14t14 -38v-1q0 -64 -28 -113q-14 -26 -34 -46zM49 110l111 41q21 -51 87 -51q59 0 77 29q6 9 6 19q0 25 -26 43q-23 15 -47 20l-34 6.5t-39 8.5q-82 20 -116 84q-18 33 -18 72q0 68 51 110q54 46 152 46
q73 0 124.5 -31.5t73.5 -86.5l-111 -41q-21 51 -87 51q-59 0 -77 -29q-6 -9 -6 -19q0 -25 26 -43q23 -15 47 -20l34 -6.5t39 -8.5q82 -20 116 -84q18 -33 18 -72q0 -68 -51 -110q-54 -46 -152 -46q-73 0 -124.5 31.5t-73.5 86.5z" />
    <glyph glyph-name="uni021A" unicode="&#x21a;" 
d="M186 -189q25 26 35 65q-23 12 -23 46q0 24 14 38t38 14t38 -14t14 -38v-1q0 -64 -28 -113q-14 -26 -34 -46zM50 627v108h400v-108h-140v-627h-120v627h-140z" />
    <glyph glyph-name="uni021B" unicode="&#x21b;" 
d="M186 -189q25 26 35 65q-23 12 -23 46q0 24 14 38t38 14t38 -14t14 -38v-1q0 -64 -28 -113q-14 -26 -34 -46zM49 422v108h91v205h120v-205h139v-108h-139v-229q0 -42 11 -68q12 -25 29 -25h1q22 0 33 30q6 15 8 39l119 -14q-6 -45 -29.5 -86t-55.5 -59t-76 -18
q-73 0 -117 54q-33 42 -41 104q-2 20 -2 43v229h-91z" />
    <glyph glyph-name="uni021C" unicode="&#x21c;" 
d="M41 100q75 3 144 28q91 31 123 66q22 24 22 55v1q0 54 -57 103q-95 -35 -183 -59l-31 104q99 35 169 55q46 14 66 27q52 37 33 92t-80 55q-38 0 -60 -24q-17 -19 -20 -41l-118 18q7 44 34 79.5t65 54.5q42 21 99 21q96 0 152 -61q62 -66 51 -149t-94 -133q40 -18 67 -56
t27 -86v-2q0 -47 -30 -89q-46 -65 -170 -118q-99 -42 -200 -49z" />
    <glyph glyph-name="uni021D" unicode="&#x21d;" 
d="M41 -105q75 3 144 28q91 31 123 66q22 24 22 55v1q0 54 -57 103q-95 -35 -183 -59l-31 104q99 35 169 55q46 14 66 27q52 37 33 92t-80 55q-38 0 -60 -24q-17 -19 -20 -41l-118 18q7 44 34 79.5t65 54.5q42 21 99 21q96 0 152 -61q62 -66 51 -149t-94 -133q40 -18 67 -56
t27 -86v-2q0 -47 -30 -89q-46 -65 -170 -118q-99 -42 -200 -49z" />
    <glyph glyph-name="uni021E" unicode="&#x21e;" 
d="M64 917l74 63q23 -26 55 -67l57 -74l57 74q32 41 55 67l74 -63l-45 -51l-41 -43l-22.5 -25l-23.5 -26h-108l-23.5 26l-22.5 25l-41 43zM50 0v735h120v-306h160v306h120v-735h-120v321h-160v-321h-120z" />
    <glyph glyph-name="uni021F" unicode="&#x21f;" 
d="M64 917l74 63q23 -26 55 -67l57 -74l57 74q32 41 55 67l74 -63l-45 -51l-41 -43l-22.5 -25l-23.5 -26h-108l-23.5 26l-22.5 25l-41 43zM50 0v735h120v-259q43 62 118 62t118 -62q44 -62 44 -166v-310h-120v310q0 53 -22 88q-20 32 -58 32q-55 0 -74 -70q-6 -21 -6 -50
v-310h-120z" />
    <glyph glyph-name="uni0220" unicode="&#x220;" 
d="M50 0v735h120v-49q43 57 116 57q75 0 120 -62q44 -62 44 -166v-720h-120v720q0 56 -23 88q-22 32 -63 32q-52 0 -74 -53v-582h-120z" />
    <glyph glyph-name="uni0221" unicode="&#x221;" 
d="M394.5 108.5q-0.5 -11.5 3.5 -20.5t13 -14q8 -4 13 -4q26 0 26 35.5t-27 35.5h-1q-7 0 -27 -6q0 -15 -0.5 -26.5zM162 212q0 -79 33 -104q11 -8 24 -8q9 0 13 2l32 39q11 31 11 71v106q0 80 -33 104q-11 8 -23 8q-27 0 -42 -30q-15 -29 -15 -82v-106zM42 212v106
q0 156 88 204q30 16 62 16q47 0 83 -31v228h120v-518q15 3 29 3h1q78 0 104 -67q8 -22 8 -47q0 -81 -69 -106q-22 -8 -46 -8h-3q-38 1 -69.5 17t-49.5 42q-2 -2 -4 -5.5t-4 -5.5q-48 -72 -69 -158l-85 20q11 49 30 92q-51 9 -85 58q-41 62 -41 160z" />
    <glyph glyph-name="uni0222" unicode="&#x222;" 
d="M162 210q0 -50 24 -80q23 -30 64 -30q62 0 82 64q6 18 6 46v9q0 50 -24 80q-23 30 -64 30q-62 0 -82 -64q-6 -18 -6 -46v-9zM42 210v9q0 53 14 91q18 46 49 75q-42 42 -53 109q-2 11 -2 45v196h120v-196q0 -72 47 -95q14 -7 33 -7q56 0 74 59q6 18 6 43v196h120v-196
q0 -51 -14 -88q-15 -38 -40 -65l-1 -1q50 -48 60 -120q3 -17 3 -46v-9q0 -53 -14 -91q-48 -127 -194 -127t-194 127q-14 38 -14 91z" />
    <glyph glyph-name="uni0223" unicode="&#x223;" 
d="M162 220q0 -56 24 -88t64 -32q62 0 82 70q6 21 6 50v90q0 56 -24 88t-64 32q-62 0 -82 -70q-6 -21 -6 -50v-90zM42 220v90q0 59 14 95q19 50 50 80q-44 46 -54 110q-2 11 -2 45v95h120v-95q0 -72 47 -95q14 -7 33 -7q56 0 74 59q6 18 6 43v95h120v-95q0 -51 -14 -88
q-15 -40 -42 -67q51 -51 61 -127q3 -18 3 -48v-90q0 -59 -14 -95q-32 -86 -107 -117q-38 -16 -87 -16q-145 0 -194 133q-14 39 -14 95z" />
    <glyph glyph-name="uni0224" unicode="&#x224;" 
d="M50 0v108l276 519h-276v108h400v-108l-276 -519h106q43 0 71 -18q62 -38 87 -135q12 -47 12 -110v-1h-120v1q0 104 -29 144q-8 11 -21 11h-230z" />
    <glyph glyph-name="uni0225" unicode="&#x225;" 
d="M50 0v108l270 314h-270v108h400v-108l-270 -314h100q43 0 71 -18q64 -40 87 -135q14 -54 12 -110h-120q2 101 -29 144q-8 11 -21 11h-230z" />
    <glyph glyph-name="uni0226" unicode="&#x226;" 
d="M170 890q0 37 21 58.5t59 21.5t59 -21.5t21 -58.5t-21 -58.5t-59 -21.5t-59 21.5t-21 58.5zM188 265h124q-21 139 -62 313q-39 -165 -62 -313zM50 0v74q0 64 16 162q23 147 80 349l44 150h120q66 -216 105 -397q20 -93 31 -189q4 -33 4 -75v-74h-120v74q0 47 -4 83h-152
q-4 -54 -4 -83v-74h-120z" />
    <glyph glyph-name="uni0227" unicode="&#x227;" 
d="M170 685q0 37 21 58.5t59 21.5t59 -21.5t21 -58.5t-21 -58.5t-59 -21.5t-59 21.5t-21 58.5zM162 155q0 -28 20.5 -41.5t52.5 -13.5h1q66 0 88 57q6 16 6 41v24h-60q-49 0 -79 -18q-29 -17 -29 -49zM42.5 160.5q1.5 39.5 15.5 68.5q30 62 117 89q39 12 95 12h60
q-1 40 -22 68q-24 32 -66 32q-62 0 -79 -55l-114 35q25 74 97 108q43 20 96 20q97 0 156 -64q30 -31 42 -71q10 -29 10 -83v-320h-120v52q-48 -60 -132 -60q-110 0 -145 96q-12 33 -10.5 72.5z" />
    <glyph glyph-name="uni0228" unicode="&#x228;" 
d="M150 -134h100q19 0 19 17t-19 17h-44v100h88v-27q64 -21 64 -89.5t-63 -90.5q-21 -7 -45 -7h-100v80zM75 0v735h375v-108h-255v-176h201v-108h-201v-235h255v-108h-375z" />
    <glyph glyph-name="uni0229" unicode="&#x229;" 
d="M150 -134h100q19 0 19 17t-19 17h-44v100h88v-27q64 -21 64 -89.5t-63 -90.5q-21 -7 -45 -7h-100v80zM162 320h176q-3 78 -51 102q-15 8 -37 8q-62 0 -82 -70q-5 -18 -6 -40zM42 220v90q0 59 14 95q32 86 107 117q38 16 87 16q145 0 194 -133q14 -39 14 -95v-98h-296
q1 -47 24 -77q27 -35 71 -35q64 0 85 57l113 -37q-26 -74 -99 -108q-43 -20 -99 -20q-101 0 -161 66q-30 33 -44 76q-10 30 -10 86z" />
    <glyph glyph-name="uni022A" unicode="&#x22a;" 
d="M277 890q0 34 19.5 53.5t53.5 19.5t53.5 -19.5t19.5 -53.5t-19.5 -53.5t-53.5 -19.5t-53.5 19.5t-19.5 53.5zM77 890q0 34 19.5 53.5t53.5 19.5t53.5 -19.5t19.5 -53.5t-19.5 -53.5t-53.5 -19.5t-53.5 19.5t-19.5 53.5zM162 210q0 -50 24 -80q23 -30 64 -30q62 0 82 64
q6 18 6 46v315q0 50 -24 80q-23 30 -64 30q-62 0 -82 -64q-6 -18 -6 -46v-315zM42 210v315q0 53 14 91q48 127 194 127t194 -127q14 -38 14 -91v-315q0 -53 -14 -91q-48 -127 -194 -127t-194 127q-14 38 -14 91zM100 1060v88h300v-88h-300z" />
    <glyph glyph-name="uni022B" unicode="&#x22b;" 
d="M277 685q0 34 19.5 53.5t53.5 19.5t53.5 -19.5t19.5 -53.5t-19.5 -53.5t-53.5 -19.5t-53.5 19.5t-19.5 53.5zM77 685q0 34 19.5 53.5t53.5 19.5t53.5 -19.5t19.5 -53.5t-19.5 -53.5t-53.5 -19.5t-53.5 19.5t-19.5 53.5zM162 220q0 -56 24 -88t64 -32q62 0 82 70
q6 21 6 50v90q0 56 -24 88t-64 32q-62 0 -82 -70q-6 -21 -6 -50v-90zM42 220v90q0 59 14 95q32 86 107 117q38 16 87 16q145 0 194 -133q14 -39 14 -95v-90q0 -59 -14 -95q-32 -86 -107 -117q-38 -16 -87 -16q-145 0 -194 133q-14 39 -14 95zM100 855v88h300v-88h-300z" />
    <glyph glyph-name="uni022C" unicode="&#x22c;" 
d="M60 828q42 90 81 120q26 20 53 20q19 0 36 -8.5t26 -18t21 -25.5l15 -20q13 -15 14 -16q20 17 54 88l80 -38q-42 -90 -81 -120q-26 -20 -53 -20q-19 0 -36 8.5t-26 18t-21 25.5l-15 20q-10 12 -14 15q-21 -18 -54 -87zM162 210q0 -50 24 -80q23 -30 64 -30q62 0 82 64
q6 18 6 46v315q0 50 -24 80q-23 30 -64 30q-62 0 -82 -64q-6 -18 -6 -46v-315zM42 210v315q0 53 14 91q48 127 194 127t194 -127q14 -38 14 -91v-315q0 -53 -14 -91q-48 -127 -194 -127t-194 127q-14 38 -14 91zM100 1060v88h300v-88h-300z" />
    <glyph glyph-name="uni022D" unicode="&#x22d;" 
d="M60 623q42 90 81 120q26 20 53 20q19 0 36 -8.5t26 -18t21 -25.5l15 -20q13 -15 14 -16q20 17 54 88l80 -38q-42 -90 -81 -120q-26 -20 -53 -20q-19 0 -36 8.5t-26 18t-21 25.5l-15 20q-10 12 -14 15q-21 -18 -54 -87zM162 220q0 -56 24 -88t64 -32q62 0 82 70q6 21 6 50
v90q0 56 -24 88t-64 32q-62 0 -82 -70q-6 -21 -6 -50v-90zM42 220v90q0 59 14 95q32 86 107 117q38 16 87 16q145 0 194 -133q14 -39 14 -95v-90q0 -59 -14 -95q-32 -86 -107 -117q-38 -16 -87 -16q-145 0 -194 133q-14 39 -14 95zM100 855v88h300v-88h-300z" />
    <glyph glyph-name="uni022E" unicode="&#x22e;" 
d="M170 890q0 37 21 58.5t59 21.5t59 -21.5t21 -58.5t-21 -58.5t-59 -21.5t-59 21.5t-21 58.5zM162 210q0 -50 24 -80q23 -30 64 -30q62 0 82 64q6 18 6 46v315q0 50 -24 80q-23 30 -64 30q-62 0 -82 -64q-6 -18 -6 -46v-315zM42 210v315q0 53 14 91q48 127 194 127
t194 -127q14 -38 14 -91v-315q0 -53 -14 -91q-48 -127 -194 -127t-194 127q-14 38 -14 91z" />
    <glyph glyph-name="uni022F" unicode="&#x22f;" 
d="M170 685q0 37 21 58.5t59 21.5t59 -21.5t21 -58.5t-21 -58.5t-59 -21.5t-59 21.5t-21 58.5zM162 220q0 -56 24 -88t64 -32q62 0 82 70q6 21 6 50v90q0 56 -24 88t-64 32q-62 0 -82 -70q-6 -21 -6 -50v-90zM42 220v90q0 59 14 95q32 86 107 117q38 16 87 16
q145 0 194 -133q14 -39 14 -95v-90q0 -59 -14 -95q-32 -86 -107 -117q-38 -16 -87 -16q-145 0 -194 133q-14 39 -14 95z" />
    <glyph glyph-name="uni0230" unicode="&#x230;" 
d="M170 890q0 37 21 58.5t59 21.5t59 -21.5t21 -58.5t-21 -58.5t-59 -21.5t-59 21.5t-21 58.5zM162 210q0 -50 24 -80q23 -30 64 -30q62 0 82 64q6 18 6 46v315q0 50 -24 80q-23 30 -64 30q-62 0 -82 -64q-6 -18 -6 -46v-315zM42 210v315q0 53 14 91q48 127 194 127
t194 -127q14 -38 14 -91v-315q0 -53 -14 -91q-48 -127 -194 -127t-194 127q-14 38 -14 91zM100 1060v88h300v-88h-300z" />
    <glyph glyph-name="uni0231" unicode="&#x231;" 
d="M170 685q0 37 21 58.5t59 21.5t59 -21.5t21 -58.5t-21 -58.5t-59 -21.5t-59 21.5t-21 58.5zM162 220q0 -56 24 -88t64 -32q62 0 82 70q6 21 6 50v90q0 56 -24 88t-64 32q-62 0 -82 -70q-6 -21 -6 -50v-90zM42 220v90q0 59 14 95q32 86 107 117q38 16 87 16
q145 0 194 -133q14 -39 14 -95v-90q0 -59 -14 -95q-32 -86 -107 -117q-38 -16 -87 -16q-145 0 -194 133q-14 39 -14 95zM100 855v88h300v-88h-300z" />
    <glyph glyph-name="uni0232" unicode="&#x232;" 
d="M100 846v88h300v-88h-300zM50 691v44h120v-44q0 -69 28 -150q12 -32 22 -52l30 -61l30 61q37 75 47 151q3 24 3 51v44h120v-44q0 -88 -35 -186q-9 -24 -27 -63l-78 -159v-283h-120v283l-78 159q-45 92 -58 187q-4 25 -4 62z" />
    <glyph glyph-name="uni0233" unicode="&#x233;" 
d="M100 641v88h300v-88h-300zM50 493v37h120v-37q0 -19 14 -72q8 -31 40 -129l31 -91l27 91q34 116 45 172q3 18 3 29v37h120v-37q0 -14 -13 -83q-10 -50 -40 -149l-88 -300q-14 -51 -24 -100q-3 -18 -3 -29v-37h-120v37q0 14 13 83q5 23 22 87l-86 256q-39 113 -57 201
q-4 20 -4 34z" />
    <glyph glyph-name="uni0234" unicode="&#x234;" 
d="M310 174q0 -26 0.5 -35t4 -22.5t12.5 -22.5q12 -12 28 -12q19 0 29.5 14t10.5 36q0 51 -42 51h-1q-17 0 -42 -9zM19 -65q37 137 137 241q6 7 34 32v419h-115v108h235v-467q23 5 44 5h1q49 0 82.5 -22t47.5 -60q10 -28 10 -59q0 -98 -86 -130q-26 -10 -56 -10
q-54 0 -93 25.5t-56 67.5q-62 -79 -89 -175z" />
    <glyph glyph-name="uni0235" unicode="&#x235;" 
d="M395 136q-2 -26 1 -40t15 -22q8 -4 13 -4q26 0 26 35.5t-27 35.5h-1q-10 0 -27 -5zM170 23q40 80 105 136v151q0 54 -14 88q-9 23 -27 30q-8 2 -11 2q-12 0 -22 -8q-20 -16 -27 -62q-4 -28 -4 -50v-287zM50 0v530h120v-42q34 50 91 50q62 0 98 -62q36 -60 36 -166v-93
q1 0 12 1.5t17 1.5h1q79 0 104 -67q8 -22 8 -47q0 -81 -69 -106q-22 -8 -46 -8h-3q-84 1 -124 67q-48 -59 -72 -137l-84 23q11 35 20 55h-109z" />
    <glyph glyph-name="uni0236" unicode="&#x236;" 
d="M266 173q0 -61 17 -79q12 -12 28 -12q19 0 29.5 14t10.5 36q0 51 -42 51h-1q-20 0 -42 -10zM-8 -68q39 162 154 269v221h-91v108h91v205h120v-205h139v-108h-139v-154q23 5 44 5h2q48 0 81.5 -22.5t47.5 -59.5q10 -28 10 -59q0 -99 -82 -130q-28 -10 -55 -10
q-52 0 -91.5 23.5t-58.5 61.5q-54 -77 -76 -167z" />
    <glyph glyph-name="uni0237" unicode="&#x237;" 
d="M-12 -70l116 26q5 -26 21.5 -43.5t43.5 -17.5q32 0 53 36q18 33 18 87v404h-115v108h235v-512q0 -56 -9 -87q-22 -80 -87 -120q-39 -24 -95 -24q-86 0 -136 57q-33 36 -45 86z" />
    <glyph glyph-name="uni0238" unicode="&#x238;" 
d="M302 129q2 -43 30 -43q30 0 30 46v266q0 46 -30 46q-15 0 -22.5 -12.5t-7.5 -29.5v-273zM138 132q0 -46 30 -46t30 43v273q-2 42 -30 42q-30 0 -30 -46v-266zM34 132v266q0 34 9 58q32 82 125 82q21 0 30 -2v199h104v-199q9 2 30 2q93 0 125 -82q9 -24 9 -58v-266
q0 -34 -9 -58q-32 -82 -125 -82q-50 0 -82 24q-32 -24 -82 -24q-93 0 -125 82q-9 24 -9 58z" />
    <glyph glyph-name="uni0239" unicode="&#x239;" 
d="M302 128q2 -42 30 -42q30 0 30 46v266q0 46 -30 46t-30 -43v-273zM138 132q0 -46 30 -46q15 0 22.5 12.5t7.5 29.5v273q-2 43 -30 43q-30 0 -30 -46v-266zM34 132v266q0 34 9 58q32 82 125 82q50 0 82 -24q32 24 82 24q93 0 125 -82q9 -24 9 -58v-266q0 -34 -9 -58
q-32 -82 -125 -82q-21 0 -30 2v-199h-104v199q-9 -2 -30 -2q-93 0 -125 82q-9 24 -9 58z" />
    <glyph glyph-name="uni023A" unicode="&#x23a;" 
d="M76 -62l273 882l75 -24l-273 -882zM188 265h124q-21 139 -62 313q-39 -165 -62 -313zM50 0v74q0 64 16 162q23 147 80 349l44 150h120q66 -216 105 -397q20 -93 31 -189q4 -33 4 -75v-74h-120v74q0 47 -4 83h-152q-4 -54 -4 -83v-74h-120z" />
    <glyph glyph-name="uni023B" unicode="&#x23b;" 
d="M76 -62l273 882l75 -24l-273 -882zM50 210v315q0 50 10 83q11 35 35.5 65t55.5 47q43 23 102 23q93 0 148 -60q41 -44 50 -103l-119 -16q-4 31 -25 51t-54 20q-40 0 -62 -32q-21 -29 -21 -78v-315q0 -49 21 -78q22 -32 62 -32q38 0 59 26q17 20 20 45l119 -16
q-7 -46 -33.5 -83.5t-65.5 -57.5q-44 -22 -99 -22q-95 0 -152 64q-30 34 -41 71q-10 33 -10 83z" />
    <glyph glyph-name="uni023C" unicode="&#x23c;" 
d="M77 -38l274 636l72 -30l-274 -636zM42 220v90q0 51 10 86q11 37 36.5 68.5t57.5 49.5q44 24 104 24q93 0 151 -61q39 -42 50 -102l-118 -19q-5 32 -26.5 53t-56.5 21q-42 0 -66 -35q-22 -32 -22 -85v-90q0 -53 22 -85q24 -35 66 -35q39 0 62 28q17 20 21 46l118 -19
q-8 -45 -35 -83t-66 -58q-41 -22 -100 -22q-98 0 -156 66q-30 35 -42 76q-10 35 -10 86z" />
    <glyph glyph-name="uni023D" unicode="&#x23d;" 
d="M15 336v78h60v321h120v-321h64v-78h-64v-228h255v-108h-375v336h-60z" />
    <glyph glyph-name="uni023E" unicode="&#x23e;" 
d="M76 -62l273 882l75 -24l-273 -882zM50 627v108h400v-108h-140v-627h-120v627h-140z" />
    <glyph glyph-name="uni023F" unicode="&#x23f;" 
d="M49 110l4 1l58 43l9 -18l40 15q21 -51 87 -51q59 0 77 29q6 9 6 19q0 25 -26 43q-23 15 -47 20l-34 6.5t-39 8.5q-82 20 -116 84q-18 33 -18 72q0 68 51 110q54 46 152 46q73 0 124.5 -31.5t73.5 -86.5l-111 -41q-21 51 -87 51q-59 0 -77 -29q-6 -9 -6 -19q0 -25 26 -43
q23 -15 47 -20l34 -6.5t39 -8.5q82 -20 116 -84q18 -33 18 -72q0 -68 -51 -110q-54 -46 -152 -46q-16 0 -24 1q15 -15 32 -29q39 -32 91 -49q39 -12 103 -12h1v-108h-1q-92 0 -145 27q-59 30 -110 99l-84 111q-41 29 -61 78z" />
    <glyph glyph-name="uni0240" unicode="&#x240;" 
d="M50 0l270 422h-270v108h400v-108l-255 -398q61 -53 70 -60q45 -34 86 -48q37 -13 98 -13h1v-108h-1q-82 0 -135 17q-57 18 -120 65q-64 47 -143 123h-1z" />
    <glyph glyph-name="uni0241" unicode="&#x241;" 
d="M49 580q7 46 33.5 83.5t65.5 57.5q44 22 99 22q96 0 152 -64q58 -65 51 -155q-5 -57 -36 -111l-63 -99q-24 -39 -33 -74q-8 -32 -8 -81v-159h-120v159q0 80 26 132q6 10 32.5 51l40.5 64q42 69 42 132t-42 87q-17 10 -42 10q-38 0 -59 -26q-17 -20 -20 -45z" />
    <glyph glyph-name="uni0242" unicode="&#x242;" 
d="M49 375q4 75 66 122q54 41 135 41q93 0 150 -49q55 -48 50 -119q-4 -53 -41 -98l-34 -41.5l-34 -41.5q-16 -21 -25 -52q-6 -21 -6 -57v-80h-120v80q0 73 30 117l36.5 43l42.5 50q24 30 31 67q12 73 -80 73q-53 0 -73 -35q-6 -10 -8 -27z" />
    <glyph glyph-name="uni0243" unicode="&#x243;" 
d="M170 436h52q42 0 66 26q25 25 25 70q0 66 -53 88q-17 7 -38 7h-52v-191zM170 108h84q38 0 61 30q23 29 23 80q0 77 -49 103q-13 7 -35 7h-84v-68h80v-79h-80v-73zM15 181v79h35v475h172q51 0 88 -14q123 -48 123 -189q0 -86 -47 -139q72 -59 72 -175q0 -152 -119 -203
q-35 -15 -85 -15h-204v181h-35z" />
    <glyph glyph-name="uni0244" unicode="&#x244;" 
d="M25 343v78h450v-78h-450zM50 210v525h120v-525q0 -78 47 -102q16 -8 33 -8q56 0 74 64q6 20 6 46v525h120v-525q0 -53 -14 -91q-47 -127 -186 -127t-186 127q-14 38 -14 91z" />
    <glyph glyph-name="uni0245" unicode="&#x245;" 
d="M50 0v74q0 62 16 133l24.5 109l24.5 109q31 139 81 310h108q50 -171 81 -310l24.5 -109l24.5 -109q16 -71 16 -133v-74h-120v74q0 55 -13 128l-39 210q-20 100 -28 136q-8 -36 -28 -136l-39 -210q-13 -66 -13 -128v-74h-120z" />
    <glyph glyph-name="uni0246" unicode="&#x246;" 
d="M76 -62l273 882l75 -24l-273 -882zM75 0v735h375v-108h-255v-176h201v-108h-201v-235h255v-108h-375z" />
    <glyph glyph-name="uni0247" unicode="&#x247;" 
d="M77 -38l274 636l72 -30l-274 -636zM162 320h176q-3 78 -51 102q-15 8 -37 8q-62 0 -82 -70q-5 -18 -6 -40zM42 220v90q0 59 14 95q32 86 107 117q38 16 87 16q145 0 194 -133q14 -39 14 -95v-98h-296q1 -47 24 -77q27 -35 71 -35q64 0 85 57l113 -37q-26 -74 -99 -108
q-43 -20 -99 -20q-101 0 -161 66q-30 33 -44 76q-10 30 -10 86z" />
    <glyph glyph-name="uni0248" unicode="&#x248;" 
d="M139 336v78h262v-78h-262zM23 155l118 19q8 -61 46 -72q10 -2 16 -2q21 0 33 14q22 22 31 73q3 18 3 49v391h-115v108h235v-499q0 -62 -8 -91q-21 -85 -86 -127q-38 -26 -93 -26q-84 0 -135 63q-35 44 -45 100z" />
    <glyph glyph-name="uni0249" unicode="&#x249;" 
d="M149 226v78h262v-78h-262zM200 685q0 37 21 58.5t59 21.5t59 -21.5t21 -58.5t-21 -58.5t-59 -21.5t-59 21.5t-21 58.5zM-12 -70l116 26q5 -26 21.5 -43.5t43.5 -17.5q32 0 53 36q18 33 18 87v404h-115v108h235v-512q0 -56 -9 -87q-22 -80 -87 -120q-39 -24 -95 -24
q-86 0 -136 57q-33 36 -45 86z" />
    <glyph glyph-name="uni024A" unicode="&#x24a;" 
d="M162 220q0 -85 51 -112q15 -8 36 -8h1q55 1 74 70q6 21 6 50v295q0 53 -22 88q-22 32 -58 32h-1q-60 0 -81 -70q-6 -21 -6 -50v-295zM42 220v295q0 105 46 166q45 62 123 62h1q75 0 118 -62v54h120v-735q0 -56 28 -80q24 -21 82 -21v-108q-60 0 -90 6q-103 20 -131 113
q-9 32 -9 90v54q-43 -62 -118 -62h-1q-78 0 -123 62q-46 61 -46 166z" />
    <glyph glyph-name="uni024B" unicode="&#x24b;" 
d="M162 220q0 -85 51 -112q15 -8 36 -8h1q55 1 74 70q6 21 6 50v90q0 53 -22 88q-22 32 -58 32h-1q-60 0 -81 -70q-6 -21 -6 -50v-90zM42 220v90q0 105 46 166q45 62 123 62h1q75 0 118 -62v54h120v-530q0 -56 28 -80q24 -21 82 -21v-108q-60 0 -90 6q-103 20 -131 113
q-9 32 -9 90v54q-43 -62 -118 -62h-1q-78 0 -123 62q-46 61 -46 166z" />
    <glyph glyph-name="uni024C" unicode="&#x24c;" 
d="M39 297v78h262v-78h-262zM170 386h74q43 0 69 33q25 33 25 88q0 83 -54 112q-16 8 -40 8h-74v-241zM50 0v735h194q51 0 90 -16q124 -53 124 -212q0 -151 -113 -208q65 -97 95 -179q24 -66 24 -120h-120q0 46 -20 99q-29 79 -105 179h-49v-278h-120z" />
    <glyph glyph-name="uni024D" unicode="&#x24d;" 
d="M99 226v78h262v-78h-262zM110 0v530h120v-66q36 73 105 74h2q43 0 78 -25.5t52 -62.5l-109 -44q-17 24 -48 24q-34 0 -57 -32t-23 -88v-310h-120z" />
    <glyph glyph-name="uni024E" unicode="&#x24e;" 
d="M25 343v78h450v-78h-450zM50 691v44h120v-44q0 -69 28 -150q12 -32 22 -52l30 -61l30 61q37 75 47 151q3 24 3 51v44h120v-44q0 -88 -35 -186q-9 -24 -27 -63l-78 -159v-283h-120v283l-78 159q-45 92 -58 187q-4 25 -4 62z" />
    <glyph glyph-name="uni024F" unicode="&#x24f;" 
d="M25 138v78h450v-78h-450zM50 493v37h120v-37q0 -19 14 -72q8 -31 40 -129l31 -91l27 91q34 116 45 172q3 18 3 29v37h120v-37q0 -14 -13 -83q-10 -50 -40 -149l-88 -300q-14 -51 -24 -100q-3 -18 -3 -29v-37h-120v37q0 14 13 83q5 23 22 87l-86 256q-39 113 -57 201
q-4 20 -4 34z" />
    <glyph glyph-name="uni0250" unicode="&#x250;" 
d="M170 308h60q49 0 79 18q29 17 29 49q0 28 -20.5 41.5t-52.5 13.5h-1q-66 0 -88 -57q-6 -16 -6 -41v-24zM50 210v320h120v-52q48 60 132 60q110 0 145 -96q12 -33 10.5 -72.5t-15.5 -68.5q-30 -62 -117 -89q-39 -12 -95 -12h-60q1 -40 22 -68q24 -32 66 -32q62 0 79 55
l114 -35q-25 -74 -97 -108q-43 -20 -96 -20q-97 0 -156 64q-30 31 -42 71q-10 29 -10 83z" />
    <glyph glyph-name="uni0251" unicode="&#x251;" 
d="M162 220q0 -85 51 -112q15 -8 36 -8h1q55 1 74 70q6 21 6 50v90q0 53 -22 88q-22 32 -58 32h-1q-60 0 -81 -70q-6 -21 -6 -50v-90zM42 220v90q0 105 46 166q45 62 123 62h1q78 0 118 -62l120 62v-538h-120v54q-43 -62 -118 -62h-1q-78 0 -123 62q-46 61 -46 166z" />
    <glyph glyph-name="uni0252" unicode="&#x252;" 
d="M170 220q0 -53 22 -88q22 -32 58 -32h1q60 0 81 70q6 21 6 50v90q0 85 -51 112q-15 8 -36 8h-1q-55 -1 -74 -70q-6 -21 -6 -50v-90zM50 -8v538h120v-54q43 62 118 62h1q78 0 123 -62q46 -61 46 -166v-90q0 -105 -46 -166q-45 -62 -123 -62h-1q-78 0 -118 62z" />
    <glyph glyph-name="uni0253" unicode="&#x253;" 
d="M170 220q0 -53 22 -88q22 -32 58 -32h1q60 0 81 70q6 21 6 50v90q0 85 -51 112q-15 8 -36 8h-1q-55 -1 -74 -70q-6 -21 -6 -50v-90zM50 0v515q0 55 9 86q11 37 36 68.5t57 49.5q42 24 102 24q92 0 148 -61q38 -43 49 -102l-118 -18q-5 32 -25 52.5t-54 20.5
q-40 0 -63 -35q-21 -30 -21 -85v-39q43 62 118 62h1q78 0 123 -62q46 -61 46 -166v-90q0 -105 -46 -166q-45 -62 -123 -62h-1q-75 0 -118 62v-54h-120z" />
    <glyph glyph-name="uni0254" unicode="&#x254;" 
d="M49 155l118 19q5 -32 26.5 -53t56.5 -21q42 0 66 35q22 32 22 85v90q0 53 -22 85q-24 35 -66 35q-39 0 -62 -28q-17 -20 -21 -46l-118 19q8 45 35 83t66 58q41 22 100 22q98 0 156 -66q30 -35 42 -76q10 -35 10 -86v-90q0 -51 -10 -86q-11 -37 -36.5 -68.5t-57.5 -49.5
q-44 -24 -104 -24q-93 0 -151 61q-39 42 -50 102z" />
    <glyph glyph-name="uni0255" unicode="&#x255;" 
d="M181 146q30 -50 93 -50h1q51 0 66 29q5 10 5 20q0 24 -20 36.5t-47.5 12.5t-52.5 -13q-21 -11 -45 -35zM-30 1q23 85 77 159q-5 22 -5 60v90q0 54 10 84q23 74 94 113q44 23 104 23q94 0 151 -59q40 -41 50 -96l-118 -21q-5 30 -27 49t-56 19q-42 0 -66 -33
q-22 -29 -22 -79v-42q55 31 117 31q79 0 131 -42t52 -111v-1q0 -69 -51 -112q-49 -41 -135 -41h-1q-102 0 -164 56q-20 -39 -29 -74z" />
    <glyph glyph-name="uni0256" unicode="&#x256;" 
d="M162 220q0 -85 51 -112q15 -8 36 -8h1q55 1 74 70q6 21 6 50v90q0 53 -22 88q-22 32 -58 32h-1q-60 0 -81 -70q-6 -21 -6 -50v-90zM42 220v90q0 105 46 166q45 62 123 62h1q75 0 118 -62v259h120v-735q0 -56 28 -80q24 -21 82 -21v-108q-60 0 -90 6q-103 20 -131 113
q-9 32 -9 90v54q-43 -62 -118 -62h-1q-78 0 -123 62q-46 61 -46 166z" />
    <glyph glyph-name="uni0257" unicode="&#x257;" 
d="M162 220q0 -85 51 -112q15 -8 36 -8h1q55 1 74 70q6 21 6 50v90q0 53 -22 88q-22 32 -58 32h-1q-60 0 -81 -70q-6 -21 -6 -50v-90zM42 220v90q0 105 46 166q45 62 123 62h1q75 0 118 -62v54q0 58 9 90q28 93 131 113q30 6 90 6v-108q-58 0 -82 -21q-28 -24 -28 -80v-530
h-120v54q-43 -62 -118 -62h-1q-78 0 -123 62q-46 61 -46 166z" />
    <glyph glyph-name="uni0258" unicode="&#x258;" 
d="M162 320h176q-3 78 -51 102q-15 8 -37 8q-62 0 -82 -70q-5 -18 -6 -40zM41 120l112 38q20 -58 88 -58q46 0 73 35q23 30 24 77h-296v98q0 59 14 95q32 86 107 117q38 16 87 16q145 0 194 -133q14 -39 14 -95v-90q0 -57 -10 -87q-12 -37 -38.5 -68.5t-59.5 -48.5
q-45 -24 -109 -24q-92 0 -150 53q-33 30 -50 75z" />
    <glyph glyph-name="uni0259" unicode="&#x259;" 
d="M162 210q3 -78 51 -102q15 -8 37 -8q62 0 82 70q5 18 6 40h-176zM42 220v98h296q-1 47 -24 77q-27 35 -71 35q-64 0 -85 -57l-113 37q26 74 99 108q43 20 99 20q101 0 161 -66q30 -33 44 -76q10 -30 10 -86v-90q0 -59 -14 -95q-32 -86 -107 -117q-38 -16 -87 -16
q-145 0 -194 133q-14 39 -14 95z" />
    <glyph glyph-name="uni025A" unicode="&#x25a;" 
d="M162 210q2 -49 14 -78q10 -24 25 -30q4 -2 11 -2q14 0 22 8q18 16 26 62q3 16 3 40h-101zM42 220v98h221q0 46 -14 77q-16 35 -42 35q-20 0 -35 -21q-9 -12 -12 -29l-115 30q21 73 81 108q35 20 81 20q83 0 132 -66q25 -34 36 -77q8 -30 8 -77l33 2l-4 -4h4v-1
q0 -71 49 -94q14 -7 32 -7h3v-78h-8q-65 0 -111 42q-7 -75 -44 -124q-47 -62 -125 -62t-124 62q-46 61 -46 166z" />
    <glyph glyph-name="uni025B" unicode="&#x25b;" 
d="M50 377q3 100 102 137q44 16 101 16q145 0 198 -110l-108 -47q-23 49 -90 49q-60 0 -77 -28q-13 -19 0 -40q17 -30 74 -30h60v-108h-60q-57 0 -74 -32q-13 -23 0 -45q18 -31 78 -31q64 0 89 49l108 -47q-53 -110 -197 -110q-148 0 -191 96q-29 65 1 132q9 21 29 41
q-44 43 -43 108z" />
    <glyph glyph-name="uni025C" unicode="&#x25c;" 
d="M49 110l108 47q25 -49 89 -49q60 0 78 31q13 22 0 45q-17 32 -74 32h-60v108h60q57 0 74 30q13 21 0 40q-17 28 -77 28q-67 0 -90 -49l-108 47q53 110 198 110q147 0 190 -93q29 -62 -1 -127q-10 -22 -29 -41q44 -44 43 -111q-1 -102 -102 -141q-46 -17 -102 -17
q-144 0 -197 110z" />
    <glyph glyph-name="uni025D" unicode="&#x25d;" 
d="M49 110l116 28q9 -30 44 -30q46 0 46 51q0 39 -25 53q-8 4 -18 4h-48v108h48q21 0 32 14.5t11 37.5q0 46 -45 46q-34 0 -45 -30l-116 28q10 39 39 66t70 38q24 6 52 6q122 0 155 -94q21 -58 1 -119l50 3l-4 -4h4v-1q0 -71 49 -94q14 -7 32 -7h3v-78h-8q-71 0 -117 48
l-1 2q7 -61 -15.5 -104.5t-66.5 -64.5q-37 -17 -83 -17q-91 0 -137 63q-16 22 -23 47z" />
    <glyph glyph-name="uni025E" unicode="&#x25e;" 
d="M162 220q0 -56 24 -88q21 -31 65 -32h2q58 0 79 46q14 31 0 46q-12 13 -45 17q-10 2 -37 2h-60v108h60q40 0 60 13q21 14 7 52q-17 46 -66 46h-1q-62 0 -82 -70q-6 -21 -6 -50v-90zM42 220v90q0 59 14 95q32 86 107 117q42 16 87 16h1q87 0 139 -52q55 -55 52 -139
q-1 -44 -26 -75q39 -31 42 -89q3 -85 -56 -139q-57 -52 -149 -52h-3q-146 1 -194 133q-14 39 -14 95z" />
    <glyph glyph-name="uni025F" unicode="&#x25f;" 
d="M75 0v108h121v422h120v-422h109v-108h-109v-85q0 -55 -12 -81q-32 -70 -136 -78q-14 -1 -82 -1v108q9 0 29 -1.5t29 -1.5q52 0 52 55v85h-121z" />
    <glyph glyph-name="uni0260" unicode="&#x260;" 
d="M162 220q0 -85 51 -112q15 -8 36 -8h1q55 1 74 70q6 21 6 50v90q0 53 -22 88q-22 32 -58 32h-1q-60 0 -81 -70q-6 -21 -6 -50v-90zM42 220v90q0 105 46 166q45 62 123 62h1q75 0 118 -62v54q0 58 9 90q28 93 131 113q30 6 90 6v-108q-58 0 -82 -21q-28 -24 -28 -80v-515
q0 -56 -10 -86q-11 -37 -36.5 -68.5t-58.5 -49.5q-43 -24 -106 -24q-86 0 -142 51q-32 29 -48 67l111 42q21 -52 79 -52q42 0 68 35q23 31 23 85v39q-43 -62 -118 -62h-1q-78 0 -123 62q-46 61 -46 166z" />
    <glyph glyph-name="uni0261" unicode="&#x261;" 
d="M162 220q0 -85 51 -112q15 -8 36 -8h1q55 1 74 70q6 21 6 50v90q0 53 -22 88q-22 32 -58 32h-1q-60 0 -81 -70q-6 -21 -6 -50v-90zM42 220v90q0 105 46 166q45 62 123 62h1q75 0 118 -62v54h120v-515q0 -56 -10 -86q-11 -37 -36.5 -68.5t-58.5 -49.5q-43 -24 -106 -24
q-86 0 -142 51q-32 29 -48 67l111 42q21 -52 79 -52q42 0 68 35q23 31 23 85v39q-43 -62 -118 -62h-1q-78 0 -123 62q-46 61 -46 166z" />
    <glyph glyph-name="uni0262" unicode="&#x262;" 
d="M42 210v110q0 50 10 83q11 35 36 65t57 47q44 23 104 23q94 0 151 -60q42 -44 51 -103l-119 -17q-5 32 -26.5 52t-56.5 20q-41 0 -65 -32q-22 -29 -22 -78v-110q0 -77 51 -102q18 -8 36 -8h1q56 0 74 64q4 13 6 31h-80v108h200v-108q-3 -88 -54 -144q-54 -59 -146 -59h-1
q-144 0 -193 127q-14 38 -14 91z" />
    <glyph glyph-name="uni0263" unicode="&#x263;" 
d="M230 -74q-4 -44 11 -51q6 -2 9 -2q11 0 16 8t5 20q0 55 -21 135q-17 -65 -20 -110zM42 530h120q51 -114 88 -212q14 40 63 154q20 47 25 58h120q-100 -196 -156 -338q0 -2 -2 -5t-2 -4q52 -160 59 -259q6 -97 -62 -122q-18 -7 -45 -7q-76 0 -100 60q-15 38 -1 124
q11 75 53 204q-28 77 -105 237l-17 34.5l-20.5 41z" />
    <glyph glyph-name="uni0264" unicode="&#x264;" 
d="M230 122q-4 -44 20 -44q15 0 19.5 15t-0.5 38.5t-9.5 38t-9.5 26.5q-17 -42 -20 -74zM42 530h120q47 -71 88 -143q6 11 41 69l47 74h120q-95 -124 -156 -229q0 -1 -2 -2.5t-2 -2.5q46 -95 56 -157q4 -22 4 -36q0 -72 -63 -96q-18 -7 -45 -7q-76 0 -100 60q-8 19 -8 43
q0 39 20 97q16 48 40 96q-50 91 -160 234z" />
    <glyph glyph-name="uni0265" unicode="&#x265;" 
d="M50 220v310h120v-310q0 -53 22 -88q20 -32 58 -32q55 0 74 70q6 21 6 50v310h120v-735h-120v259q-43 -62 -118 -62t-118 62q-44 62 -44 166z" />
    <glyph glyph-name="uni0266" unicode="&#x266;" 
d="M50 0v515q0 55 9 86q11 37 36 68.5t57 49.5q42 24 102 24q92 0 148 -61q38 -43 49 -102l-118 -18q-5 32 -25 52.5t-54 20.5q-40 0 -63 -35q-21 -30 -21 -85v-39q43 62 118 62t118 -62q44 -62 44 -166v-310h-120v310q0 53 -22 88q-20 32 -58 32q-55 0 -74 -70
q-6 -21 -6 -50v-310h-120z" />
    <glyph glyph-name="uni0267" unicode="&#x267;" 
d="M50 0v515q0 55 9 86q11 37 36 68.5t57 49.5q42 24 102 24q92 0 148 -61q38 -43 49 -102l-118 -18q-5 32 -25 52.5t-54 20.5q-40 0 -63 -35q-21 -30 -21 -85v-39q43 62 118 62t118 -62q44 -62 44 -166v-310q0 -58 -9 -90q-28 -93 -131 -113q-30 -6 -90 -6v108q58 0 82 21
q28 24 28 80v310q0 53 -22 88q-20 32 -58 32q-55 0 -74 -70q-6 -21 -6 -50v-310h-120z" />
    <glyph glyph-name="uni0268" unicode="&#x268;" 
d="M119 237v78h262v-78h-262zM170 685q0 37 21 58.5t59 21.5t59 -21.5t21 -58.5t-21 -58.5t-59 -21.5t-59 21.5t-21 58.5zM75 0v108h122v314h-108v108h228v-422h108v-108h-350z" />
    <glyph glyph-name="uni0269" unicode="&#x269;" 
d="M75 422v108h235v-375q0 -47 41 -47h83v-108h-83q-37 0 -67 11q-60 22 -83 79q-11 26 -11 65v267h-115z" />
    <glyph glyph-name="uni026A" unicode="&#x26a;" 
d="M120 0v108h70v314h-70v108h260v-108h-70v-314h70v-108h-260z" />
    <glyph glyph-name="uni026B" unicode="&#x26b;" 
d="M60 345q42 90 81 120q26 20 53 20q19 0 36 -8.5t26 -18t21 -25.5l15 -20q13 -15 14 -16q20 17 54 88l80 -38q-42 -90 -81 -120q-26 -20 -53 -20q-19 0 -36 8.5t-26 18t-21 25.5l-15 20q-10 12 -14 15q-21 -18 -54 -87zM75 0v108h122v519h-108v108h228v-627h108v-108h-350
z" />
    <glyph glyph-name="uni026C" unicode="&#x26c;" 
d="M130 368q0 -27 26 -27h41v53h-41q-26 0 -26 -26zM52 368q0 67 61 89q20 7 43 7h41v163h-108v108h228v-394h96v-70h-96v-163h108v-108h-350v108h122v163h-41q-48 0 -76 26t-28 71z" />
    <glyph glyph-name="uni026D" unicode="&#x26d;" 
d="M75 627v108h235v-735q0 -56 28 -80q24 -21 82 -21v-108q-60 0 -90 6q-103 20 -131 113q-9 32 -9 90v627h-115z" />
    <glyph glyph-name="uni026E" unicode="&#x26e;" 
d="M49 -95l109 46q22 -48 80 -48q43 0 69 33q23 29 23 80q0 77 -47 104q-13 8 -33 8h-40v108l80 186h-120v-369h-120v682h120v-205h250v-108l-80 -186v-18q111 -53 110 -202q-1 -143 -106 -198q-46 -23 -106 -23q-86 0 -142 48q-30 26 -47 62z" />
    <glyph glyph-name="uni026F" unicode="&#x26f;" 
d="M42 165v365h104v-365q0 -34 7 -58q5 -14 13 -19q4 -2 6 -2q7 0 11 6q9 9 13 40q2 18 2 33v365h104v-365q0 -34 7 -58q5 -14 13 -19q4 -2 6 -2q5 0 11 6q9 9 13 40q2 18 2 33v365h104v-530h-104v20q-19 -28 -58 -28q-48 0 -75 53q-27 -53 -75 -53h-1q-47 0 -75 47t-28 126
z" />
    <glyph glyph-name="uni0270" unicode="&#x270;" 
d="M42 165v365h104v-365q0 -34 7 -58q5 -14 13 -19q4 -2 6 -2q7 0 11 6q9 9 13 40q2 18 2 33v365h104v-365q0 -34 7 -58q5 -14 13 -19q4 -2 6 -2q5 0 11 6q9 9 13 40q2 18 2 33v365h104v-735h-104v225q-19 -28 -58 -28q-48 0 -75 53q-27 -53 -75 -53h-1q-47 0 -75 47
t-28 126z" />
    <glyph glyph-name="uni0271" unicode="&#x271;" 
d="M42 0v530h104v-20q19 28 58 28q48 0 75 -53q27 53 75 53h1q47 0 75 -47t28 -126v-365q0 -57 -9 -87q-26 -88 -126 -109q-30 -6 -87 -6v94q61 0 88 23q30 25 30 85v365q0 34 -7 58q-5 14 -13 19q-4 2 -6 2q-7 0 -11 -6q-9 -9 -13 -40q-2 -18 -2 -33v-365h-104v365
q0 34 -7 58q-5 14 -13 19q-4 2 -6 2q-5 0 -11 -6q-9 -9 -13 -40q-2 -18 -2 -33v-365h-104z" />
    <glyph glyph-name="uni0272" unicode="&#x272;" 
d="M-60 -101q58 0 82 21q28 24 28 80v530h120v-54q43 62 118 62t118 -62q44 -62 44 -166v-310h-120v310q0 53 -22 88q-20 32 -58 32q-55 0 -74 -70q-6 -21 -6 -50v-310q0 -58 -9 -90q-28 -93 -131 -113q-30 -6 -90 -6v108z" />
    <glyph glyph-name="uni0273" unicode="&#x273;" 
d="M50 0v530h120v-54q43 62 118 62t118 -62q44 -62 44 -166v-310q0 -56 28 -80q24 -21 82 -21v-108q-60 0 -90 6q-103 20 -131 113q-9 32 -9 90v310q0 53 -22 88q-20 32 -58 32q-55 0 -74 -70q-6 -21 -6 -50v-310h-120z" />
    <glyph glyph-name="uni0274" unicode="&#x274;" 
d="M50 0v530h144l148 -371q-8 75 -8 159v212h116v-530h-144l-148 371q8 -75 8 -159v-212h-116z" />
    <glyph glyph-name="uni0275" unicode="&#x275;" 
d="M162 304h176v6q0 56 -24 88t-64 32q-62 0 -82 -70q-6 -21 -6 -50v-6zM162 220q0 -56 24 -88t64 -32q62 0 82 70q6 21 6 50v6h-176v-6zM42 220v90q0 59 14 95q32 86 107 117q38 16 87 16q145 0 194 -133q14 -39 14 -95v-90q0 -59 -14 -95q-32 -86 -107 -117
q-38 -16 -87 -16q-145 0 -194 133q-14 39 -14 95z" />
    <glyph glyph-name="uni0276" unicode="&#x276;" 
d="M154 210q0 -80 56 -108q17 -8 40 -8v342q-44 0 -70 -31t-26 -85v-110zM50 210v110q0 51 14 88q29 77 102 107q37 15 84 15h200v-108h-96v-82h72v-108h-72v-124h96v-108h-200q-47 0 -84 15q-73 30 -102 107q-14 37 -14 88z" />
    <glyph glyph-name="uni0277" unicode="&#x277;" 
d="M141 238q0 -100 16 -139q4 -11 12 -11q7 0 11 13q12 40 14 90q2 46 2 74v79h108v-79q0 -113 16 -164q4 -13 11 -13q8 0 12 11q16 39 16 139q-2 95 -30 149q-29 55 -79 55t-79 -55q-28 -54 -30 -149zM34 238q0 139 58 219q59 81 158 81t158 -81q58 -80 58 -219
q0 -113 -36 -179q-35 -67 -98 -67h-1q-49 0 -81 45q-32 -45 -81 -45h-1q-63 0 -98 67q-36 66 -36 179z" />
    <glyph glyph-name="uni0278" unicode="&#x278;" 
d="M302 100q52 34 52 120v90q0 61 -28 98q-10 12 -24 22v-330zM146 220q0 -61 28 -98q10 -12 24 -22v330q-52 -34 -52 -120v-90zM42 220v90q0 59 14 95q37 101 134 126v204h120v-204q97 -25 134 -126q14 -39 14 -95v-90q0 -59 -14 -95q-37 -101 -134 -126v-204h-120v204
q-97 25 -134 126q-14 39 -14 95z" />
    <glyph glyph-name="uni0279" unicode="&#x279;" 
d="M33 80l109 44q17 -24 48 -24q34 0 57 32t23 88v310h120v-530h-120v66q-36 -73 -105 -74h-2q-43 0 -78 25.5t-52 62.5z" />
    <glyph glyph-name="uni027A" unicode="&#x27a;" 
d="M33 80l109 44q17 -24 48 -24q34 0 57 32t23 88v515h120v-735h-120v66q-36 -73 -105 -74h-2q-43 0 -78 25.5t-52 62.5z" />
    <glyph glyph-name="uni027B" unicode="&#x27b;" 
d="M33 80l109 44q17 -24 48 -24q34 0 57 32t23 88v310h120v-530q0 -56 28 -80q24 -21 82 -21v-108q-60 0 -90 6q-103 20 -131 113q-9 32 -9 90v66q-36 -73 -105 -74h-2q-43 0 -78 25.5t-52 62.5z" />
    <glyph glyph-name="uni027C" unicode="&#x27c;" 
d="M110 -205v735h120v-66q36 73 105 74h2q43 0 78 -25.5t52 -62.5l-109 -44q-17 24 -48 24q-34 0 -57 -32t-23 -88v-515h-120z" />
    <glyph glyph-name="uni027D" unicode="&#x27d;" 
d="M110 0v530h120v-66q36 73 105 74h2q43 0 78 -25.5t52 -62.5l-109 -44q-17 24 -48 24q-34 0 -57 -32t-23 -88v-310q0 -56 28 -80q24 -21 82 -21v-108q-60 0 -90 6q-103 20 -131 113q-9 32 -9 90z" />
    <glyph glyph-name="uni027E" unicode="&#x27e;" 
d="M110 0v310q0 54 9 86q23 79 91 118q40 24 100 24q75 0 125 -40q22 -17 41 -48l-103 -56q-20 36 -63 36q-37 0 -60 -35q-20 -32 -20 -85v-310h-120z" />
    <glyph glyph-name="uni027F" unicode="&#x27f;" 
d="M89 422v108q69 0 81 -1q102 -6 134 -75q13 -28 13 -79v-580h-120v580q0 51 -45 51q-8 0 -30.5 -2t-32.5 -2z" />
    <glyph glyph-name="uni0280" unicode="&#x280;" 
d="M170 278h118q22 0 36 19q14 20 14 53q0 50 -29 67q-7 5 -21 5h-118v-144zM50 0v530h238q43 0 71 -12q99 -42 99 -168q0 -119 -90 -164q63 -71 85 -129q11 -31 11 -57h-120q0 28 -19 60q-29 49 -99 110h-56v-170h-120z" />
    <glyph glyph-name="uni0281" unicode="&#x281;" 
d="M170 108h104q76 0 76 68t-76 68h-104v-136zM50 0v530h120v-178h66q51 30 79.5 71.5t28.5 106.5h120q0 -119 -85 -204q79 -45 79 -150q0 -107 -82 -152q-44 -24 -102 -24h-224z" />
    <glyph glyph-name="uni0282" unicode="&#x282;" 
d="M49 110l111 41q21 -51 87 -51q59 0 77 29q6 9 6 19q0 25 -26 43q-23 15 -47 20l-34 6.5t-39 8.5q-82 20 -116 84q-18 33 -18 72q0 68 51 110q54 46 152 46q73 0 124.5 -31.5t73.5 -86.5l-111 -41q-21 51 -87 51q-59 0 -77 -29q-6 -9 -6 -19q0 -25 26 -43q23 -15 47 -20
l34 -6.5t39 -8.5q82 -20 116 -84q18 -33 18 -72q0 -68 -51 -110q-54 -46 -152 -46q-44 0 -77 10v-2q0 -56 28 -80q24 -21 82 -21v-108q-60 0 -90 6q-103 20 -131 113q-9 32 -9 90v109z" />
    <glyph glyph-name="uni0283" unicode="&#x283;" 
d="M80 -87q58 0 80 15q30 20 30 72v580q0 58 10 87q29 86 132 103q32 5 88 5v-108q-58 0 -80 -15q-30 -20 -30 -72v-580q0 -58 -10 -87q-29 -86 -132 -103q-32 -5 -88 -5v108z" />
    <glyph glyph-name="uni0284" unicode="&#x284;" 
d="M80 -87q58 0 80 15q30 20 30 72v93h-45v79h45v408q0 58 10 87q29 86 132 103q32 5 88 5v-108q-58 0 -80 -15q-30 -20 -30 -72v-408h45v-79h-45v-93q0 -58 -10 -87q-29 -86 -132 -103q-32 -5 -88 -5v108z" />
    <glyph glyph-name="uni0285" unicode="&#x285;" 
d="M75 422v108q62 0 92 -6q104 -20 133 -112q10 -30 10 -91v-321q0 -56 30 -81q26 -20 85 -20v-108q-62 0 -92 6q-104 20 -133 112q-10 30 -10 91v321q0 56 -30 81q-26 20 -85 20z" />
    <glyph glyph-name="uni0286" unicode="&#x286;" 
d="M99 -73q0 -37 24 -47q10 -4 17 -4q21 0 34.5 16t16.5 39q2 16 1 27q0 2 -1 6t-1 6q-32 8 -47 8q-44 0 -44 -51zM-1 -72q0 98 82 130q28 10 58 10h1q14 0 44 -4v551q0 55 12 81q32 70 136 78q14 1 82 1v-108q-9 0 -29 1.5t-29 1.5q-52 0 -52 -55v-598q114 -72 170 -192
l-90 -38q-34 73 -95 126q-16 -54 -55.5 -90t-96.5 -36q-59 0 -99 38q-39 37 -39 102v1z" />
    <glyph glyph-name="uni0287" unicode="&#x287;" 
d="M39 375q6 45 29.5 86t55.5 59t76 18q73 0 117 -54q33 -42 41 -104q2 -20 2 -43v-229h91v-108h-91v-205h-120v205h-139v108h139v229q0 42 -11 68q-12 25 -29 25h-1q-22 0 -33 -30q-6 -15 -8 -39z" />
    <glyph glyph-name="uni0288" unicode="&#x288;" 
d="M49 422v108h91v205h120v-205h139v-108h-139v-434q0 -42 11 -68q12 -25 29 -25h1q22 0 33 30q6 15 8 39l119 -14q-6 -45 -29.5 -86t-55.5 -59t-76 -18q-73 0 -117 54q-33 42 -41 104q-2 20 -2 43v434h-91z" />
    <glyph glyph-name="uni0289" unicode="&#x289;" 
d="M25 237v78h450v-78h-450zM50 220v310h120v-310q0 -53 22 -88q20 -32 58 -32q55 0 74 70q6 21 6 50v310h120v-530h-120v54q-43 -62 -118 -62t-118 62q-44 62 -44 166z" />
    <glyph glyph-name="uni028A" unicode="&#x28a;" 
d="M50 220v90q0 70 42 112h-42v108h160v-108q-20 -2 -29 -30q-11 -34 -11 -82v-90q0 -53 22 -88q20 -32 58 -32q55 0 74 70q6 21 6 50v90q0 48 -11 82q-9 28 -29 30v108h160v-108h-42q42 -42 42 -112v-90q0 -54 -14 -95q-31 -87 -102 -117q-36 -16 -84 -16q-139 0 -186 133
q-14 41 -14 95z" />
    <glyph glyph-name="uni028B" unicode="&#x28b;" 
d="M50 220v310h120v-310q0 -53 22 -88q20 -32 58 -32q55 0 74 70q6 21 6 50v101q0 51 -14 73q-18 28 -66 28v108q54 0 84 -8q88 -25 110 -117q6 -28 6 -84v-101q0 -54 -14 -95q-31 -87 -102 -117q-36 -16 -84 -16q-139 0 -186 133q-14 41 -14 95z" />
    <glyph glyph-name="uni028C" unicode="&#x28c;" 
d="M50 0v53q0 115 96 369l44 108h120q67 -159 105 -286q20 -65 31 -137q4 -24 4 -54v-53h-120v53q0 43 -12 109q-19 103 -68 250q-36 -111 -53 -182t-24 -127q-3 -25 -3 -50v-53h-120z" />
    <glyph glyph-name="uni028D" unicode="&#x28d;" 
d="M50 0v132q0 44 9 98q19 117 75 300h58l58 -197l58 197h58q44 -147 63 -238q12 -56 19 -114q2 -15 2 -46v-132h-120v132q0 84 -4 258q-25 -81 -37 -130q-10 -38 -10 -48h-58q0 5 -3 17q-19 78 -44 161q-4 -174 -4 -258v-132h-120z" />
    <glyph glyph-name="uni028E" unicode="&#x28e;" 
d="M50 0v37q0 14 13 83q10 50 40 149l88 300q14 51 24 100q3 18 3 29v37h120v-37q0 -14 -13 -83q-5 -23 -22 -87l86 -256q39 -113 57 -201q4 -20 4 -34v-37h-120v37q0 19 -14 72q-8 31 -40 129l-31 91l-27 -91q-34 -116 -45 -172q-3 -18 -3 -29v-37h-120z" />
    <glyph glyph-name="uni028F" unicode="&#x28f;" 
d="M50 498v32h120v-32q0 -44 26 -98q6 -13 20 -34l34 -51l34 51q35 52 43 99q3 15 3 33v32h120v-32q0 -43 -17 -96q-18 -51 -49 -97l-74 -108v-197h-120v197l-74 108q-48 71 -62 145q-4 20 -4 48z" />
    <glyph glyph-name="uni0290" unicode="&#x290;" 
d="M50 0v108l270 314h-270v108h400v-108l-270 -314h270v-108q0 -56 28 -80q24 -21 82 -21v-108q-60 0 -90 6q-103 20 -131 113q-9 32 -9 90h-280z" />
    <glyph glyph-name="uni0291" unicode="&#x291;" 
d="M322 108h57q32 0 32 24q0 14 -8 22.5t-22 8.5q-12 0 -26 -10q-14 -12 -33 -45zM50 0v108l270 314h-270v108h400v-108l-270 -314h65q31 61 66 96q38 38 77 38q44 0 78 -30q31 -28 32 -80q1 -45 -17.5 -76.5t-51.5 -46.5q-21 -9 -50 -9h-102q-17 -48 -31 -106l-85 19
q12 37 33 87h-144z" />
    <glyph glyph-name="uni0292" unicode="&#x292;" 
d="M49 -95l109 46q22 -48 80 -48q43 0 69 33q23 29 23 80q0 77 -47 104q-13 8 -33 8h-120v108l160 186h-240v108h370v-108l-160 -186q44 -1 74 -15q117 -52 116 -206q-1 -142 -106 -197q-46 -23 -106 -23q-86 0 -142 48q-30 26 -47 62z" />
    <glyph glyph-name="uni0293" unicode="&#x293;" 
d="M154 -73q0 -19 18.5 -27.5t43.5 -8.5h2q50 1 85 36q-43 36 -88 36q-43 0 -56 -21q-5 -7 -5 -15zM38 -72q0 63 50 101t125 38q63 0 116 -28q-6 58 -46 81q-13 8 -33 8h-120v108l160 186h-240v108h370v-108l-160 -186q44 -1 74 -15q73 -32 102 -113q16 -42 14 -92v-2
q0 -44 -6 -74q39 -49 61 -110l-109 -35q-7 20 -18 40q-61 -46 -158 -48h-2q-127 0 -167 81q-13 28 -13 59v1z" />
    <glyph glyph-name="uni0294" unicode="&#x294;" 
d="M49 580q7 46 33.5 83.5t65.5 57.5q44 22 99 22q96 0 152 -64q58 -65 51 -155q-5 -57 -36 -111l-63 -99q-24 -39 -33 -74q-8 -32 -8 -81v-159h-120v159q0 80 26 132q6 10 32.5 51l40.5 64q42 69 42 132t-42 87q-17 10 -42 10q-38 0 -59 -26q-17 -20 -20 -45z" />
    <glyph glyph-name="uni0295" unicode="&#x295;" 
d="M50 524q-7 90 51 155q56 64 152 64q93 0 148 -60q41 -44 50 -103l-119 -16q-4 31 -25 51t-54 20q-62 0 -79 -61q-5 -18 -5 -36q0 -63 42 -132l40.5 -64t32.5 -51q26 -52 26 -132v-159h-120v159q0 49 -8 81q-9 35 -33 74l-63 99q-31 54 -36 111z" />
    <glyph glyph-name="uni0296" unicode="&#x296;" 
d="M49 155l119 16q4 -31 25 -51t54 -20q62 0 79 61q5 18 5 36q0 63 -42 132l-40.5 64t-32.5 51q-26 52 -26 132v159h120v-159q0 -49 8 -81q9 -35 33 -74l63 -99q31 -54 36 -111q7 -90 -51 -155q-56 -64 -152 -64q-93 0 -148 60q-41 44 -50 103z" />
    <glyph glyph-name="uni0297" unicode="&#x297;" 
d="M50 5v315q0 50 10 83q11 35 35.5 65t55.5 47q43 23 102 23q93 0 148 -60q41 -44 50 -103l-119 -16q-4 31 -25 51t-54 20q-40 0 -62 -32q-21 -29 -21 -78v-315q0 -49 21 -78q22 -32 62 -32q38 0 59 26q17 20 20 45l119 -16q-7 -46 -33.5 -83.5t-65.5 -57.5
q-44 -22 -99 -22q-95 0 -152 64q-30 34 -41 71q-10 33 -10 83z" />
    <glyph glyph-name="uni0298" unicode="&#x298;" 
d="M204 368q0 -21 12.5 -33.5t33.5 -12.5t33.5 12.5t12.5 33.5t-12.5 33.5t-33.5 12.5t-33.5 -12.5t-12.5 -33.5zM162 220q0 -56 24 -88t64 -32q62 0 82 70q6 21 6 50v295q0 57 -24 88q-24 32 -64 32q-62 0 -82 -70q-6 -21 -6 -50v-295zM42 220v295q0 59 14 95
q32 86 107 117q38 16 87 16q145 0 194 -133q14 -39 14 -95v-295q0 -59 -14 -95q-32 -86 -107 -117q-38 -16 -87 -16q-145 0 -194 133q-14 39 -14 95z" />
    <glyph glyph-name="uni0299" unicode="&#x299;" 
d="M170 330h101q42 0 42 46t-42 46h-101v-92zM170 108h132q36 0 36 57q0 40 -21 53q-7 4 -15 4h-132v-114zM50 0v530h221q38 0 68 -11q94 -37 94 -143q0 -51 -22 -86q47 -44 47 -125q0 -115 -91 -154q-26 -11 -65 -11h-252z" />
    <glyph glyph-name="uni029A" unicode="&#x29a;" 
d="M168 338q12 -13 45 -17q10 -2 37 -2h60v-108h-60q-40 0 -60 -13q-21 -14 -7 -52q17 -46 66 -46h1q62 0 82 70q6 21 6 50v90q0 56 -24 88q-21 31 -65 32h-2q-58 0 -79 -46q-14 -31 0 -46zM42 347q-3 85 56 139q57 52 149 52h3q146 -1 194 -133q14 -39 14 -95v-90
q0 -59 -14 -95q-32 -86 -107 -117q-42 -16 -87 -16h-1q-87 0 -139 52q-55 55 -52 139q1 44 26 75q-39 31 -42 89z" />
    <glyph glyph-name="uni029B" unicode="&#x29b;" 
d="M450 381l1 -6l-119 -17q-5 32 -26.5 52t-56.5 20q-41 0 -65 -32q-22 -29 -22 -78v-110q0 -77 51 -102q18 -8 36 -8h1q56 0 74 64q4 13 6 31h-80v108h200v-108q-3 -88 -54 -144q-54 -59 -146 -59h-1q-144 0 -193 127q-14 38 -14 91v110q0 50 10 83q11 35 36 65t57 47
q44 23 104 23q48 0 81 -13v5q0 58 9 90q28 93 131 113q30 6 90 6v-108q-58 0 -82 -21q-28 -24 -28 -80v-149z" />
    <glyph glyph-name="uni029C" unicode="&#x29c;" 
d="M50 0v530h120v-206h160v206h120v-530h-120v216h-160v-216h-120z" />
    <glyph glyph-name="uni029D" unicode="&#x29d;" 
d="M220 685q0 37 21 58.5t59 21.5t59 -21.5t21 -58.5t-21 -58.5t-59 -21.5t-59 21.5t-21 58.5zM155 -73q0 -37 24 -47q10 -4 17 -4q21 0 34.5 16t16.5 39q2 17 0 36q-24 11 -49 11h-1q-42 0 -42 -51zM55 -72q0 99 82 130q28 10 58 10h1q19 0 44 -5v359h-115v108h235v-466
q0 -44 -1 -60q91 -75 132 -187l-93 -30q-21 58 -60 105q-45 -105 -145 -105q-59 0 -99 38q-39 37 -39 102v1z" />
    <glyph glyph-name="uni029E" unicode="&#x29e;" 
d="M44 530h120q0 -32 18 -84q27 -75 87 -177q29 26 61 52v209h120v-735h-120v401q-63 -59 -105 -114q-23 -30 -36 -59q-5 -11 -5 -23h-126q0 11 7 30q13 33 46 74q36 48 86 96q-95 144 -130 232q-15 38 -20 69q-3 15 -3 29z" />
    <glyph glyph-name="uni029F" unicode="&#x29f;" 
d="M75 0v530h120v-422h255v-108h-375z" />
    <glyph glyph-name="uni02A0" unicode="&#x2a0;" 
d="M162 220q0 -85 51 -112q15 -8 36 -8h1q55 1 74 70q6 21 6 50v90q0 53 -22 88q-22 32 -58 32h-1q-60 0 -81 -70q-6 -21 -6 -50v-90zM42 220v90q0 105 46 166q45 62 123 62h1q75 0 118 -62v54q0 58 9 90q28 93 131 113q30 6 90 6v-108q-58 0 -82 -21q-28 -24 -28 -80v-735
h-120v259q-43 -62 -118 -62h-1q-78 0 -123 62q-46 61 -46 166z" />
    <glyph glyph-name="uni02A1" unicode="&#x2a1;" 
d="M49 580q7 46 33.5 83.5t65.5 57.5q44 22 99 22q96 0 152 -64q58 -65 51 -155q-5 -57 -36 -111l-63 -99q-29 -47 -37 -91h41v-78h-45v-145h-120v145h-45v78h49q6 36 22 68q6 10 32.5 51l40.5 64q42 69 42 132t-42 87q-17 10 -42 10q-38 0 -59 -26q-17 -20 -20 -45z" />
    <glyph glyph-name="uni02A2" unicode="&#x2a2;" 
d="M50 524q-7 90 51 155q56 64 152 64q93 0 148 -60q41 -44 50 -103l-119 -16q-4 31 -25 51t-54 20q-62 0 -79 -61q-5 -18 -5 -36q0 -63 42 -132l40.5 -64t32.5 -51q16 -32 22 -68h49v-78h-45v-145h-120v145h-45v78h41q-1 3 -2.5 9t-1.5 8q-9 35 -33 74l-63 99
q-31 54 -36 111z" />
    <glyph glyph-name="uni02A3" unicode="&#x2a3;" horiz-adv-x="1000" 
d="M550 0v108l270 314h-270v108h400v-108l-270 -314h270v-108h-400zM162 220q0 -85 51 -112q15 -8 36 -8h1q55 1 74 70q6 21 6 50v90q0 53 -22 88q-22 32 -58 32h-1q-60 0 -81 -70q-6 -21 -6 -50v-90zM42 220v90q0 105 46 166q45 62 123 62h1q75 0 118 -62v259h120v-735
h-120v54q-43 -62 -118 -62h-1q-78 0 -123 62q-46 61 -46 166z" />
    <glyph glyph-name="uni02A4" unicode="&#x2a4;" horiz-adv-x="1000" 
d="M549 -95l109 46q22 -48 80 -48q43 0 69 33q23 29 23 80q0 77 -47 104q-13 8 -33 8h-120v108l160 186h-240v108h370v-108l-160 -186q44 -1 74 -15q117 -52 116 -206q-1 -142 -106 -197q-46 -23 -106 -23q-86 0 -142 48q-30 26 -47 62zM162 220q0 -85 51 -112q15 -8 36 -8
h1q55 1 74 70q6 21 6 50v90q0 53 -22 88q-22 32 -58 32h-1q-60 0 -81 -70q-6 -21 -6 -50v-90zM42 220v90q0 105 46 166q45 62 123 62h1q75 0 118 -62v259h120v-735h-120v54q-43 -62 -118 -62h-1q-78 0 -123 62q-46 61 -46 166z" />
    <glyph glyph-name="uni02A5" unicode="&#x2a5;" horiz-adv-x="1000" 
d="M822 108h57q32 0 32 24q0 14 -8 22.5t-22 8.5q-12 0 -26 -10q-14 -12 -33 -45zM550 0v108l270 314h-270v108h400v-108l-270 -314h65q31 61 66 96q38 38 77 38q44 0 78 -30q31 -28 32 -80q1 -45 -17.5 -76.5t-51.5 -46.5q-21 -9 -50 -9h-102q-17 -48 -31 -106l-85 19
q12 37 33 87h-144zM162 220q0 -85 51 -112q15 -8 36 -8h1q55 1 74 70q6 21 6 50v90q0 53 -22 88q-22 32 -58 32h-1q-60 0 -81 -70q-6 -21 -6 -50v-90zM42 220v90q0 105 46 166q45 62 123 62h1q75 0 118 -62v259h120v-735h-120v54q-43 -62 -118 -62h-1q-78 0 -123 62
q-46 61 -46 166z" />
    <glyph glyph-name="uni02A6" unicode="&#x2a6;" horiz-adv-x="1000" 
d="M49 422v108h91v205h120v-205h139v-108h-139v-229q0 -42 11 -68q12 -25 29 -25h1q22 0 33 30q6 15 8 39l119 -14q-6 -45 -29.5 -86t-55.5 -59t-76 -18q-73 0 -117 54q-33 42 -41 104q-2 20 -2 43v229h-91zM549 110l111 41q21 -51 87 -51q59 0 77 29q6 9 6 19q0 25 -26 43
q-23 15 -47 20l-34 6.5t-39 8.5q-82 20 -116 84q-18 33 -18 72q0 68 51 110q54 46 152 46q73 0 124.5 -31.5t73.5 -86.5l-111 -41q-21 51 -87 51q-59 0 -77 -29q-6 -9 -6 -19q0 -25 26 -43q23 -15 47 -20l34 -6.5t39 -8.5q82 -20 116 -84q18 -33 18 -72q0 -68 -51 -110
q-54 -46 -152 -46q-73 0 -124.5 31.5t-73.5 86.5z" />
    <glyph glyph-name="uni02A7" unicode="&#x2a7;" horiz-adv-x="1000" 
d="M580 -87q58 0 80 15q30 20 30 72v580q0 58 10 87q29 86 132 103q32 5 88 5v-108q-58 0 -80 -15q-30 -20 -30 -72v-580q0 -58 -10 -87q-29 -86 -132 -103q-32 -5 -88 -5v108zM49 422v108h91v205h120v-205h139v-108h-139v-229q0 -42 11 -68q12 -25 29 -25h1q22 0 33 30
q6 15 8 39l119 -14q-6 -45 -29.5 -86t-55.5 -59t-76 -18q-73 0 -117 54q-33 42 -41 104q-2 20 -2 43v229h-91z" />
    <glyph glyph-name="uni02A8" unicode="&#x2a8;" horiz-adv-x="1000" 
d="M681 146q30 -50 93 -50h1q51 0 66 29q5 10 5 20q0 24 -20 36.5t-47.5 12.5t-52.5 -13q-21 -11 -45 -35zM470 1q23 85 77 159q-5 22 -5 60v90q0 54 10 84q23 74 94 113q44 23 104 23q94 0 151 -59q40 -41 50 -96l-118 -21q-5 30 -27 49t-56 19q-42 0 -66 -33
q-22 -29 -22 -79v-42q55 31 117 31q79 0 131 -42t52 -111v-1q0 -69 -51 -112q-49 -41 -135 -41h-1q-102 0 -164 56q-20 -39 -29 -74zM49 422v108h91v205h120v-205h139v-108h-139v-229q0 -42 11 -68q12 -25 29 -25h1q22 0 33 30q6 15 8 39l119 -14q-6 -45 -29.5 -86
t-55.5 -59t-76 -18q-73 0 -117 54q-33 42 -41 104q-2 20 -2 43v229h-91z" />
    <glyph glyph-name="uni02A9" unicode="&#x2a9;" horiz-adv-x="1000" 
d="M550 0v530h120v-54q43 62 118 62t118 -62q44 -62 44 -166v-310q0 -58 -9 -90q-28 -93 -131 -113q-30 -6 -90 -6v108q58 0 82 21q28 24 28 80v310q0 53 -22 88q-20 32 -58 32q-55 0 -74 -70q-6 -21 -6 -50v-310h-120zM75 422v108h109v85q0 55 12 81q32 70 136 78
q14 1 82 1v-108q-9 0 -29 1.5t-29 1.5q-52 0 -52 -55v-85h121v-108h-121v-422h-120v422h-109z" />
    </font>
</defs>
</svg>
